<?xml version="1.0" encoding="UTF-8" standalone="no"?><svg xmlns="http://www.w3.org/2000/svg" xmlns:xlink="http://www.w3.org/1999/xlink" fill="#000000" height="295.6" preserveAspectRatio="xMidYMid meet" version="1" viewBox="0.0 0.0 485.1 295.6" width="485.1" zoomAndPan="magnify"><g id="change1_1"><path d="M484.641,19.147v20.066v255.854h-98.486v-8.249h-8.249V39.213H59.882v247.605h30.461h8.249h61.391h217.922 v8.249H159.984H98.593h-8.249H59.882H0.5V39.213V19.147H484.641z" fill="#f2f2f2"/></g><linearGradient gradientUnits="userSpaceOnUse" id="a" x1="0.5" x2="484.641" xlink:actuate="onLoad" xlink:show="other" xlink:type="simple" y1="147.784" y2="147.784"><stop offset="0" stop-color="#604abd"/><stop offset="1" stop-color="#ff80b4"/></linearGradient><path d="M484.641,19.147H0.5V0.5h484.141V19.147z M386.156,48.719h-8.249v144.725h8.249V48.719z M314.737,295.068v-8.249H170.012v8.249H314.737z" fill="url(#a)"/><linearGradient gradientUnits="userSpaceOnUse" id="b" x1="392.086" x2="463.242" xlink:actuate="onLoad" xlink:show="other" xlink:type="simple" y1="90.566" y2="90.566"><stop offset="0" stop-color="#604abd"/><stop offset="0.5" stop-color="#ff80b4"/><stop offset="1" stop-color="#f2f2f2"/></linearGradient><path d="M463.242,121.081h-71.155V60.051h71.155V121.081z" fill="url(#b)"/><linearGradient gradientUnits="userSpaceOnUse" id="c" x1="473.367" x2="473.367" xlink:actuate="onLoad" xlink:show="other" xlink:type="simple" y1="121.082" y2="60.051"><stop offset="0" stop-color="#ff80b4"/><stop offset="1" stop-color="#f2f2f2"/></linearGradient><path d="M478.711,121.081h-10.687V60.051h10.687V121.081z" fill="url(#c)"/><g id="change2_1"><path d="M50.146,239.308v24.586H25.559v-15.322h5.642v9.681h13.303v-13.303h-9.68v-5.641H50.146z M456.164,190.218 h-58.466c-0.585,0-1.059,0.474-1.059,1.059s0.474,1.059,1.059,1.059h58.466V190.218z" fill="#f2f2f2"/></g><g id="change3_1"><path d="M34.824,248.572H10.237v-24.587h24.587V248.572z M420.506,158.498h-22.807c-0.585,0-1.059,0.474-1.059,1.059 c0,0.585,0.474,1.059,1.059,1.059h22.807V158.498z" fill="#604abd"/></g><g id="change4_1"><path d="M399.274,176.224h-1.575c-0.585,0-1.059-0.474-1.059-1.059s0.474-1.059,1.059-1.059h1.575V176.224z M484.641,206.33h-66.117v11.238h66.117V206.33z M484.641,134.256h-45.549v11.238h45.549V134.256z M484.641,39.213h-70.844v11.238 h70.844V39.213z" fill="#ff80b4"/></g><g id="change5_1"><path d="M50.146,238.808H35.324v-14.822c0-0.276-0.224-0.5-0.5-0.5H10.237c-0.276,0-0.5,0.224-0.5,0.5v24.587 c0,0.276,0.224,0.5,0.5,0.5h14.822v14.821c0,0.276,0.224,0.5,0.5,0.5h24.586c0.276,0,0.5-0.224,0.5-0.5v-24.586 C50.646,239.031,50.422,238.808,50.146,238.808z M35.324,248.572v-3.123h8.68v12.304H31.701v-8.681h3.123 C35.1,249.072,35.324,248.849,35.324,248.572z M10.737,248.072v-23.587h23.587v14.822v5.642v3.123h-3.123h-5.642H10.737z M49.646,263.394H26.059v-14.321h4.642v9.181c0,0.276,0.224,0.5,0.5,0.5h13.303c0.276,0,0.5-0.224,0.5-0.5v-13.304 c0-0.276-0.224-0.5-0.5-0.5h-9.18v-4.642h14.322V263.394z M76.367,292.904c0.176,0.111,0.391,0.168,0.646,0.168 c0.442,0,0.782-0.188,1.02-0.564c0.237-0.377,0.356-0.771,0.356-1.182v-0.694c0-0.34-0.08-0.66-0.239-0.962 c-0.16-0.301-0.327-0.507-0.503-0.618s-0.39-0.167-0.644-0.167c-0.442,0-0.781,0.189-1.018,0.566 c-0.236,0.378-0.354,0.771-0.354,1.181v0.694c0,0.337,0.079,0.656,0.236,0.958C76.024,292.585,76.191,292.792,76.367,292.904z M76.264,290.632c0-0.35,0.091-0.644,0.274-0.88c0.122-0.156,0.278-0.234,0.469-0.234c0.197,0,0.351,0.071,0.459,0.213 c0.191,0.257,0.287,0.558,0.287,0.901v0.694c0,0.35-0.092,0.643-0.274,0.879c-0.122,0.156-0.277,0.234-0.466,0.234 c-0.199,0-0.353-0.071-0.459-0.213c-0.193-0.255-0.29-0.556-0.29-0.9V290.632z M42.495,282.642c0,1.343-1.089,2.432-2.432,2.432 c-1.343,0-2.432-1.089-2.432-2.432c0-1.343,1.089-2.432,2.432-2.432C41.406,280.21,42.495,281.299,42.495,282.642z M144.495,292.12 c0-0.071,0.024-0.132,0.072-0.182c0.048-0.05,0.106-0.074,0.175-0.074c0.047,0,0.096,0.016,0.146,0.049 c0.072,0.049,0.139,0.081,0.203,0.098c0.098,0.022,0.232,0.033,0.403,0.033c0.292,0,0.502-0.037,0.632-0.113 c0.13-0.075,0.195-0.183,0.195-0.32c0-0.104-0.038-0.202-0.114-0.297c-0.075-0.096-0.177-0.169-0.304-0.221 c-0.073-0.029-0.197-0.05-0.371-0.062c-0.083-0.005-0.147-0.03-0.191-0.077c-0.045-0.046-0.067-0.104-0.067-0.172 c0-0.071,0.024-0.132,0.073-0.181s0.111-0.073,0.186-0.073c0.166,0,0.255-0.001,0.266-0.002c0.065-0.007,0.13-0.028,0.195-0.064 c0.065-0.035,0.118-0.085,0.158-0.147c0.04-0.062,0.06-0.127,0.06-0.194c0-0.105-0.047-0.197-0.141-0.274 c-0.093-0.077-0.234-0.116-0.421-0.116c-0.241,0-0.425,0.07-0.552,0.211c-0.038,0.04-0.067,0.066-0.09,0.078 c-0.034,0.018-0.072,0.026-0.115,0.026c-0.068,0-0.127-0.024-0.176-0.073s-0.073-0.109-0.073-0.181c0-0.112,0.075-0.222,0.225-0.327 c0.218-0.154,0.491-0.232,0.818-0.232c0.309,0,0.558,0.088,0.745,0.264s0.281,0.388,0.281,0.635c0,0.129-0.028,0.249-0.083,0.36 s-0.138,0.215-0.249,0.31c0.148,0.101,0.259,0.217,0.332,0.35s0.11,0.281,0.11,0.445c0,0.178-0.048,0.342-0.146,0.492 c-0.097,0.15-0.237,0.265-0.421,0.342s-0.425,0.116-0.723,0.116c-0.387,0-0.679-0.061-0.874-0.181 C144.55,292.296,144.495,292.215,144.495,292.12z M24.821,282.642c0,1.343-1.089,2.432-2.432,2.432 c-1.343,0-2.432-1.089-2.432-2.432c0-1.343,1.089-2.432,2.432-2.432C23.733,280.21,24.821,281.299,24.821,282.642z M139.395,292.457 c-0.067-0.063-0.1-0.143-0.1-0.237c0-0.094,0.033-0.173,0.1-0.236s0.159-0.096,0.276-0.096s0.209,0.032,0.276,0.096 s0.1,0.143,0.1,0.236c0,0.095-0.033,0.174-0.1,0.237s-0.159,0.095-0.276,0.095S139.462,292.521,139.395,292.457z M142.696,291.454 c0.116,0,0.226-0.022,0.33-0.067s0.219-0.121,0.344-0.229c-0.05,0.247-0.182,0.457-0.396,0.629s-0.446,0.257-0.698,0.257 c-0.07,0-0.137-0.016-0.2-0.049c-0.049-0.023-0.093-0.036-0.132-0.036c-0.07,0-0.129,0.024-0.177,0.072 c-0.048,0.048-0.072,0.107-0.072,0.179c0,0.088,0.038,0.159,0.112,0.213c0.111,0.081,0.267,0.122,0.469,0.122 c0.365,0,0.7-0.119,1.006-0.356c0.396-0.31,0.593-0.72,0.593-1.23c0-0.301-0.043-0.591-0.129-0.868s-0.221-0.489-0.405-0.637 s-0.399-0.222-0.645-0.222c-0.343,0-0.609,0.141-0.798,0.42c-0.138,0.204-0.208,0.43-0.208,0.68c0,0.318,0.101,0.586,0.301,0.801 C142.192,291.347,142.427,291.454,142.696,291.454z M142.339,289.895c0.099-0.108,0.22-0.162,0.361-0.162 c0.135,0,0.255,0.049,0.36,0.146c0.105,0.097,0.185,0.261,0.238,0.492c-0.184,0.389-0.389,0.583-0.615,0.583 c-0.128,0-0.243-0.058-0.343-0.173c-0.101-0.116-0.15-0.268-0.15-0.455C142.19,290.146,142.24,290.003,142.339,289.895z M147.383,291.972v-1.959c-0.088-0.008-0.154-0.034-0.199-0.08c-0.045-0.046-0.067-0.103-0.067-0.171 c0-0.075,0.025-0.136,0.077-0.182c0.051-0.047,0.137-0.069,0.257-0.069l0.549,0.002l0.681,1.506l0.669-1.508l0.554,0.002 c0.121,0,0.206,0.022,0.258,0.068c0.051,0.046,0.077,0.105,0.077,0.181c0,0.068-0.023,0.125-0.068,0.171s-0.111,0.072-0.198,0.08 v1.959c0.106,0,0.184,0.023,0.234,0.07s0.076,0.107,0.076,0.181s-0.026,0.133-0.077,0.18c-0.052,0.046-0.137,0.069-0.258,0.069 h-0.659c-0.119,0-0.204-0.023-0.255-0.069c-0.052-0.047-0.077-0.107-0.077-0.183c0-0.072,0.025-0.133,0.077-0.179 c0.051-0.047,0.136-0.069,0.255-0.069h0.183v-1.492l-0.574,1.289h-0.435l-0.581-1.289v1.492h0.181c0.121,0,0.206,0.022,0.258,0.069 c0.051,0.046,0.077,0.106,0.077,0.182c0,0.073-0.026,0.133-0.077,0.18c-0.052,0.046-0.137,0.069-0.258,0.069h-0.657 c-0.121,0-0.207-0.023-0.257-0.069c-0.052-0.047-0.077-0.107-0.077-0.183c0-0.072,0.025-0.133,0.076-0.179 C147.199,291.994,147.277,291.972,147.383,291.972z M72.575,292.904c0.176,0.111,0.391,0.168,0.646,0.168 c0.442,0,0.782-0.188,1.02-0.564c0.237-0.377,0.356-0.771,0.356-1.182v-0.694c0-0.34-0.08-0.66-0.239-0.962 c-0.16-0.301-0.327-0.507-0.503-0.618s-0.39-0.167-0.644-0.167c-0.442,0-0.781,0.189-1.018,0.566 c-0.236,0.378-0.354,0.771-0.354,1.181v0.694c0,0.337,0.079,0.656,0.236,0.958C72.232,292.585,72.399,292.792,72.575,292.904z M72.472,290.632c0-0.35,0.091-0.644,0.274-0.88c0.122-0.156,0.278-0.234,0.469-0.234c0.197,0,0.351,0.071,0.459,0.213 c0.191,0.257,0.287,0.558,0.287,0.901v0.694c0,0.35-0.092,0.643-0.274,0.879c-0.122,0.156-0.277,0.234-0.466,0.234 c-0.199,0-0.353-0.071-0.459-0.213c-0.193-0.255-0.29-0.556-0.29-0.9V290.632z M33.658,282.642c0,1.343-1.089,2.432-2.432,2.432 c-1.343,0-2.432-1.089-2.432-2.432c0-1.343,1.089-2.432,2.432-2.432C32.57,280.21,33.658,281.299,33.658,282.642z M68.138,289.799 c-0.059-0.064-0.088-0.143-0.088-0.235c0-0.084,0.021-0.15,0.065-0.198c0.043-0.049,0.133-0.091,0.271-0.128l1.36-0.353v3.462h0.639 c0.152,0,0.261,0.029,0.326,0.088s0.097,0.136,0.097,0.23c0,0.093-0.032,0.168-0.097,0.227s-0.173,0.088-0.326,0.088h-1.91 c-0.152,0-0.261-0.029-0.326-0.088c-0.064-0.059-0.097-0.136-0.097-0.229c0-0.093,0.033-0.169,0.097-0.228 c0.065-0.059,0.173-0.088,0.326-0.088h0.639v-2.638l-0.564,0.148c-0.091,0.024-0.159,0.037-0.204,0.037 C68.266,289.895,68.197,289.862,68.138,289.799z M154.658,292.809l1.797-1.611l-1.797-1.612c-0.206-0.185-0.223-0.5-0.038-0.706 c0.185-0.205,0.5-0.222,0.706-0.038l2.211,1.984c0.105,0.095,0.166,0.23,0.166,0.372s-0.061,0.277-0.166,0.372l-2.211,1.983 c-0.096,0.086-0.215,0.128-0.334,0.128c-0.137,0-0.273-0.056-0.372-0.166C154.436,293.309,154.453,292.993,154.658,292.809z M40.803,72.307c0-0.276,0.224-0.5,0.5-0.5h2.768c0.276,0,0.5,0.224,0.5,0.5s-0.224,0.5-0.5,0.5h-2.768 C41.026,72.807,40.803,72.583,40.803,72.307z M92.112,290.425c-0.185-0.206-0.167-0.521,0.038-0.706 c0.205-0.186,0.521-0.169,0.706,0.038l1.612,1.797l1.612-1.797c0.185-0.206,0.501-0.222,0.706-0.038 c0.206,0.185,0.223,0.5,0.038,0.706l-1.984,2.212c-0.095,0.105-0.23,0.166-0.372,0.166s-0.277-0.061-0.372-0.166L92.112,290.425z M39.485,185.467h6.418c3.118,0,5.655-2.537,5.655-5.656v-3.375c0-3.118-2.537-5.655-5.655-5.655h-6.418 c-3.118,0-5.655,2.537-5.655,5.655v3.375C33.83,182.93,36.367,185.467,39.485,185.467z M34.83,176.436 c0-2.567,2.088-4.655,4.655-4.655h6.418c2.567,0,4.655,2.088,4.655,4.655v3.375c0,2.567-2.088,4.656-4.655,4.656h-6.418 c-2.567,0-4.655-2.088-4.655-4.656V176.436z M43.626,83.584v8.683c0,0.654,0.102,1.06,0.306,1.216 c0.205,0.157,0.652,0.26,1.342,0.31v0.314h-4.946v-0.314c0.718-0.056,1.166-0.174,1.342-0.355c0.177-0.181,0.265-0.637,0.265-1.368 v-8.484h-0.953c-0.939,0-1.579,0.135-1.918,0.405c-0.34,0.271-0.595,0.862-0.766,1.773h-0.415l0.1-2.883h9.595l0.091,2.883h-0.406 c-0.199-0.905-0.452-1.495-0.758-1.769s-0.951-0.41-1.935-0.41H43.626z M38.079,119.173h9.23c0.276,0,0.5-0.224,0.5-0.5v-6.036 v-2.943c0-0.276-0.224-0.5-0.5-0.5h-3.5v-5.984c0-0.62-0.502-1.122-1.122-1.122c-0.62,0-1.122,0.502-1.122,1.122v5.984h-3.5 c-0.276,0-0.5,0.224-0.5,0.5v2.943c0,0.024,0.01,0.045,0.014,0.068v5.968C37.579,118.949,37.802,119.173,38.079,119.173z M39.931,118.173h-1.352v-5.036h1.352V118.173z M42.194,118.173h-1.263v-5.036h1.263V118.173z M44.457,118.173h-1.263v-5.036h1.263 V118.173z M46.809,118.173h-1.353v-5.036h1.353V118.173z M38.565,110.194h8.244v1.943h-8.244V110.194z M33.839,207.349h16.728 c0.276,0,0.5-0.224,0.5-0.5v-4.707c0-0.133-0.053-0.261-0.148-0.354c-0.095-0.095-0.224-0.13-0.356-0.146l-9.503,0.073l1.631-7.066 c0.034-0.148-0.001-0.305-0.096-0.424c-0.095-0.119-0.239-0.188-0.391-0.188h-5.232c-0.229,0-0.428,0.155-0.484,0.377l-3.132,12.312 c-0.038,0.149-0.005,0.308,0.09,0.43S33.685,207.349,33.839,207.349z M37.36,195.036h4.215l-1.632,7.071 c-0.034,0.149,0.001,0.306,0.097,0.425c0.096,0.12,0.236,0.19,0.394,0.188l9.633-0.074v3.703H34.482L37.36,195.036z M79.448,291.575 c-0.037-0.039-0.056-0.088-0.056-0.147c0-0.043,0.015-0.082,0.043-0.117c0.021-0.027,0.069-0.053,0.145-0.077l2.333-0.756 c0.058-0.019,0.1-0.028,0.126-0.028c0.049,0,0.092,0.021,0.128,0.061s0.054,0.088,0.054,0.144c0,0.045-0.015,0.085-0.043,0.12 c-0.021,0.026-0.069,0.053-0.145,0.077l-2.333,0.756c-0.058,0.019-0.1,0.027-0.126,0.027 C79.527,291.634,79.485,291.614,79.448,291.575z M14.702,69.859c0.046,0.172,0.181,0.307,0.354,0.354 c0.174,0.048,0.357-0.003,0.483-0.129l2.292-2.292l4.79,4.79c0.094,0.094,0.221,0.146,0.354,0.146s0.26-0.053,0.354-0.146 l2.352-2.352c0.195-0.195,0.195-0.512,0-0.707l-4.79-4.79l2.292-2.292c0.126-0.126,0.176-0.311,0.129-0.483 s-0.181-0.307-0.354-0.354l-10.441-2.798c-0.174-0.047-0.357,0.003-0.483,0.129c-0.126,0.126-0.176,0.311-0.129,0.483L14.702,69.859 z M21.863,62.345l-2.034,2.033c-0.094,0.094-0.146,0.221-0.146,0.354s0.053,0.26,0.146,0.354l4.79,4.79l-1.645,1.645l-4.79-4.79 c-0.098-0.098-0.226-0.146-0.354-0.146s-0.256,0.049-0.354,0.146l-2.034,2.034l-2.349-8.769L21.863,62.345z M35.535,61.503v-2.5 c0-0.276,0.224-0.5,0.5-0.5h2.5c0.276,0,0.5,0.224,0.5,0.5s-0.224,0.5-0.5,0.5h-2v2c0,0.276-0.224,0.5-0.5,0.5 S35.535,61.78,35.535,61.503z M35.535,67.039v-2.768c0-0.276,0.224-0.5,0.5-0.5s0.5,0.224,0.5,0.5v2.768c0,0.276-0.224,0.5-0.5,0.5 S35.535,67.315,35.535,67.039z M35.535,72.307v-2.5c0-0.276,0.224-0.5,0.5-0.5s0.5,0.224,0.5,0.5v2h2c0.276,0,0.5,0.224,0.5,0.5 s-0.224,0.5-0.5,0.5h-2.5C35.759,72.807,35.535,72.583,35.535,72.307z M40.681,137.048c0.867,0,1.725-0.225,2.516-0.624l4.505,4.506 c0.094,0.094,0.221,0.146,0.354,0.146s0.26-0.053,0.354-0.146l1.748-1.748c0.195-0.195,0.195-0.512,0-0.707l-4.503-4.503 c0.393-0.774,0.624-1.625,0.624-2.519c0-1.495-0.583-2.901-1.64-3.958c-2.183-2.183-5.734-2.184-7.916,0 c-1.057,1.057-1.64,2.463-1.64,3.958s0.583,2.901,1.64,3.958C37.815,136.503,39.248,137.048,40.681,137.048z M49.097,138.829 l-1.041,1.041l-3.974-3.974c0.2-0.151,0.386-0.312,0.557-0.483c0,0,0,0,0,0c0.171-0.171,0.333-0.357,0.483-0.557L49.097,138.829z M37.431,128.203c0.896-0.896,2.073-1.344,3.25-1.344s2.354,0.448,3.251,1.344c1.54,1.54,1.748,3.908,0.641,5.682 c-0.047,0.075-0.097,0.145-0.147,0.216c-0.148,0.21-0.305,0.416-0.493,0.604c0,0-0.001,0.001-0.001,0.001 c-0.188,0.188-0.395,0.346-0.606,0.494c-0.07,0.049-0.14,0.099-0.214,0.146c-1.774,1.107-4.141,0.9-5.682-0.64 C35.638,132.912,35.638,129.995,37.431,128.203z M40.803,59.003c0-0.276,0.224-0.5,0.5-0.5h2.768c0.276,0,0.5,0.224,0.5,0.5 s-0.224,0.5-0.5,0.5h-2.768C41.027,59.503,40.803,59.28,40.803,59.003z M34.185,150.561c-0.225-0.161-0.276-0.474-0.115-0.698 c0.161-0.225,0.473-0.276,0.698-0.115l15.454,11.097c0.225,0.161,0.276,0.474,0.115,0.698c-0.098,0.136-0.251,0.208-0.407,0.208 c-0.101,0-0.203-0.03-0.291-0.094L34.185,150.561z M26.483,184.913c0.276,0,0.5-0.224,0.5-0.5v-12.579c0-0.276-0.224-0.5-0.5-0.5 H11.108c-0.276,0-0.5,0.224-0.5,0.5v12.579c0,0.276,0.224,0.5,0.5,0.5H26.483z M11.608,172.334h14.375v11.579H11.608V172.334z M10.057,161.988h8.227c0.065,0,0.129-0.013,0.189-0.038c0.034-0.014,0.061-0.038,0.09-0.058c0.022-0.015,0.047-0.024,0.067-0.043 l9.154-8.804c0.098-0.094,0.153-0.224,0.153-0.36v-2.43c0-0.034-0.021-0.061-0.028-0.093c-0.005-0.029,0.005-0.058-0.006-0.086 c-0.006-0.017-0.024-0.025-0.032-0.04c-0.024-0.048-0.057-0.083-0.095-0.12c-0.032-0.033-0.06-0.063-0.1-0.086 c-0.014-0.008-0.021-0.024-0.036-0.031c-0.035-0.016-0.074-0.008-0.111-0.015c-0.032-0.007-0.059-0.029-0.093-0.029h-8.227 c-0.124,0-0.243,0.045-0.334,0.128l-9.154,8.229c-0.003,0.003-0.003,0.007-0.005,0.009c-0.063,0.059-0.106,0.136-0.131,0.221 c-0.006,0.021-0.009,0.04-0.012,0.061c-0.005,0.027-0.016,0.052-0.016,0.081v3.004C9.557,161.764,9.781,161.988,10.057,161.988z M26.938,152.471l-8.154,7.842v-1.607l8.154-7.33V152.471z M19.403,150.754h6.731l-8.042,7.229h-6.731L19.403,150.754z M10.557,158.983h7.227v2.004h-7.227V158.983z M46.339,59.003c0-0.276,0.224-0.5,0.5-0.5h2.5c0.276,0,0.5,0.224,0.5,0.5v2.5 c0,0.276-0.224,0.5-0.5,0.5s-0.5-0.224-0.5-0.5v-2h-2C46.562,59.503,46.339,59.28,46.339,59.003z M81.194,291.285 c-0.247,0-0.458,0.088-0.633,0.263s-0.262,0.386-0.262,0.633c0,0.244,0.087,0.454,0.262,0.629s0.386,0.263,0.633,0.263 c0.247,0,0.458-0.087,0.632-0.261s0.262-0.385,0.262-0.631c0-0.249-0.087-0.461-0.262-0.635S81.441,291.285,81.194,291.285z M81.549,292.533c-0.099,0.099-0.217,0.147-0.354,0.147c-0.138,0-0.256-0.049-0.355-0.147c-0.099-0.098-0.148-0.215-0.148-0.353 c0-0.141,0.049-0.259,0.148-0.356s0.217-0.146,0.355-0.146c0.138,0,0.256,0.049,0.354,0.146s0.148,0.216,0.148,0.356 C81.697,292.318,81.647,292.436,81.549,292.533z M18.857,206.83c4.888,0,8.864-2.726,8.864-6.076s-3.976-6.077-8.864-6.077 s-8.864,2.727-8.864,6.077S13.969,206.83,18.857,206.83z M18.857,195.677c4.336,0,7.864,2.277,7.864,5.077 c0,2.799-3.528,5.076-7.864,5.076c-4.336,0-7.864-2.277-7.864-5.076C10.993,197.954,14.521,195.677,18.857,195.677z M14.433,112.851 l-0.874,5.091c-0.032,0.188,0.045,0.377,0.199,0.489c0.154,0.113,0.359,0.127,0.526,0.038l4.573-2.403l4.572,2.403 c0.073,0.039,0.153,0.058,0.233,0.058c0.104,0,0.207-0.032,0.294-0.096c0.154-0.112,0.231-0.301,0.199-0.489l-0.874-5.091 l3.699-3.605c0.136-0.133,0.185-0.332,0.126-0.512c-0.059-0.181-0.215-0.313-0.404-0.34l-5.111-0.743l-2.286-4.632 c-0.084-0.171-0.258-0.279-0.448-0.279s-0.364,0.108-0.448,0.279l-2.287,4.632l-5.111,0.743c-0.188,0.027-0.345,0.159-0.404,0.34 c-0.059,0.181-0.01,0.379,0.126,0.512L14.433,112.851z M16.526,108.602c0.163-0.023,0.304-0.126,0.376-0.273l1.955-3.959 l1.954,3.959c0.073,0.147,0.213,0.25,0.376,0.273l4.369,0.635l-3.162,3.082c-0.118,0.115-0.171,0.28-0.144,0.442l0.747,4.352 l-3.908-2.054c-0.146-0.077-0.319-0.077-0.465,0l-3.909,2.054l0.747-4.352c0.028-0.162-0.026-0.328-0.144-0.442l-3.162-3.082 L16.526,108.602z M11.827,88.479c0-0.276,0.224-0.5,0.5-0.5h5.969V82.01c0-0.276,0.224-0.5,0.5-0.5s0.5,0.224,0.5,0.5v5.969h5.969 c0.276,0,0.5,0.224,0.5,0.5s-0.224,0.5-0.5,0.5h-5.969v5.969c0,0.276-0.224,0.5-0.5,0.5s-0.5-0.224-0.5-0.5v-5.969h-5.969 C12.05,88.979,11.827,88.756,11.827,88.479z M135.494,292.12c0-0.071,0.024-0.132,0.072-0.182c0.048-0.05,0.106-0.074,0.175-0.074 c0.047,0,0.096,0.016,0.146,0.049c0.072,0.049,0.139,0.081,0.203,0.098c0.098,0.022,0.232,0.033,0.403,0.033 c0.292,0,0.502-0.037,0.632-0.113c0.13-0.075,0.195-0.183,0.195-0.32c0-0.104-0.038-0.202-0.114-0.297 c-0.075-0.096-0.177-0.169-0.304-0.221c-0.073-0.029-0.197-0.05-0.371-0.062c-0.083-0.005-0.147-0.03-0.191-0.077 c-0.045-0.046-0.067-0.104-0.067-0.172c0-0.071,0.024-0.132,0.073-0.181s0.111-0.073,0.186-0.073c0.166,0,0.255-0.001,0.266-0.002 c0.065-0.007,0.13-0.028,0.195-0.064c0.065-0.035,0.118-0.085,0.158-0.147c0.04-0.062,0.06-0.127,0.06-0.194 c0-0.105-0.047-0.197-0.141-0.274c-0.093-0.077-0.234-0.116-0.421-0.116c-0.241,0-0.425,0.07-0.552,0.211 c-0.038,0.04-0.067,0.066-0.09,0.078c-0.034,0.018-0.072,0.026-0.115,0.026c-0.068,0-0.127-0.024-0.176-0.073 s-0.073-0.109-0.073-0.181c0-0.112,0.075-0.222,0.225-0.327c0.218-0.154,0.491-0.232,0.818-0.232c0.309,0,0.558,0.088,0.745,0.264 s0.281,0.388,0.281,0.635c0,0.129-0.028,0.249-0.083,0.36s-0.138,0.215-0.249,0.31c0.148,0.101,0.259,0.217,0.332,0.35 s0.11,0.281,0.11,0.445c0,0.178-0.048,0.342-0.146,0.492c-0.097,0.15-0.237,0.265-0.421,0.342s-0.425,0.116-0.723,0.116 c-0.387,0-0.679-0.061-0.874-0.181C135.548,292.296,135.494,292.215,135.494,292.12z M46.339,72.307c0-0.276,0.224-0.5,0.5-0.5h2v-2 c0-0.276,0.224-0.5,0.5-0.5s0.5,0.224,0.5,0.5v2.5c0,0.276-0.224,0.5-0.5,0.5h-2.5C46.562,72.807,46.339,72.583,46.339,72.307z M49.839,64.271v2.768c0,0.276-0.224,0.5-0.5,0.5s-0.5-0.224-0.5-0.5v-2.768c0-0.276,0.224-0.5,0.5-0.5S49.839,63.995,49.839,64.271 z M21.543,126.129l-1.42,1.42l-0.354,0.354l-8.105,8.105l-0.262,0.262c-0.072,0.072-0.12,0.163-0.138,0.263l-0.642,3.483 c-0.03,0.162,0.022,0.328,0.138,0.444c0.095,0.095,0.222,0.146,0.354,0.146c0.03,0,0.061-0.003,0.091-0.008l3.482-0.642 c0.1-0.019,0.191-0.066,0.263-0.138l0.263-0.263l8.105-8.105l0.354-0.354l1.42-1.42c0.328-0.328,0.508-0.763,0.508-1.227 c0-0.464-0.181-0.899-0.508-1.227l-1.094-1.095C23.319,125.454,22.22,125.454,21.543,126.129z M11.736,139.484l0.419-2.276 l1.856,1.856L11.736,139.484z M14.858,138.496l-1.067-1.067l-1.067-1.067l7.752-7.752l1.067,1.067l1.067,1.067L14.858,138.496z M80.395,290.801c0.247,0,0.457-0.087,0.631-0.261s0.261-0.384,0.261-0.631c0-0.248-0.087-0.46-0.261-0.634 s-0.384-0.261-0.631-0.261c-0.247,0-0.458,0.088-0.632,0.263s-0.262,0.386-0.262,0.632c0,0.247,0.087,0.457,0.262,0.631 S80.148,290.801,80.395,290.801z M80.039,289.553c0.098-0.098,0.216-0.146,0.356-0.146c0.138,0,0.256,0.049,0.355,0.146 c0.099,0.099,0.148,0.217,0.148,0.356c0,0.138-0.049,0.257-0.148,0.355c-0.099,0.099-0.217,0.147-0.355,0.147 s-0.256-0.049-0.355-0.147c-0.099-0.099-0.148-0.218-0.148-0.355C79.892,289.77,79.941,289.651,80.039,289.553z M473.098,189.718 H459.38v-0.857c0-0.276-0.224-0.5-0.5-0.5h-2.716c-0.276,0-0.5,0.224-0.5,0.5v0.857h-57.966c-0.86,0-1.56,0.699-1.56,1.56 c0,0.859,0.699,1.559,1.56,1.559h57.966v0.932c0,0.099,0.029,0.194,0.084,0.276l1.358,2.044c0.092,0.14,0.249,0.224,0.416,0.224 c0.168,0,0.324-0.084,0.417-0.224l1.357-2.044c0.054-0.082,0.083-0.178,0.083-0.276v-0.932h13.718c0.86,0,1.56-0.699,1.56-1.559 C474.658,190.417,473.958,189.718,473.098,189.718z M455.665,191.836h-57.966c-0.309,0-0.56-0.251-0.56-0.559 c0-0.309,0.251-0.56,0.56-0.56h57.966V191.836z M458.38,190.218v2.118v1.28l-0.857,1.292l-0.858-1.292v-1.28v-2.118v-0.857h1.716 V190.218z M473.098,191.836H459.38v-1.118h13.718c0.309,0,0.56,0.251,0.56,0.56C473.658,191.585,473.407,191.836,473.098,191.836z M473.098,173.605H402.49v-1.664c0-0.276-0.224-0.5-0.5-0.5h-2.716c-0.276,0-0.5,0.224-0.5,0.5v1.664h-1.075 c-0.86,0-1.56,0.7-1.56,1.56c0,0.859,0.699,1.559,1.56,1.559h1.075v0.125c0,0.099,0.029,0.195,0.084,0.277l1.358,2.044 c0.092,0.139,0.249,0.223,0.416,0.223c0.168,0,0.324-0.084,0.417-0.224l1.357-2.044c0.054-0.082,0.083-0.178,0.083-0.276v-0.125 h70.608c0.86,0,1.56-0.699,1.56-1.559C474.658,174.305,473.958,173.605,473.098,173.605z M398.774,175.724h-1.075 c-0.309,0-0.56-0.25-0.56-0.559c0-0.309,0.251-0.56,0.56-0.56h1.075V175.724z M401.49,176.698l-0.857,1.292l-0.858-1.292v-0.474 v-2.118v-1.664h1.716V176.698z M473.098,175.724h-70.607v-1.118h70.607c0.309,0,0.56,0.251,0.56,0.56 C473.658,175.473,473.407,175.724,473.098,175.724z M423.722,157.02c0-0.276-0.224-0.5-0.5-0.5h-2.716c-0.276,0-0.5,0.224-0.5,0.5 v0.978h-22.308c-0.86,0-1.56,0.7-1.56,1.56s0.699,1.559,1.56,1.559h22.308v0.81c0,0.099,0.029,0.195,0.083,0.276l1.357,2.044 c0.093,0.14,0.249,0.224,0.417,0.224c0.167,0,0.324-0.084,0.416-0.223l1.358-2.044c0.055-0.082,0.084-0.178,0.084-0.277v-0.81 h49.376c0.86,0,1.56-0.699,1.56-1.559s-0.699-1.56-1.56-1.56h-49.376V157.02z M420.006,160.117h-22.308 c-0.309,0-0.56-0.251-0.56-0.559c0-0.309,0.251-0.56,0.56-0.56h22.308V160.117z M422.722,158.498v2.119v1.159l-0.858,1.292 l-0.857-1.292v-1.159v-2.119v-0.978h1.716V158.498z M473.098,158.998c0.309,0,0.56,0.251,0.56,0.56c0,0.308-0.251,0.559-0.56,0.559 h-49.376v-1.119H473.098z M394.649,48.592c0.292,0.146,0.597,0.221,0.916,0.221c0.321,0,0.63-0.075,0.925-0.225 s0.517-0.35,0.666-0.602s0.224-0.512,0.224-0.781c0-0.282-0.074-0.558-0.225-0.825s-0.374-0.48-0.669-0.639 s-0.602-0.237-0.921-0.237c-0.316,0-0.62,0.077-0.911,0.232c-0.29,0.154-0.513,0.367-0.668,0.637 c-0.155,0.271-0.232,0.545-0.232,0.826c0,0.275,0.076,0.539,0.229,0.793C394.135,48.244,394.357,48.444,394.649,48.592z M394.772,46.508c0.212-0.202,0.477-0.304,0.793-0.304c0.36,0,0.65,0.128,0.871,0.383c0.162,0.189,0.243,0.396,0.243,0.622 c0,0.221-0.107,0.427-0.321,0.617s-0.479,0.285-0.793,0.285c-0.312,0-0.575-0.095-0.789-0.285c-0.215-0.19-0.322-0.395-0.322-0.613 C394.454,46.945,394.56,46.711,394.772,46.508z M396.684,144.323v0.171h0.82c0.169,0,0.289-0.032,0.36-0.098 c0.072-0.064,0.108-0.148,0.108-0.251c0-0.104-0.037-0.189-0.109-0.255c-0.073-0.064-0.193-0.098-0.359-0.098h-0.119v-3.732h-0.82 c-0.169,0-0.289,0.033-0.361,0.098c-0.071,0.065-0.107,0.15-0.107,0.255c0,0.103,0.036,0.187,0.107,0.251 c0.072,0.065,0.192,0.098,0.361,0.098h0.119v0.871c-0.171-0.111-0.344-0.195-0.52-0.251s-0.354-0.083-0.537-0.083 c-0.484,0-0.896,0.167-1.233,0.502s-0.506,0.739-0.506,1.213c0,0.454,0.161,0.833,0.481,1.137c0.322,0.305,0.746,0.457,1.271,0.457 c0.188,0,0.368-0.024,0.542-0.072C396.358,144.487,396.525,144.417,396.684,144.323z M395.635,143.906 c-0.333,0-0.591-0.083-0.773-0.248c-0.182-0.165-0.273-0.376-0.273-0.634c0-0.282,0.102-0.524,0.305-0.725s0.45-0.301,0.742-0.301 c0.293,0,0.542,0.101,0.744,0.301c0.203,0.2,0.305,0.445,0.305,0.735c0,0.25-0.092,0.458-0.277,0.623 C396.223,143.823,395.965,143.906,395.635,143.906z M406.539,48.602c-0.071-0.064-0.107-0.149-0.107-0.254 c0-0.104,0.036-0.187,0.107-0.252c0.072-0.064,0.192-0.098,0.361-0.098h0.416v-1.701h-0.252c-0.169,0-0.289-0.033-0.361-0.098 c-0.071-0.065-0.107-0.15-0.107-0.255c0-0.103,0.036-0.187,0.107-0.251c0.072-0.065,0.192-0.098,0.361-0.098h0.953v0.438 c0.294-0.212,0.525-0.354,0.695-0.424s0.329-0.105,0.477-0.105c0.229,0,0.449,0.084,0.664,0.252c0.146,0.114,0.219,0.23,0.219,0.35 c0,0.1-0.035,0.185-0.104,0.254s-0.153,0.104-0.251,0.104c-0.087,0-0.178-0.043-0.273-0.13s-0.182-0.13-0.257-0.13 c-0.098,0-0.244,0.062-0.439,0.185c-0.194,0.123-0.438,0.308-0.729,0.554v1.056h0.998c0.169,0,0.289,0.033,0.36,0.098 c0.072,0.065,0.108,0.15,0.108,0.255c0,0.103-0.036,0.187-0.108,0.251c-0.071,0.065-0.191,0.098-0.36,0.098H406.9 C406.731,48.699,406.611,48.667,406.539,48.602z M398.209,48.602c-0.072-0.064-0.107-0.149-0.107-0.254 c0-0.104,0.035-0.187,0.107-0.252c0.071-0.064,0.191-0.098,0.36-0.098h0.841v-3.031h-0.564c-0.166,0-0.285-0.032-0.358-0.098 c-0.073-0.064-0.109-0.149-0.109-0.254c0-0.104,0.036-0.187,0.107-0.252c0.072-0.064,0.192-0.098,0.36-0.098h1.266v3.732h0.84 c0.169,0,0.289,0.033,0.361,0.098c0.071,0.065,0.107,0.15,0.107,0.255c0,0.103-0.036,0.187-0.107,0.251 c-0.072,0.065-0.192,0.098-0.361,0.098h-2.382C398.401,48.699,398.281,48.667,398.209,48.602z M403.051,48.592 c0.292,0.146,0.597,0.221,0.916,0.221c0.321,0,0.63-0.075,0.925-0.225s0.517-0.35,0.666-0.602s0.224-0.512,0.224-0.781 c0-0.282-0.074-0.558-0.225-0.825s-0.374-0.48-0.669-0.639s-0.602-0.237-0.921-0.237c-0.316,0-0.62,0.077-0.911,0.232 c-0.29,0.154-0.513,0.367-0.668,0.637c-0.155,0.271-0.232,0.545-0.232,0.826c0,0.275,0.076,0.539,0.229,0.793 C402.538,48.244,402.759,48.444,403.051,48.592z M403.174,46.508c0.212-0.202,0.477-0.304,0.793-0.304 c0.36,0,0.65,0.128,0.871,0.383c0.162,0.189,0.243,0.396,0.243,0.622c0,0.221-0.107,0.427-0.321,0.617s-0.479,0.285-0.793,0.285 c-0.312,0-0.575-0.095-0.789-0.285c-0.215-0.19-0.322-0.395-0.322-0.613C402.856,46.945,402.962,46.711,403.174,46.508z M393.355,143.793l-1.395-3.441l-1.514-0.004c-0.169,0-0.289,0.033-0.36,0.098c-0.072,0.065-0.108,0.15-0.108,0.255 s0.036,0.189,0.108,0.255c0.071,0.064,0.191,0.098,0.36,0.098h0.458l-1.101,2.74c-0.173-0.004-0.297,0.026-0.373,0.093 c-0.074,0.066-0.112,0.151-0.112,0.257c0,0.104,0.036,0.189,0.107,0.254c0.072,0.065,0.192,0.098,0.36,0.098h0.943 c0.169,0,0.289-0.032,0.361-0.098c0.071-0.064,0.107-0.148,0.107-0.251c0-0.104-0.036-0.189-0.107-0.255 c-0.072-0.064-0.192-0.098-0.361-0.098h-0.17l0.17-0.427h1.703l0.167,0.427h-0.171c-0.169,0-0.289,0.033-0.36,0.098 c-0.072,0.065-0.108,0.148-0.108,0.252c0,0.104,0.036,0.189,0.108,0.254c0.071,0.065,0.191,0.098,0.36,0.098h0.943 c0.169,0,0.288-0.032,0.359-0.098c0.07-0.064,0.105-0.148,0.105-0.251c0-0.123-0.053-0.222-0.157-0.298 C393.627,143.812,393.519,143.793,393.355,143.793z M391.011,142.666l0.566-1.389l0.564,1.389H391.011z M414.67,141.992 c-0.071-0.066-0.106-0.15-0.106-0.253s0.036-0.187,0.107-0.251c0.072-0.065,0.192-0.098,0.36-0.098h0.667v0.198 c0.114-0.111,0.217-0.188,0.31-0.23c0.092-0.042,0.198-0.063,0.319-0.063c0.103,0,0.204,0.025,0.304,0.075 c0.101,0.05,0.199,0.125,0.295,0.226c0.12-0.101,0.243-0.175,0.367-0.224s0.251-0.073,0.381-0.073c0.26,0,0.471,0.069,0.633,0.208 c0.214,0.183,0.32,0.422,0.32,0.718v1.568c0.146,0,0.255,0.033,0.325,0.1s0.106,0.15,0.106,0.253s-0.036,0.187-0.106,0.251 c-0.07,0.065-0.19,0.098-0.358,0.098h-0.667v-2.211c0-0.107-0.02-0.182-0.058-0.223c-0.039-0.041-0.099-0.062-0.178-0.062 c-0.078,0-0.149,0.021-0.216,0.062c-0.084,0.057-0.187,0.164-0.308,0.321v1.411c0.146,0,0.254,0.033,0.324,0.1 c0.071,0.066,0.106,0.15,0.106,0.253s-0.035,0.187-0.106,0.251c-0.07,0.065-0.189,0.098-0.358,0.098h-0.667v-2.211 c0-0.105-0.02-0.179-0.06-0.221s-0.1-0.063-0.179-0.063c-0.082,0-0.163,0.025-0.243,0.077c-0.08,0.051-0.176,0.153-0.287,0.306 v1.411c0.146,0,0.255,0.033,0.326,0.1c0.072,0.066,0.108,0.15,0.108,0.253s-0.036,0.187-0.108,0.251 c-0.071,0.065-0.191,0.098-0.36,0.098h-0.633c-0.168,0-0.288-0.032-0.36-0.098c-0.071-0.064-0.107-0.149-0.107-0.254 c0-0.104,0.035-0.187,0.106-0.252c0.07-0.064,0.18-0.098,0.328-0.098v-1.701C414.85,142.092,414.741,142.059,414.67,141.992z M400.397,144.641v-2.549h-1.43c-0.168,0-0.288-0.033-0.36-0.098c-0.071-0.065-0.107-0.15-0.107-0.255 c0-0.103,0.036-0.187,0.107-0.251c0.072-0.065,0.192-0.098,0.36-0.098h2.13v3.25c0,0.246-0.052,0.461-0.155,0.645 s-0.263,0.342-0.477,0.474c-0.215,0.132-0.456,0.198-0.725,0.198h-0.793c-0.169,0-0.289-0.032-0.361-0.098 c-0.071-0.064-0.107-0.148-0.107-0.251c0-0.104,0.036-0.189,0.107-0.255c0.072-0.064,0.192-0.098,0.361-0.098h0.771 c0.215,0,0.381-0.058,0.5-0.174C400.337,144.966,400.397,144.818,400.397,144.641z M420.956,144.607c0.326,0,0.666-0.039,1.02-0.115 c0.353-0.076,0.575-0.156,0.666-0.24c0.068-0.064,0.103-0.142,0.103-0.232c0-0.101-0.032-0.184-0.096-0.25s-0.143-0.1-0.235-0.1 c-0.068,0-0.191,0.023-0.369,0.068c-0.432,0.112-0.776,0.168-1.036,0.168c-0.316,0-0.568-0.056-0.754-0.168 c-0.186-0.111-0.314-0.258-0.388-0.44h2.875V143c0-0.228-0.037-0.428-0.109-0.602c-0.107-0.248-0.243-0.456-0.407-0.625 c-0.116-0.116-0.293-0.225-0.531-0.324c-0.238-0.101-0.5-0.15-0.784-0.15c-0.475,0-0.894,0.154-1.257,0.463 s-0.545,0.709-0.545,1.201c0,0.463,0.168,0.853,0.504,1.169S420.395,144.607,420.956,144.607z M420.31,142.147 c0.173-0.099,0.378-0.148,0.615-0.148c0.239,0,0.445,0.05,0.618,0.148c0.174,0.1,0.313,0.249,0.421,0.45h-2.078 C419.996,142.396,420.137,142.247,420.31,142.147z M423.772,143.793v-1.701c-0.148,0-0.258-0.033-0.328-0.1s-0.106-0.15-0.106-0.253 s0.036-0.187,0.108-0.251c0.071-0.065,0.191-0.098,0.36-0.098h0.666v0.236c0.128-0.109,0.269-0.191,0.423-0.246 c0.153-0.055,0.32-0.082,0.501-0.082c0.414,0,0.742,0.128,0.984,0.386c0.191,0.205,0.287,0.474,0.287,0.807v1.302 c0.147,0,0.257,0.033,0.328,0.098c0.07,0.065,0.105,0.15,0.105,0.255c0,0.103-0.036,0.187-0.107,0.251 c-0.072,0.065-0.192,0.098-0.361,0.098H426c-0.169,0-0.289-0.032-0.36-0.098c-0.072-0.064-0.107-0.149-0.107-0.254 c0-0.104,0.035-0.187,0.105-0.252c0.07-0.064,0.18-0.098,0.328-0.098v-1.322c0-0.152-0.041-0.265-0.123-0.335 c-0.107-0.091-0.268-0.137-0.482-0.137c-0.161,0-0.303,0.031-0.425,0.094s-0.276,0.195-0.464,0.398v1.302 c0.181,0,0.297,0.018,0.35,0.052c0.111,0.068,0.167,0.169,0.167,0.301c0,0.103-0.036,0.187-0.107,0.251 c-0.072,0.065-0.192,0.098-0.36,0.098h-0.797c-0.169,0-0.289-0.032-0.36-0.098c-0.072-0.064-0.108-0.149-0.108-0.254 c0-0.128,0.055-0.228,0.164-0.298C423.474,143.811,423.592,143.793,423.772,143.793z M400.684,140.803h-0.838v-0.742h0.838V140.803z M406.892,144.383c-0.064-0.071-0.098-0.191-0.098-0.36v-0.235c0-0.169,0.033-0.289,0.098-0.361c0.065-0.071,0.15-0.107,0.255-0.107 c0.084,0,0.155,0.023,0.212,0.07s0.102,0.127,0.133,0.24c0.107,0.092,0.236,0.16,0.387,0.207s0.323,0.07,0.52,0.07 c0.321,0,0.57-0.05,0.748-0.15c0.085-0.05,0.127-0.103,0.127-0.157c0-0.091-0.061-0.166-0.182-0.226 c-0.12-0.06-0.37-0.109-0.748-0.15c-0.562-0.06-0.938-0.173-1.128-0.342c-0.189-0.166-0.284-0.371-0.284-0.615 c0-0.251,0.106-0.459,0.318-0.625c0.287-0.229,0.663-0.342,1.128-0.342c0.162,0,0.317,0.015,0.467,0.046 c0.149,0.03,0.292,0.078,0.429,0.142c0.043-0.032,0.084-0.056,0.121-0.072c0.038-0.016,0.072-0.023,0.104-0.023 c0.096,0,0.176,0.036,0.239,0.107c0.063,0.072,0.096,0.192,0.096,0.361v0.17c0,0.153-0.019,0.257-0.055,0.312 c-0.073,0.104-0.172,0.157-0.297,0.157c-0.085,0-0.159-0.026-0.223-0.078c-0.063-0.053-0.104-0.122-0.123-0.209 c-0.114-0.07-0.233-0.124-0.359-0.159c-0.125-0.035-0.256-0.053-0.393-0.053c-0.271,0-0.486,0.044-0.646,0.134 c-0.07,0.038-0.105,0.08-0.105,0.126c0,0.053,0.048,0.104,0.144,0.153c0.073,0.037,0.235,0.072,0.489,0.106 c0.465,0.063,0.788,0.128,0.971,0.191c0.238,0.084,0.424,0.21,0.553,0.376c0.131,0.166,0.195,0.342,0.195,0.526 c0,0.251-0.11,0.46-0.332,0.629c-0.316,0.244-0.728,0.366-1.233,0.366c-0.203,0-0.391-0.019-0.562-0.054s-0.329-0.087-0.474-0.155 c-0.033,0.029-0.07,0.053-0.109,0.068c-0.038,0.016-0.078,0.023-0.119,0.023C407.044,144.49,406.958,144.455,406.892,144.383z M402.289,141.994c-0.071-0.065-0.107-0.15-0.107-0.255c0-0.103,0.036-0.187,0.107-0.251c0.072-0.065,0.192-0.098,0.36-0.098h0.82 v2.085c0,0.148,0.036,0.257,0.108,0.326c0.071,0.069,0.182,0.104,0.329,0.104c0.142,0,0.294-0.028,0.457-0.084 s0.363-0.156,0.604-0.303v-1.428h-0.254c-0.168,0-0.288-0.033-0.36-0.098c-0.071-0.065-0.107-0.15-0.107-0.255 c0-0.103,0.036-0.187,0.107-0.251c0.072-0.065,0.192-0.098,0.36-0.098h0.954v2.402c0.148,0,0.258,0.033,0.328,0.1 s0.106,0.15,0.106,0.253s-0.036,0.187-0.108,0.251c-0.071,0.065-0.191,0.098-0.36,0.098h-0.666v-0.16 c-0.201,0.091-0.393,0.159-0.574,0.205c-0.183,0.045-0.355,0.068-0.52,0.068c-0.23,0-0.43-0.049-0.599-0.146 s-0.302-0.231-0.399-0.401c-0.071-0.123-0.106-0.277-0.106-0.462v-1.507h-0.12C402.481,142.092,402.361,142.059,402.289,141.994z M411.092,141.994c-0.071-0.065-0.107-0.15-0.107-0.255c0-0.103,0.036-0.187,0.107-0.251c0.072-0.065,0.192-0.098,0.361-0.098h0.252 v-0.633c0-0.168,0.033-0.288,0.098-0.36c0.065-0.071,0.15-0.107,0.255-0.107c0.103,0,0.187,0.036,0.251,0.107 c0.065,0.072,0.098,0.192,0.098,0.36v0.633h1.295c0.169,0,0.289,0.032,0.361,0.098c0.071,0.064,0.107,0.149,0.107,0.254 c0,0.104-0.036,0.187-0.107,0.252c-0.072,0.064-0.192,0.098-0.361,0.098h-1.295v1.404c0,0.15,0.031,0.25,0.092,0.297 c0.096,0.076,0.268,0.113,0.514,0.113c0.357,0,0.688-0.076,0.99-0.229c0.117-0.06,0.208-0.09,0.273-0.09 c0.092,0,0.171,0.035,0.238,0.104s0.101,0.151,0.101,0.249c0,0.091-0.036,0.17-0.109,0.235c-0.111,0.107-0.332,0.206-0.661,0.296 s-0.607,0.136-0.832,0.136c-0.436,0-0.762-0.095-0.979-0.282c-0.218-0.188-0.327-0.419-0.327-0.692v-1.541h-0.252 C411.285,142.092,411.165,142.059,411.092,141.994z M27.835,29.156c-0.185-0.206-0.167-0.521,0.038-0.706 c0.205-0.185,0.521-0.167,0.706,0.038l1.612,1.797l1.612-1.797c0.186-0.205,0.501-0.222,0.706-0.038 c0.206,0.184,0.223,0.5,0.038,0.706l-1.984,2.211c-0.095,0.105-0.23,0.166-0.372,0.166s-0.277-0.061-0.372-0.166L27.835,29.156z M392.544,48.617c-0.295,0.123-0.619,0.185-0.975,0.185c-0.415,0-0.788-0.085-1.121-0.257c-0.269-0.137-0.498-0.353-0.688-0.647 c-0.188-0.295-0.283-0.616-0.283-0.966v-0.475c0-0.364,0.085-0.705,0.255-1.021s0.405-0.559,0.706-0.729s0.619-0.256,0.957-0.256 c0.202,0,0.392,0.022,0.568,0.069s0.342,0.118,0.494,0.214c0.043-0.06,0.091-0.104,0.142-0.133c0.052-0.03,0.106-0.045,0.166-0.045 c0.103,0,0.187,0.035,0.251,0.105c0.065,0.071,0.098,0.19,0.098,0.359v0.595c0,0.169-0.032,0.289-0.098,0.36 c-0.064,0.072-0.148,0.107-0.251,0.107c-0.094,0-0.169-0.025-0.226-0.078s-0.1-0.15-0.127-0.294 c-0.016-0.096-0.047-0.17-0.096-0.222c-0.093-0.104-0.224-0.186-0.391-0.246c-0.168-0.062-0.336-0.093-0.504-0.093 c-0.21,0-0.402,0.046-0.578,0.137s-0.33,0.239-0.465,0.444s-0.201,0.449-0.201,0.731v0.454c0,0.338,0.122,0.619,0.367,0.845 s0.585,0.339,1.02,0.339c0.26,0,0.48-0.036,0.66-0.106c0.104-0.041,0.217-0.122,0.335-0.243c0.073-0.072,0.13-0.12,0.171-0.142 s0.088-0.032,0.141-0.032c0.093,0,0.175,0.035,0.246,0.105c0.07,0.071,0.105,0.154,0.105,0.25s-0.048,0.198-0.144,0.308 C392.942,48.4,392.763,48.526,392.544,48.617z M11.387,36.363h12.56c0.276,0,0.5-0.224,0.5-0.5v-12.56c0-0.276-0.224-0.5-0.5-0.5 h-12.56c-0.276,0-0.5,0.224-0.5,0.5v12.56C10.887,36.139,11.111,36.363,11.387,36.363z M11.887,23.803h11.56v11.56h-11.56V23.803z M65.096,36.363h12.56h12.56c0.276,0,0.5-0.224,0.5-0.5v-12.56c0-0.276-0.224-0.5-0.5-0.5h-12.56h-12.56c-0.276,0-0.5,0.224-0.5,0.5 v12.56C64.596,36.139,64.82,36.363,65.096,36.363z M78.156,23.803h11.56v11.56h-11.56V23.803z M65.596,23.803h11.56v11.56h-11.56 V23.803z M484.641,0H0.5C0.224,0,0,0.224,0,0.5v18.647v20.066v255.854c0,0.276,0.224,0.5,0.5,0.5h59.382h30.461h8.25h61.391h10.028 h144.725h63.169h8.25h98.485c0.276,0,0.5-0.224,0.5-0.5v-77.499V206.33v-60.836v-11.238V50.452V39.213V19.147V0.5 C485.141,0.224,484.917,0,484.641,0z M59.382,286.818v7.749H1V39.713h58.382V286.818z M89.843,294.567H60.382v-7.249h29.461V294.567 z M98.093,294.567h-7.25v-7.249h7.25V294.567z M159.484,294.567H99.093v-7.249h60.391V294.567z M169.512,294.567h-9.028v-7.249 h9.028V294.567z M314.237,294.567H170.512v-7.249h143.725V294.567z M377.406,294.567h-62.169v-7.249h62.169V294.567z M377.406,48.719v144.725v92.874h-62.669H170.012h-10.028H98.593h-8.25H60.382V39.713h317.023V48.719z M385.656,206.33v79.988h-7.25 v-92.374h7.25V206.33z M385.656,134.256v58.688h-7.25V49.219h7.25V134.256z M385.656,48.219h-7.25v-8.506h7.25V48.219z M484.141,294.567h-97.485v-7.749V206.83h31.368v10.738c0,0.276,0.224,0.5,0.5,0.5h65.617V294.567z M484.141,217.068h-65.117V206.83 h65.117V217.068z M484.141,205.83h-65.617h-31.868v-12.386v-58.688h51.937v10.738c0,0.276,0.224,0.5,0.5,0.5h45.049V205.83z M484.141,144.994h-44.549v-10.238h44.549V144.994z M484.141,133.756h-45.049h-52.437V48.719v-9.006h26.642v10.738 c0,0.276,0.224,0.5,0.5,0.5h70.344V133.756z M484.141,49.952h-69.844V39.713h69.844V49.952z M484.141,38.713h-70.344h-27.642h-8.25 H59.882H1V19.647h483.141V38.713z M484.141,18.647H1V1h483.141V18.647z M133.738,35.558h68.627h0.061h10.625 c0.276,0,0.5-0.224,0.5-0.5V23.303c0-0.276-0.224-0.5-0.5-0.5h-10.625h-0.061h-68.627c-0.276,0-0.5,0.224-0.5,0.5v11.755 C133.238,35.334,133.462,35.558,133.738,35.558z M202.927,23.803h9.625v10.755h-9.625V23.803z M134.238,23.803h67.627v10.755 h-67.627V23.803z M434.843,15.16h9.875c0.276,0,0.5-0.224,0.5-0.5V4.785c0-0.276-0.224-0.5-0.5-0.5h-9.875 c-0.276,0-0.5,0.224-0.5,0.5v9.875C434.343,14.937,434.567,15.16,434.843,15.16z M435.343,14.16V7.871h8.875v6.289H435.343z M402.479,14.66c0-0.276,0.224-0.5,0.5-0.5h9.874c0.276,0,0.5,0.224,0.5,0.5s-0.224,0.5-0.5,0.5h-9.874 C402.703,15.16,402.479,14.937,402.479,14.66z M465.561,14.635l4.283-4.283l-4.283-4.283c-0.195-0.195-0.195-0.512,0-0.707 s0.512-0.195,0.707,0l4.283,4.283l4.283-4.283c0.195-0.195,0.512-0.195,0.707,0s0.195,0.512,0,0.707l-4.283,4.283l4.283,4.283 c0.195,0.195,0.195,0.512,0,0.707c-0.098,0.098-0.226,0.146-0.354,0.146s-0.256-0.049-0.354-0.146l-4.283-4.283l-4.283,4.283 c-0.098,0.098-0.226,0.146-0.354,0.146s-0.256-0.049-0.354-0.146C465.366,15.146,465.366,14.83,465.561,14.635z M361.566,35.558 h46.171c2.276,0,4.128-1.852,4.128-4.128v-4.499c0-2.276-1.852-4.128-4.128-4.128h-46.171c-2.276,0-4.128,1.852-4.128,4.128v4.499 C357.438,33.706,359.29,35.558,361.566,35.558z M358.438,26.931c0-1.725,1.403-3.128,3.128-3.128h46.171 c1.725,0,3.128,1.403,3.128,3.128v4.499c0,1.725-1.403,3.128-3.128,3.128h-46.171c-1.725,0-3.128-1.403-3.128-3.128V26.931z M210.837,28.273c0.081,0.18,0.047,0.391-0.084,0.538l-2.603,2.902c-0.095,0.105-0.23,0.166-0.372,0.166s-0.277-0.061-0.372-0.166 l-2.604-2.902c-0.132-0.147-0.165-0.357-0.084-0.538s0.259-0.296,0.457-0.296h5.207C210.578,27.977,210.757,28.093,210.837,28.273z M468.023,121.582h10.688c0.276,0,0.5-0.224,0.5-0.5V60.051c0-0.276-0.224-0.5-0.5-0.5h-10.688c-0.276,0-0.5,0.224-0.5,0.5v61.031 C467.523,121.358,467.747,121.582,468.023,121.582z M468.523,60.551h9.688v60.031h-9.688V60.551z M391.586,60.051v61.031 c0,0.276,0.224,0.5,0.5,0.5h71.155c0.276,0,0.5-0.224,0.5-0.5V60.051c0-0.276-0.224-0.5-0.5-0.5h-71.155 C391.81,59.551,391.586,59.774,391.586,60.051z M392.586,60.551h70.155v60.031h-70.155V60.551z M222.086,35.558h25.647h0.061h10.626 c0.276,0,0.5-0.224,0.5-0.5V23.303c0-0.276-0.224-0.5-0.5-0.5h-10.626h-0.061h-25.647c-0.276,0-0.5,0.224-0.5,0.5v11.755 C221.586,35.334,221.81,35.558,222.086,35.558z M248.294,23.803h9.626v10.755h-9.626V23.803z M222.586,23.803h24.647v10.755h-24.647 V23.803z M301.411,35.558h46.171c2.276,0,4.128-1.852,4.128-4.128v-4.499c0-2.276-1.852-4.128-4.128-4.128h-46.171 c-2.276,0-4.128,1.852-4.128,4.128v4.499C297.283,33.706,299.134,35.558,301.411,35.558z M298.283,26.931 c0-1.725,1.403-3.128,3.128-3.128h46.171c1.725,0,3.128,1.403,3.128,3.128v4.499c0,1.725-1.403,3.128-3.128,3.128h-46.171 c-1.725,0-3.128-1.403-3.128-3.128V26.931z M256.206,28.273c0.08,0.18,0.047,0.391-0.085,0.538l-2.603,2.902 c-0.095,0.105-0.23,0.166-0.372,0.166s-0.277-0.061-0.372-0.166l-2.604-2.902c-0.132-0.147-0.165-0.357-0.085-0.538 c0.081-0.18,0.26-0.296,0.457-0.296h5.206C255.946,27.977,256.125,28.093,256.206,28.273z M399.19,217.062l0.396-0.785l-1.213-2.379 c-0.114-0.014-0.201-0.053-0.26-0.117c-0.06-0.063-0.09-0.141-0.09-0.232c0-0.104,0.036-0.189,0.108-0.254 c0.071-0.065,0.191-0.098,0.36-0.098h0.639c0.169,0,0.289,0.032,0.361,0.098c0.071,0.064,0.107,0.149,0.107,0.254 c0,0.104-0.036,0.187-0.107,0.252c-0.072,0.064-0.186,0.098-0.34,0.098l0.826,1.609l0.82-1.609c-0.15,0-0.261-0.033-0.333-0.098 c-0.071-0.065-0.107-0.15-0.107-0.255c0-0.103,0.036-0.187,0.107-0.251c0.072-0.065,0.192-0.098,0.36-0.098h0.66 c0.166,0,0.285,0.032,0.357,0.098c0.071,0.064,0.107,0.149,0.107,0.254c0,0.094-0.031,0.173-0.092,0.238 c-0.062,0.064-0.153,0.102-0.273,0.111l-1.607,3.164c0.176,0,0.291,0.018,0.346,0.052c0.109,0.07,0.164,0.171,0.164,0.301 c0,0.103-0.036,0.187-0.107,0.251c-0.072,0.065-0.192,0.098-0.361,0.098h-1.527c-0.169,0-0.289-0.032-0.36-0.098 c-0.072-0.064-0.108-0.148-0.108-0.251c0-0.104,0.036-0.189,0.108-0.255c0.071-0.064,0.191-0.098,0.36-0.098H399.19z M106.009,292.395c0.208,0.105,0.426,0.157,0.654,0.157c0.229,0,0.45-0.053,0.66-0.159c0.211-0.106,0.37-0.25,0.477-0.43 c0.106-0.18,0.16-0.366,0.16-0.558c0-0.202-0.054-0.398-0.161-0.59s-0.267-0.344-0.477-0.457c-0.211-0.113-0.43-0.17-0.658-0.17 c-0.226,0-0.443,0.056-0.65,0.166c-0.208,0.111-0.367,0.263-0.478,0.456c-0.111,0.192-0.166,0.39-0.166,0.589 c0,0.197,0.055,0.387,0.164,0.566C105.642,292.147,105.8,292.29,106.009,292.395z M106.097,290.907 c0.151-0.146,0.34-0.218,0.566-0.218c0.257,0,0.465,0.091,0.623,0.273c0.116,0.135,0.173,0.283,0.173,0.444 c0,0.158-0.077,0.305-0.229,0.44s-0.342,0.204-0.566,0.204c-0.223,0-0.411-0.068-0.564-0.204s-0.229-0.282-0.229-0.438 C105.87,291.22,105.945,291.052,106.097,290.907z M102.306,292.04c-0.051,0.047-0.077,0.107-0.077,0.18 c0,0.075,0.026,0.136,0.077,0.183c0.052,0.046,0.137,0.069,0.258,0.069h1.006c0.259,0,0.47-0.038,0.632-0.115 c0.103-0.049,0.212-0.124,0.329-0.228c0.116-0.104,0.21-0.237,0.282-0.4c0.072-0.164,0.107-0.352,0.107-0.563v-0.238 c0-0.175-0.02-0.322-0.059-0.442s-0.097-0.241-0.174-0.364c-0.078-0.121-0.152-0.218-0.224-0.287 c-0.094-0.094-0.219-0.17-0.375-0.23c-0.155-0.06-0.314-0.09-0.477-0.09l-1.047-0.002c-0.121,0-0.206,0.022-0.258,0.069 c-0.051,0.046-0.077,0.106-0.077,0.182c0,0.073,0.025,0.133,0.076,0.18c0.05,0.046,0.128,0.07,0.234,0.071v1.959 C102.436,291.97,102.358,291.992,102.306,292.04z M103.04,290.013h0.527c0.177,0,0.325,0.035,0.443,0.104 c0.118,0.069,0.225,0.196,0.319,0.382c0.06,0.119,0.09,0.257,0.09,0.415v0.237c0,0.184-0.033,0.333-0.1,0.449 c-0.067,0.115-0.166,0.21-0.298,0.285c-0.101,0.057-0.25,0.086-0.449,0.086h-0.532V290.013z M108.877,292.313 c-0.293-0.217-0.439-0.514-0.439-0.889c0-0.357,0.119-0.652,0.356-0.886s0.548-0.351,0.93-0.351c0.138,0,0.267,0.014,0.386,0.039 c0.119,0.026,0.229,0.065,0.33,0.117c0.06-0.057,0.122-0.085,0.186-0.085c0.072,0,0.131,0.025,0.177,0.077 c0.047,0.051,0.07,0.136,0.07,0.255v0.322c0,0.12-0.023,0.206-0.07,0.257c-0.046,0.05-0.107,0.075-0.182,0.075 c-0.068,0-0.126-0.02-0.173-0.059c-0.034-0.029-0.061-0.089-0.081-0.18c-0.02-0.09-0.067-0.157-0.142-0.201 c-0.132-0.078-0.3-0.117-0.505-0.117c-0.236,0-0.425,0.069-0.568,0.208c-0.142,0.138-0.213,0.312-0.213,0.524 c0,0.195,0.068,0.35,0.205,0.463s0.364,0.169,0.681,0.169c0.208,0,0.378-0.021,0.51-0.062c0.078-0.026,0.152-0.071,0.222-0.134 s0.133-0.094,0.19-0.094c0.068,0,0.127,0.025,0.177,0.075c0.05,0.051,0.075,0.11,0.075,0.179c0,0.11-0.076,0.216-0.227,0.315 c-0.225,0.147-0.553,0.222-0.986,0.222C109.396,292.555,109.094,292.474,108.877,292.313z M163.442,291.569 c-0.105-0.095-0.166-0.23-0.166-0.372s0.061-0.277,0.166-0.372l2.211-1.984c0.205-0.185,0.521-0.168,0.706,0.038 c0.185,0.206,0.167,0.521-0.038,0.706l-1.797,1.612l1.797,1.611c0.206,0.185,0.223,0.5,0.038,0.706 c-0.099,0.11-0.235,0.166-0.372,0.166c-0.119,0-0.238-0.042-0.334-0.128L163.442,291.569z M372.416,292.809l1.796-1.611 l-1.796-1.612c-0.205-0.185-0.223-0.501-0.038-0.706c0.186-0.205,0.501-0.222,0.706-0.038l2.211,1.984 c0.105,0.095,0.166,0.23,0.166,0.372s-0.061,0.277-0.166,0.372l-2.211,1.983c-0.096,0.086-0.215,0.128-0.334,0.128 c-0.137,0-0.273-0.056-0.372-0.166C372.193,293.309,372.21,292.993,372.416,292.809z M112.386,290.826 c-0.067-0.063-0.1-0.143-0.1-0.237c0-0.094,0.033-0.173,0.1-0.236s0.159-0.096,0.276-0.096s0.209,0.032,0.276,0.096 s0.1,0.143,0.1,0.236c0,0.095-0.033,0.174-0.1,0.237s-0.159,0.095-0.276,0.095S112.453,290.89,112.386,290.826z M379.712,44.869 c-0.205-0.185-0.223-0.5-0.038-0.706l1.984-2.211c0.189-0.211,0.555-0.211,0.744,0l1.984,2.211c0.185,0.206,0.167,0.521-0.038,0.706 c-0.096,0.086-0.215,0.128-0.334,0.128c-0.137,0-0.273-0.056-0.372-0.166l-1.612-1.797l-1.612,1.797 C380.234,45.037,379.918,45.054,379.712,44.869z M379.674,282.427c-0.185-0.205-0.167-0.521,0.038-0.706s0.521-0.168,0.706,0.038 l1.612,1.796l1.612-1.796c0.186-0.206,0.501-0.222,0.706-0.038c0.205,0.185,0.223,0.501,0.038,0.706l-1.984,2.211 c-0.095,0.105-0.23,0.166-0.372,0.166s-0.277-0.061-0.372-0.166L379.674,282.427z M411.092,216.189 c-0.064-0.071-0.098-0.191-0.098-0.36v-0.235c0-0.169,0.033-0.289,0.098-0.361c0.065-0.071,0.15-0.107,0.255-0.107 c0.084,0,0.155,0.023,0.212,0.07s0.102,0.127,0.133,0.24c0.107,0.092,0.236,0.16,0.387,0.207s0.323,0.07,0.52,0.07 c0.321,0,0.57-0.05,0.748-0.15c0.085-0.05,0.127-0.103,0.127-0.157c0-0.091-0.061-0.166-0.182-0.226 c-0.12-0.06-0.37-0.109-0.748-0.15c-0.562-0.06-0.938-0.173-1.128-0.342c-0.189-0.166-0.284-0.371-0.284-0.615 c0-0.251,0.106-0.459,0.318-0.625c0.287-0.229,0.663-0.342,1.128-0.342c0.162,0,0.317,0.015,0.467,0.046 c0.149,0.03,0.292,0.078,0.429,0.142c0.043-0.032,0.084-0.056,0.121-0.072c0.038-0.016,0.072-0.023,0.104-0.023 c0.096,0,0.176,0.036,0.239,0.107c0.063,0.072,0.096,0.192,0.096,0.361v0.17c0,0.153-0.019,0.257-0.055,0.312 c-0.073,0.104-0.172,0.157-0.297,0.157c-0.085,0-0.159-0.026-0.223-0.078c-0.063-0.053-0.104-0.122-0.123-0.209 c-0.114-0.07-0.233-0.124-0.359-0.159c-0.125-0.035-0.256-0.053-0.393-0.053c-0.271,0-0.486,0.044-0.646,0.134 c-0.07,0.038-0.105,0.08-0.105,0.126c0,0.053,0.048,0.104,0.144,0.153c0.073,0.037,0.235,0.072,0.489,0.106 c0.465,0.063,0.788,0.128,0.971,0.191c0.238,0.084,0.424,0.21,0.553,0.376c0.131,0.166,0.195,0.342,0.195,0.526 c0,0.251-0.11,0.46-0.332,0.629c-0.316,0.244-0.728,0.366-1.233,0.366c-0.203,0-0.391-0.019-0.562-0.054s-0.329-0.087-0.474-0.155 c-0.033,0.029-0.07,0.053-0.109,0.068c-0.038,0.016-0.078,0.023-0.119,0.023C411.245,216.297,411.158,216.262,411.092,216.189z M126.38,291.972v-1.959c-0.088-0.008-0.154-0.034-0.199-0.08c-0.045-0.046-0.067-0.103-0.067-0.171 c0-0.075,0.025-0.136,0.077-0.182c0.051-0.047,0.137-0.069,0.257-0.069l0.549,0.002l0.681,1.506l0.669-1.508l0.554,0.002 c0.121,0,0.206,0.022,0.258,0.068c0.051,0.046,0.077,0.105,0.077,0.181c0,0.068-0.023,0.125-0.068,0.171s-0.111,0.072-0.198,0.08 v1.959c0.106,0,0.184,0.023,0.234,0.07s0.076,0.107,0.076,0.181s-0.026,0.133-0.077,0.18c-0.052,0.046-0.137,0.069-0.258,0.069 h-0.659c-0.119,0-0.204-0.023-0.255-0.069c-0.052-0.047-0.077-0.107-0.077-0.183c0-0.072,0.025-0.133,0.077-0.179 c0.051-0.047,0.136-0.069,0.255-0.069h0.183v-1.492l-0.574,1.289h-0.435l-0.581-1.289v1.492h0.181c0.121,0,0.206,0.022,0.258,0.069 c0.051,0.046,0.077,0.106,0.077,0.182c0,0.073-0.026,0.133-0.077,0.18c-0.052,0.046-0.137,0.069-0.258,0.069h-0.657 c-0.121,0-0.207-0.023-0.257-0.069c-0.052-0.047-0.077-0.107-0.077-0.183c0-0.072,0.025-0.133,0.076-0.179 C126.196,291.994,126.274,291.972,126.38,291.972z M112.942,291.991c0.067,0.062,0.1,0.142,0.1,0.236s-0.033,0.174-0.1,0.236 c-0.067,0.064-0.159,0.096-0.276,0.096s-0.209-0.031-0.276-0.096c-0.067-0.062-0.1-0.142-0.1-0.236s0.033-0.174,0.1-0.236 c0.067-0.064,0.159-0.096,0.276-0.096S112.875,291.927,112.942,291.991z M124.154,292.412c0.14,0.089,0.31,0.133,0.512,0.133 c0.35,0,0.619-0.149,0.807-0.446c0.188-0.299,0.282-0.61,0.282-0.936v-0.549c0-0.27-0.063-0.522-0.189-0.761 c-0.126-0.238-0.259-0.401-0.397-0.489c-0.14-0.088-0.309-0.133-0.509-0.133c-0.35,0-0.619,0.149-0.806,0.448 s-0.281,0.61-0.281,0.935v0.549c0,0.267,0.062,0.52,0.187,0.758C123.884,292.159,124.016,292.323,124.154,292.412z M124.073,290.614 c0-0.277,0.072-0.509,0.217-0.696c0.096-0.124,0.22-0.186,0.371-0.186c0.156,0,0.277,0.056,0.364,0.169 c0.151,0.203,0.227,0.44,0.227,0.713v0.549c0,0.276-0.072,0.509-0.217,0.695c-0.096,0.124-0.219,0.186-0.369,0.186 c-0.158,0-0.279-0.056-0.364-0.168c-0.153-0.202-0.229-0.439-0.229-0.713V290.614z M129.65,292.975 c-0.05-0.049-0.075-0.104-0.075-0.166c0-0.044,0.02-0.108,0.059-0.192l1.609-3.455c0.041-0.086,0.077-0.143,0.107-0.168 c0.044-0.035,0.095-0.052,0.154-0.052c0.068,0,0.127,0.024,0.176,0.072s0.073,0.103,0.073,0.165c0,0.043-0.02,0.107-0.059,0.192 l-1.604,3.457c-0.041,0.086-0.077,0.143-0.11,0.169c-0.042,0.033-0.094,0.051-0.154,0.051 C129.759,293.048,129.7,293.023,129.65,292.975z M114.601,290.013c-0.046-0.05-0.069-0.136-0.069-0.256v-0.444h2.173v0.501 l-0.811,2.412c-0.034,0.101-0.072,0.168-0.113,0.201c-0.042,0.033-0.092,0.05-0.15,0.05c-0.07,0-0.13-0.024-0.18-0.073 c-0.049-0.049-0.074-0.105-0.074-0.168c0-0.036,0.013-0.094,0.039-0.172l0.762-2.25h-1.145c-0.006,0.098-0.032,0.168-0.076,0.211 s-0.102,0.064-0.173,0.064C114.708,290.089,114.648,290.063,114.601,290.013z M118.392,292.457c-0.067-0.063-0.1-0.143-0.1-0.237 c0-0.094,0.033-0.173,0.1-0.236s0.159-0.096,0.276-0.096s0.209,0.032,0.276,0.096s0.1,0.143,0.1,0.236 c0,0.095-0.033,0.174-0.1,0.237s-0.159,0.095-0.276,0.095S118.458,292.521,118.392,292.457z M122.71,292.472h-2.28v-0.529 c0.902-0.744,1.446-1.223,1.633-1.436c0.094-0.109,0.142-0.213,0.142-0.311c0-0.122-0.053-0.229-0.16-0.323 c-0.107-0.094-0.249-0.141-0.426-0.141c-0.179,0-0.328,0.052-0.447,0.156c-0.062,0.056-0.111,0.138-0.149,0.247 c-0.023,0.068-0.054,0.117-0.094,0.146c-0.04,0.029-0.089,0.043-0.147,0.043c-0.068,0-0.127-0.023-0.177-0.072 c-0.05-0.049-0.075-0.106-0.075-0.172c0-0.098,0.045-0.219,0.135-0.365c0.091-0.146,0.223-0.264,0.396-0.352 c0.174-0.088,0.362-0.133,0.565-0.133c0.316,0,0.575,0.096,0.776,0.287s0.303,0.423,0.303,0.695c0,0.138-0.029,0.266-0.087,0.384 c-0.058,0.118-0.196,0.281-0.416,0.489c-0.172,0.165-0.509,0.459-1.008,0.885h1.096c0.06-0.049,0.117-0.074,0.171-0.074 c0.077,0,0.137,0.025,0.182,0.076c0.045,0.051,0.067,0.137,0.067,0.259V292.472z M432.096,144.383 c-0.064-0.071-0.098-0.191-0.098-0.36v-0.235c0-0.169,0.033-0.289,0.098-0.361c0.065-0.071,0.15-0.107,0.255-0.107 c0.084,0,0.155,0.023,0.212,0.07s0.102,0.127,0.133,0.24c0.107,0.092,0.236,0.16,0.387,0.207s0.323,0.07,0.52,0.07 c0.321,0,0.57-0.05,0.748-0.15c0.085-0.05,0.127-0.103,0.127-0.157c0-0.091-0.061-0.166-0.182-0.226 c-0.12-0.06-0.37-0.109-0.748-0.15c-0.562-0.06-0.938-0.173-1.128-0.342c-0.189-0.166-0.284-0.371-0.284-0.615 c0-0.251,0.106-0.459,0.318-0.625c0.287-0.229,0.663-0.342,1.128-0.342c0.162,0,0.317,0.015,0.467,0.046 c0.149,0.03,0.292,0.078,0.429,0.142c0.043-0.032,0.084-0.056,0.121-0.072c0.038-0.016,0.072-0.023,0.104-0.023 c0.096,0,0.176,0.036,0.239,0.107c0.063,0.072,0.096,0.192,0.096,0.361v0.17c0,0.153-0.019,0.257-0.055,0.312 c-0.073,0.104-0.172,0.157-0.297,0.157c-0.085,0-0.159-0.026-0.223-0.078c-0.063-0.053-0.104-0.122-0.123-0.209 c-0.114-0.07-0.233-0.124-0.359-0.159c-0.125-0.035-0.256-0.053-0.393-0.053c-0.271,0-0.486,0.044-0.646,0.134 c-0.07,0.038-0.105,0.08-0.105,0.126c0,0.053,0.048,0.104,0.144,0.153c0.073,0.037,0.235,0.072,0.489,0.106 c0.465,0.063,0.788,0.128,0.971,0.191c0.238,0.084,0.424,0.21,0.553,0.376c0.131,0.166,0.195,0.342,0.195,0.526 c0,0.251-0.11,0.46-0.332,0.629c-0.316,0.244-0.728,0.366-1.233,0.366c-0.203,0-0.391-0.019-0.562-0.054s-0.329-0.087-0.474-0.155 c-0.033,0.029-0.07,0.053-0.109,0.068c-0.038,0.016-0.078,0.023-0.119,0.023C432.249,144.49,432.162,144.455,432.096,144.383z M426.539,237.977h-16.021c-0.276,0-0.5,0.224-0.5,0.5v9.125c0,0.276,0.224,0.5,0.5,0.5h16.021c0.276,0,0.5-0.224,0.5-0.5v-9.125 C427.039,238.2,426.815,237.977,426.539,237.977z M426.039,247.102h-15.021v-8.125h15.021V247.102z M398.7,253.908 c-2.723,0-4.841,2.849-4.93,2.97c-0.129,0.177-0.129,0.415,0,0.592c0.089,0.121,2.207,2.971,4.93,2.971s4.842-2.85,4.931-2.971 c0.129-0.177,0.129-0.416,0-0.592C403.542,256.757,401.421,253.908,398.7,253.908z M398.7,259.44c-1.753,0-3.305-1.592-3.883-2.267 c0.578-0.674,2.13-2.266,3.883-2.266s3.305,1.592,3.884,2.266C402.004,257.849,400.453,259.44,398.7,259.44z M400.837,257.174 c0,1.18-0.957,2.136-2.136,2.136c-1.18,0-2.137-0.957-2.137-2.136c0-1.18,0.957-2.137,2.137-2.137 C399.88,255.038,400.837,255.994,400.837,257.174z M398.7,239.772c-2.723,0-4.841,2.85-4.93,2.971c-0.129,0.177-0.129,0.415,0,0.592 c0.089,0.121,2.207,2.97,4.93,2.97c2.722,0,4.842-2.849,4.931-2.97c0.129-0.176,0.129-0.415,0-0.592 C403.542,242.622,401.422,239.772,398.7,239.772z M398.7,245.305c-1.753,0-3.305-1.593-3.884-2.267 c0.577-0.674,2.125-2.266,3.884-2.266c1.753,0,3.305,1.592,3.884,2.267C402.004,243.713,400.453,245.305,398.7,245.305z M389.2,221.931v14.072v14.072v14.071v22.672c0,0.276,0.224,0.5,0.5,0.5h91.205c0.276,0,0.5-0.224,0.5-0.5v-22.672v-14.071v-14.072 v-14.072c0-0.276-0.224-0.5-0.5-0.5H389.7C389.423,221.431,389.2,221.654,389.2,221.931z M390.2,222.431h90.205v13.072H390.2 V222.431z M390.2,236.503h90.205v13.072H390.2V236.503z M390.2,250.575h90.205v13.071H390.2V250.575z M390.2,264.646h90.205v21.672 H390.2V264.646z M427.895,141.994c-0.071-0.065-0.107-0.15-0.107-0.255c0-0.103,0.036-0.187,0.107-0.251 c0.072-0.065,0.192-0.098,0.361-0.098h0.252v-0.633c0-0.168,0.033-0.288,0.098-0.36c0.065-0.071,0.15-0.107,0.255-0.107 c0.103,0,0.187,0.036,0.251,0.107c0.065,0.072,0.098,0.192,0.098,0.36v0.633h1.295c0.169,0,0.289,0.032,0.361,0.098 c0.071,0.064,0.107,0.149,0.107,0.254c0,0.104-0.036,0.187-0.107,0.252c-0.072,0.064-0.192,0.098-0.361,0.098h-1.295v1.404 c0,0.15,0.031,0.25,0.092,0.297c0.096,0.076,0.268,0.113,0.514,0.113c0.357,0,0.688-0.076,0.99-0.229 c0.117-0.06,0.208-0.09,0.273-0.09c0.092,0,0.171,0.035,0.238,0.104s0.101,0.151,0.101,0.249c0,0.091-0.036,0.17-0.109,0.235 c-0.111,0.107-0.332,0.206-0.661,0.296s-0.607,0.136-0.832,0.136c-0.436,0-0.762-0.095-0.979-0.282 c-0.218-0.188-0.327-0.419-0.327-0.692v-1.541h-0.252C428.087,142.092,427.967,142.059,427.895,141.994z M426.539,252.111h-16.021 c-0.276,0-0.5,0.224-0.5,0.5v9.125c0,0.276,0.224,0.5,0.5,0.5h16.021c0.276,0,0.5-0.224,0.5-0.5v-9.125 C427.039,252.335,426.815,252.111,426.539,252.111z M426.039,261.236h-15.021v-8.125h15.021V261.236z M400.837,243.039 c0,1.18-0.957,2.137-2.136,2.137c-1.18,0-2.137-0.957-2.137-2.137c0-1.18,0.957-2.136,2.137-2.136 C399.88,240.902,400.837,241.859,400.837,243.039z M390.583,215.6v-2.74h-0.406c-0.169,0-0.289-0.033-0.361-0.098 c-0.071-0.065-0.107-0.15-0.107-0.255s0.036-0.189,0.107-0.255c0.072-0.064,0.192-0.098,0.361-0.098l1.518,0.004 c0.168,0,0.288,0.032,0.36,0.096c0.071,0.063,0.107,0.148,0.107,0.253s-0.036,0.189-0.107,0.255 c-0.072,0.064-0.192,0.098-0.36,0.098h-0.41v2.74h1.51v-0.662c0-0.169,0.033-0.289,0.098-0.361c0.065-0.071,0.15-0.107,0.255-0.107 c0.103,0,0.187,0.036,0.251,0.107c0.065,0.072,0.098,0.192,0.098,0.361v1.363h-3.318c-0.169,0-0.289-0.032-0.361-0.098 c-0.071-0.064-0.107-0.149-0.107-0.254c0-0.104,0.036-0.187,0.107-0.252c0.072-0.064,0.192-0.098,0.361-0.098H390.583z M132.646,289.954c-0.047-0.05-0.07-0.111-0.07-0.186c0-0.066,0.017-0.119,0.051-0.157s0.106-0.071,0.215-0.101l1.077-0.279v2.74 h0.505c0.121,0,0.206,0.022,0.258,0.069c0.051,0.046,0.077,0.106,0.077,0.182c0,0.073-0.026,0.133-0.077,0.18 c-0.052,0.046-0.137,0.069-0.258,0.069h-1.511c-0.121,0-0.207-0.023-0.257-0.069c-0.052-0.047-0.077-0.107-0.077-0.183 c0-0.072,0.025-0.133,0.077-0.179c0.051-0.047,0.137-0.069,0.257-0.069h0.505v-2.088l-0.447,0.117 c-0.072,0.02-0.125,0.029-0.161,0.029C132.747,290.03,132.692,290.005,132.646,289.954z M404.153,216.414 c0.326,0,0.666-0.039,1.02-0.115c0.353-0.076,0.575-0.156,0.666-0.24c0.068-0.064,0.103-0.142,0.103-0.232 c0-0.101-0.032-0.184-0.096-0.25s-0.143-0.1-0.235-0.1c-0.068,0-0.191,0.023-0.369,0.068c-0.432,0.112-0.776,0.168-1.036,0.168 c-0.316,0-0.568-0.056-0.754-0.168c-0.186-0.111-0.314-0.258-0.388-0.44h2.875v-0.298c0-0.228-0.037-0.428-0.109-0.602 c-0.107-0.248-0.243-0.456-0.407-0.625c-0.116-0.116-0.293-0.225-0.531-0.324c-0.238-0.101-0.5-0.15-0.784-0.15 c-0.475,0-0.894,0.154-1.257,0.463s-0.545,0.709-0.545,1.201c0,0.463,0.168,0.853,0.504,1.169S403.592,216.414,404.153,216.414z M403.507,213.954c0.173-0.099,0.378-0.148,0.615-0.148c0.239,0,0.445,0.05,0.618,0.148c0.174,0.1,0.313,0.249,0.421,0.45h-2.078 C403.193,214.203,403.334,214.054,403.507,213.954z M426.539,223.9h-16.021c-0.276,0-0.5,0.224-0.5,0.5v9.125 c0,0.276,0.224,0.5,0.5,0.5h16.021c0.276,0,0.5-0.224,0.5-0.5V224.4C427.039,224.124,426.815,223.9,426.539,223.9z M426.039,233.025 h-15.021V224.9h15.021V233.025z M395.672,214.26c-0.528,0-0.942,0.126-1.242,0.378s-0.449,0.524-0.449,0.819 c0,0.241,0.117,0.462,0.352,0.661s0.54,0.299,0.916,0.299c0.173,0,0.365-0.023,0.578-0.07c0.211-0.047,0.405-0.116,0.58-0.21v0.164 h0.82c0.169,0,0.289-0.032,0.361-0.098c0.071-0.064,0.107-0.148,0.107-0.251c0-0.104-0.036-0.189-0.107-0.255 c-0.072-0.064-0.192-0.098-0.361-0.098h-0.119v-1.441c0-0.326-0.12-0.583-0.36-0.771c-0.24-0.188-0.578-0.281-1.014-0.281 c-0.146,0-0.309,0.014-0.489,0.042c-0.18,0.028-0.356,0.067-0.529,0.114c-0.13,0.037-0.215,0.068-0.256,0.095 s-0.073,0.061-0.096,0.104c-0.023,0.043-0.035,0.094-0.035,0.153c0,0.104,0.033,0.19,0.098,0.258 c0.065,0.067,0.145,0.101,0.238,0.101c0.068,0,0.164-0.015,0.287-0.044c0.33-0.082,0.599-0.123,0.807-0.123 c0.252,0,0.424,0.033,0.514,0.099c0.09,0.066,0.135,0.152,0.135,0.257v0.167C396.129,214.283,395.884,214.26,395.672,214.26z M396.407,215.348c-0.166,0.113-0.355,0.203-0.568,0.27s-0.404,0.1-0.572,0.1c-0.199,0-0.354-0.038-0.469-0.113 c-0.062-0.041-0.092-0.095-0.092-0.16c0-0.092,0.063-0.182,0.191-0.271c0.205-0.139,0.449-0.208,0.734-0.208 c0.237,0,0.496,0.027,0.775,0.082V215.348z M398.7,226.168c-2.723,0-4.841,2.85-4.93,2.971c-0.129,0.177-0.129,0.415,0,0.592 c0.089,0.121,2.207,2.97,4.93,2.97c2.722,0,4.842-2.849,4.931-2.97c0.129-0.176,0.129-0.415,0-0.592 C403.542,229.018,401.422,226.168,398.7,226.168z M398.7,231.7c-1.753,0-3.305-1.593-3.884-2.267 c0.577-0.674,2.125-2.266,3.884-2.266c1.753,0,3.305,1.592,3.884,2.267C402.004,230.108,400.453,231.7,398.7,231.7z M406.755,216.203c-0.071-0.064-0.107-0.149-0.107-0.254c0-0.104,0.036-0.187,0.107-0.252c0.072-0.064,0.192-0.098,0.361-0.098 h0.416v-1.701h-0.252c-0.169,0-0.289-0.033-0.361-0.098c-0.071-0.065-0.107-0.15-0.107-0.255c0-0.103,0.036-0.187,0.107-0.251 c0.072-0.065,0.192-0.098,0.361-0.098h0.953v0.438c0.294-0.212,0.525-0.354,0.695-0.424s0.329-0.105,0.477-0.105 c0.229,0,0.449,0.084,0.664,0.252c0.146,0.114,0.219,0.23,0.219,0.35c0,0.1-0.035,0.185-0.104,0.254s-0.153,0.104-0.251,0.104 c-0.087,0-0.178-0.043-0.273-0.13s-0.182-0.13-0.257-0.13c-0.098,0-0.244,0.062-0.439,0.185c-0.194,0.123-0.438,0.308-0.729,0.554 v1.056h0.998c0.169,0,0.289,0.033,0.36,0.098c0.072,0.065,0.108,0.15,0.108,0.255c0,0.103-0.036,0.187-0.108,0.251 c-0.071,0.065-0.191,0.098-0.36,0.098h-2.115C406.948,216.301,406.828,216.269,406.755,216.203z M400.837,229.434 c0,1.18-0.957,2.136-2.136,2.136c-1.18,0-2.137-0.957-2.137-2.136c0-1.18,0.957-2.137,2.137-2.137 C399.88,227.298,400.837,228.254,400.837,229.434z" fill="#0d0d0d"/></g></svg>