<?xml version="1.0" encoding="UTF-8" standalone="no"?><svg xmlns="http://www.w3.org/2000/svg" xmlns:xlink="http://www.w3.org/1999/xlink" fill="#000000" height="347.3" preserveAspectRatio="xMidYMid meet" version="1" viewBox="0.0 0.0 481.8 347.3" width="481.8" zoomAndPan="magnify"><linearGradient gradientUnits="userSpaceOnUse" id="a" x1="0.5" x2="481.276" xlink:actuate="onLoad" xlink:show="other" xlink:type="simple" y1="173.673" y2="173.673"><stop offset="0" stop-color="#fa643f"/><stop offset="1" stop-color="#f2f2f2"/></linearGradient><path d="M0.5,0.5v346.346h480.776V0.5H0.5z M466.388,281.173h-384v-244h384V281.173z" fill="url(#a)"/><g id="change1_1"><path d="M481.275,0.5v24.673H0.5V0.5H481.275z M11.388,37.173v189.5h57.5v-189.5H11.388z M82.388,60.173h384v-23 h-384V60.173z M11.388,292.268h57.5v-53.341h-57.5V292.268z" fill="#f2f2f2"/></g><g id="change2_1"><path d="M68.888,172.53h-28.75v-27.071h28.75V172.53z M58.746,261.027H35.734v23.012h23.012V261.027z" fill="#ff80b4"/></g><g id="change3_1"><path d="M481.275,0H0.5C0.224,0,0,0.224,0,0.5v24.673v321.673c0,0.276,0.224,0.5,0.5,0.5h480.775 c0.276,0,0.5-0.224,0.5-0.5V25.173V0.5C481.775,0.224,481.552,0,481.275,0z M1,1h479.775v23.673H1V1z M1,346.346V25.673h479.775 v320.673H1z M68.888,36.673h-57.5c-0.276,0-0.5,0.224-0.5,0.5v189.5c0,0.276,0.224,0.5,0.5,0.5h57.5c0.276,0,0.5-0.224,0.5-0.5 v-189.5C69.388,36.896,69.164,36.673,68.888,36.673z M68.388,63.744h-27.75V37.673h27.75V63.744z M39.638,91.816v26.071h-27.75 V91.816H39.638z M11.888,90.816V64.744h27.75v26.072H11.888z M39.638,118.887v26.071h-27.75v-26.071H39.638z M39.638,145.958v26.071 h-27.75v-26.071H39.638z M39.638,173.03v26.072h-27.75V173.03H39.638z M40.638,173.03h27.75v26.072h-27.75V173.03z M40.638,172.03 v-26.071h27.75v26.071H40.638z M40.638,144.958v-26.071h27.75v26.071H40.638z M40.638,117.887V91.816h27.75v26.071H40.638z M40.638,90.816V64.744h27.75v26.072H40.638z M39.638,37.673v26.071h-27.75V37.673H39.638z M11.888,200.102h27.75v26.071h-27.75 V200.102z M40.638,226.173v-26.071h27.75v26.071H40.638z M466.388,36.673h-384c-0.276,0-0.5,0.224-0.5,0.5v23v221 c0,0.276,0.224,0.5,0.5,0.5h384c0.276,0,0.5-0.224,0.5-0.5v-221v-23C466.888,36.896,466.664,36.673,466.388,36.673z M82.888,37.673 h383v22h-383V37.673z M82.888,280.673v-220h383v220H82.888z M247.877,45.975v3.404c-0.047,3.528-5.422,3.519-5.473,0v-3.404 c-0.254,0-0.441-0.057-0.562-0.17c-0.242-0.21-0.243-0.662,0-0.867c0.121-0.109,0.328-0.164,0.621-0.164l1.576-0.006 c1.066-0.099,1.065,1.306,0,1.207h-0.434v3.51c0.022,1.469,2.25,1.854,2.924,0.586c0.098-0.16,0.146-0.355,0.146-0.586v-3.51h-0.434 c-1.066,0.099-1.065-1.306,0-1.207l1.576,0.006C248.851,44.66,248.894,46.035,247.877,45.975z M254.82,51.875h-1.084 c-1.029,0.11-1.079-1.265-0.059-1.201v-2.268c0-0.262-0.07-0.453-0.211-0.574c-0.786-0.515-1.715-0.182-2.35,0.609v2.232 c0.309,0,0.508,0.029,0.598,0.088c0.585,0.387,0.219,1.214-0.516,1.113h-1.365c-0.732,0.098-1.099-0.714-0.521-1.113 c0.094-0.059,0.295-0.088,0.604-0.088v-2.918c-1.017,0.06-0.972-1.311,0.059-1.201h1.143v0.404c0.87-0.788,2.515-0.747,3.27,0.1 c0.328,0.352,0.492,0.812,0.492,1.383v2.232C255.898,50.61,255.851,51.985,254.82,51.875z M262.836,51.33 c-1.306,0.94-4.731,1.301-4.799-0.932v-2.643h-0.434c-1.064,0.098-1.065-1.299,0-1.201h0.434v-1.084 c-0.098-1.064,1.299-1.065,1.201,0v1.084h2.221c1.064-0.098,1.065,1.299,0,1.201h-2.221v2.408c0,0.258,0.053,0.428,0.158,0.51 c0.642,0.392,1.905,0.149,2.578-0.199C262.62,50,263.393,50.764,262.836,51.33z M268.771,51.875h-4.084 c-1.064,0.098-1.065-1.299,0-1.201h1.441v-2.918h-0.967c-1.061,0.096-1.067-1.298,0-1.201h2.168v4.119h1.441 C269.836,50.576,269.837,51.973,268.771,51.875z M267.166,45.547h-1.43v-1.271h1.43V45.547z M277.238,51.33 c-1.306,0.94-4.731,1.301-4.799-0.932v-2.643h-0.434c-1.064,0.098-1.065-1.299,0-1.201h0.434v-1.084 c-0.098-1.064,1.299-1.065,1.201,0v1.084h2.221c1.064-0.098,1.065,1.299,0,1.201h-2.221v2.408c0,0.258,0.053,0.428,0.158,0.51 c0.642,0.392,1.905,0.149,2.578-0.199C277.022,50,277.795,50.764,277.238,51.33z M283.18,51.875h-4.084 c-1.064,0.098-1.065-1.299,0-1.201h1.441v-5.197h-0.967c-1.061,0.096-1.067-1.298,0-1.201h2.168v6.398h1.441 C284.244,50.576,284.245,51.973,283.18,51.875z M290.158,50.58c-1.465,0.36-3.051,0.635-3.732-0.756h4.928v-0.51 c0-0.391-0.062-0.734-0.188-1.031c-0.184-0.426-0.416-0.783-0.697-1.072c-1.125-1.04-3.23-1.111-4.409-0.021 c-1.224,0.975-1.246,3.024-0.07,4.063c1.152,1.187,3.868,0.927,5.194,0.205c0.242-0.209,0.224-0.615,0.012-0.826 C290.868,50.346,290.663,50.477,290.158,50.58z M290.023,48.623h-3.562C287.128,47.25,289.363,47.244,290.023,48.623z M298.502,50.674h-0.205v-6.398h-1.406c-1.064-0.098-1.066,1.299,0,1.201h0.205v1.494c-1.891-1.418-4.869-0.039-4.793,2.367 c-0.075,2.4,2.923,3.424,4.793,2.244v0.293h1.406C299.569,51.972,299.563,50.578,298.502,50.674z M293.504,49.356 c0.028-2.325,3.582-2.314,3.592,0.018C297.15,51.373,293.424,51.373,293.504,49.356z M461.203,41.626h-13.391 c-0.276,0-0.5,0.224-0.5,0.5v13.392c0,0.276,0.224,0.5,0.5,0.5h13.391c0.276,0,0.5-0.224,0.5-0.5V42.126 C461.703,41.85,461.479,41.626,461.203,41.626z M460.703,55.018h-12.391V42.626h12.391V55.018z M450.779,45.8 c-0.466-0.452,0.255-1.172,0.707-0.707l3.021,3.022l3.021-3.022c0.452-0.466,1.172,0.255,0.707,0.707l-3.021,3.022l3.021,3.022 c0.319,0.297,0.074,0.869-0.354,0.854c-0.128,0-0.256-0.049-0.354-0.146l-3.021-3.022l-3.021,3.022 c-0.098,0.098-0.226,0.146-0.354,0.146c-0.428,0.015-0.672-0.557-0.354-0.854l3.021-3.022L450.779,45.8z M33.449,9.806l5.654,0.006 v1.834c0.096,1.054-1.299,1.061-1.201,0v-0.633h-3.064v1.74h1.055c0-0.312,0.029-0.514,0.088-0.604 c0.394-0.584,1.212-0.219,1.113,0.516v1.383c0.099,0.733-0.718,1.102-1.113,0.516c-0.059-0.09-0.088-0.293-0.088-0.609h-1.055v1.758 h1.23c1.064-0.098,1.065,1.299,0,1.201h-2.619c-1.066,0.097-1.062-1.297,0-1.201h0.188v-4.699h-0.188 C32.383,11.111,32.383,9.707,33.449,9.806z M44.898,16.913h-4.084c-1.064,0.098-1.065-1.299,0-1.201h1.441v-2.918h-0.967 c-1.061,0.096-1.067-1.298,0-1.201h2.168v4.119h1.441C45.962,15.614,45.963,17.011,44.898,16.913z M43.292,10.585h-1.43V9.313h1.43 V10.585z M52.105,16.913h-4.084c-1.064,0.098-1.065-1.299,0-1.201h1.441v-5.197h-0.967c-1.061,0.096-1.067-1.298,0-1.201h2.168 v6.398h1.441C53.169,15.614,53.17,17.011,52.105,16.913z M59.083,15.618c-1.465,0.36-3.051,0.635-3.732-0.756h4.928v-0.51 c0-0.391-0.062-0.734-0.188-1.031c-0.184-0.426-0.416-0.783-0.697-1.072c-1.125-1.04-3.23-1.111-4.409-0.021 c-1.224,0.975-1.246,3.024-0.07,4.063c1.152,1.187,3.868,0.927,5.194,0.205c0.242-0.209,0.224-0.615,0.012-0.826 C59.794,15.384,59.589,15.515,59.083,15.618z M58.949,13.661h-3.562C56.053,12.288,58.288,12.283,58.949,13.661z M76.146,15.062 v1.852h-5.654c-1.066,0.097-1.062-1.297,0-1.201h0.188v-4.699h-0.188c-1.066,0.099-1.065-1.306,0-1.207l5.391,0.006v1.828 c0.1,1.057-1.299,1.059-1.201,0v-0.627H71.88v1.734h1.055c0-0.312,0.029-0.514,0.088-0.604c0.394-0.584,1.212-0.219,1.113,0.516 v1.383c0,0.262-0.031,0.438-0.094,0.527c-0.232,0.373-0.801,0.366-1.02-0.012c-0.059-0.09-0.088-0.293-0.088-0.609H71.88v1.764 h3.064v-0.65C74.846,13.997,76.243,13.996,76.146,15.062z M83.276,15.712h-0.205V9.313h-1.406c-1.064-0.098-1.066,1.299,0,1.201 h0.205v1.494c-1.891-1.418-4.869-0.039-4.793,2.367c-0.075,2.4,2.923,3.424,4.793,2.244v0.293h1.406 C84.344,17.01,84.337,15.616,83.276,15.712z M78.278,14.394c0.028-2.325,3.582-2.314,3.592,0.018 C81.924,16.411,78.198,16.411,78.278,14.394z M87.946,10.585h-1.43V9.313h1.43V10.585z M89.552,16.913h-4.084 c-1.064,0.098-1.065-1.299,0-1.201h1.441v-2.918h-0.967c-1.061,0.096-1.067-1.298,0-1.201h2.168v4.119h1.441 C90.616,15.614,90.617,17.011,89.552,16.913z M98.019,16.368c-1.306,0.94-4.731,1.301-4.799-0.932v-2.643h-0.434 c-1.064,0.098-1.065-1.299,0-1.201h0.434v-1.084c-0.098-1.064,1.299-1.065,1.201,0v1.084h2.221c1.064-0.098,1.065,1.299,0,1.201 h-2.221v2.408c0,0.258,0.053,0.428,0.158,0.51c0.642,0.392,1.905,0.149,2.578-0.199C97.802,15.038,98.575,15.802,98.019,16.368z M112.945,16.386c-1.008,0.886-2.809,0.904-4.008,0.223c-0.421,0.598-1.183,0.215-1.102-0.504v-0.809 c-0.063-0.629,0.469-1.011,0.964-0.691c0.184,0.102,0.254,0.6,0.378,0.727c0.657,0.648,2.146,0.75,2.871,0.182 c0.603-0.403,0.3-1.132-0.346-1.307c-0.156-0.059-0.506-0.139-1.049-0.24c-4.802-0.646-2.083-5.899,1.594-3.92 c0.487-0.498,1.131-0.124,1.066,0.568v0.902c0.065,0.642-0.494,1.028-0.984,0.668c-0.182-0.109-0.218-0.689-0.357-0.826 c-0.475-0.62-1.747-0.695-2.323-0.226c-0.62,0.435-0.408,1.156,0.231,1.386c0.362,0.141,2.148,0.431,2.54,0.662 C113.662,13.65,113.991,15.554,112.945,16.386z M121.195,16.368c-1.306,0.94-4.731,1.301-4.799-0.932v-2.643h-0.434 c-1.064,0.098-1.065-1.299,0-1.201h0.434v-1.084c-0.098-1.064,1.299-1.065,1.201,0v1.084h2.221c1.064-0.098,1.065,1.299,0,1.201 h-2.221v2.408c0,0.258,0.053,0.428,0.158,0.51c0.642,0.392,1.905,0.149,2.578-0.199C120.979,15.038,121.752,15.802,121.195,16.368z M127.852,12.794l-2.754,5.426c0.301,0,0.498,0.029,0.592,0.088c0.575,0.398,0.212,1.212-0.521,1.113h-2.619 c-1.066,0.098-1.064-1.299,0-1.201h1.195l0.68-1.348l-2.08-4.078c-0.907-0.095-0.728-1.318,0.205-1.201h1.096 c1.044-0.105,1.072,1.278,0.035,1.201l1.418,2.76l1.406-2.76c-1.026,0.069-0.992-1.308,0.047-1.201h1.131 C128.629,11.476,128.781,12.742,127.852,12.794z M134.338,16.913h-4.084c-1.064,0.098-1.065-1.299,0-1.201h1.441v-5.197h-0.967 c-1.061,0.096-1.067-1.298,0-1.201h2.168v6.398h1.441C135.402,15.614,135.403,17.011,134.338,16.913z M141.316,15.618 c-1.465,0.36-3.051,0.635-3.732-0.756h4.928v-0.51c0-0.391-0.062-0.734-0.188-1.031c-0.184-0.426-0.416-0.783-0.697-1.072 c-1.125-1.04-3.23-1.111-4.409-0.021c-1.224,0.975-1.246,3.024-0.07,4.063c1.152,1.187,3.868,0.927,5.194,0.205 c0.242-0.209,0.224-0.615,0.012-0.826C142.026,15.384,141.822,15.515,141.316,15.618z M141.182,13.661h-3.562 C138.286,12.288,140.521,12.283,141.182,13.661z M153.807,9.806l5.654,0.006v1.834c0.096,1.054-1.299,1.061-1.201,0v-0.633h-3.064 v1.74h1.055c0-0.312,0.029-0.514,0.088-0.604c0.394-0.584,1.212-0.219,1.113,0.516v1.383c0.099,0.733-0.718,1.102-1.113,0.516 c-0.059-0.09-0.088-0.293-0.088-0.609h-1.055v1.758h1.23c1.064-0.098,1.065,1.299,0,1.201h-2.619c-1.066,0.097-1.062-1.297,0-1.201 h0.188v-4.699h-0.188C152.741,11.111,152.741,9.707,153.807,9.806z M160.123,14.341c0.049,3.635,6.157,3.64,6.217,0.012 C166.26,10.519,160.222,10.509,160.123,14.341z M161.324,14.364c-0.028-1.659,2.416-2.33,3.398-1.072 c0.277,0.324,0.416,0.68,0.416,1.066C165.016,16.389,161.455,16.393,161.324,14.364z M172.908,16.913h-1.084 c-1.029,0.11-1.079-1.265-0.059-1.201v-2.268c0-0.262-0.07-0.453-0.211-0.574c-0.786-0.515-1.715-0.182-2.35,0.609v2.232 c0.309,0,0.508,0.029,0.598,0.088c0.585,0.387,0.219,1.214-0.516,1.113h-1.365c-0.732,0.098-1.099-0.714-0.521-1.113 c0.094-0.059,0.295-0.088,0.604-0.088v-2.918c-1.017,0.06-0.972-1.311,0.059-1.201h1.143v0.404c0.87-0.788,2.515-0.747,3.27,0.1 c0.328,0.352,0.492,0.812,0.492,1.383v2.232C173.986,15.648,173.939,17.023,172.908,16.913z M180.924,16.368 c-1.306,0.94-4.731,1.301-4.799-0.932v-2.643h-0.434c-1.064,0.098-1.065-1.299,0-1.201h0.434v-1.084 c-0.098-1.064,1.299-1.065,1.201,0v1.084h2.221c1.064-0.098,1.065,1.299,0,1.201h-2.221v2.408c0,0.258,0.053,0.428,0.158,0.51 c0.642,0.392,1.905,0.149,2.578-0.199C180.708,15.038,181.48,15.802,180.924,16.368z M21.874,12.864l-2.223,2.167 c-0.165,0.161-0.24,0.392-0.201,0.619l0.525,3.06c0.098,0.571-0.501,1.006-1.014,0.737l-2.748-1.445 c-0.204-0.107-0.447-0.107-0.65,0l-2.748,1.445c-0.513,0.27-1.112-0.166-1.014-0.737l0.525-3.06 c0.039-0.227-0.036-0.458-0.201-0.619l-2.223-2.167c-0.415-0.404-0.186-1.109,0.387-1.192l3.072-0.446 c0.228-0.033,0.424-0.176,0.526-0.382l1.374-2.784c0.256-0.519,0.997-0.519,1.253,0l1.374,2.784 c0.102,0.206,0.299,0.349,0.526,0.382l3.072,0.446C22.06,11.755,22.288,12.46,21.874,12.864z M235.076,49.173H90.538 c-0.654-0.003-0.654-0.998,0-1h144.538C235.73,48.175,235.73,49.17,235.076,49.173z M441.388,49.173h-135.85 c-0.654-0.003-0.654-0.998,0-1h135.85C442.042,48.175,442.041,49.17,441.388,49.173z M21.446,55.907 c0.046,0.172,0.181,0.307,0.354,0.354c0.174,0.047,0.357-0.002,0.483-0.129l2.829-2.828l5.832,5.832 c0.098,0.098,0.226,0.146,0.354,0.146s0.256-0.049,0.354-0.146l2.829-2.829c0.195-0.195,0.195-0.512,0-0.707l-5.832-5.832 l2.828-2.829c0.272-0.256,0.139-0.751-0.224-0.836l-12.557-3.365c-0.358-0.109-0.72,0.256-0.612,0.612L21.446,55.907z M30.156,46.844l-2.569,2.57c-0.195,0.195-0.195,0.512,0,0.707l5.832,5.832l-2.122,2.122l-5.832-5.832 c-0.098-0.098-0.226-0.146-0.354-0.146s-0.256,0.049-0.354,0.146l-2.57,2.569l-2.917-10.884L30.156,46.844z M60.504,58.377h2v-2 c0.003-0.654,0.998-0.654,1,0v2.5c0,0.276-0.224,0.5-0.5,0.5h-2.5C59.85,59.374,59.851,58.379,60.504,58.377z M56.838,59.377h-3.667 c-0.654-0.003-0.654-0.998,0-1h3.667C57.492,58.38,57.492,59.374,56.838,59.377z M46.504,58.877v-2.5c0.003-0.654,0.998-0.654,1,0v2 h2c0.654,0.003,0.654,0.997,0,1h-2.5C46.728,59.377,46.504,59.153,46.504,58.877z M46.504,52.71v-3.667c0.003-0.654,0.998-0.654,1,0 v3.667c0,0.276-0.224,0.5-0.5,0.5S46.504,52.987,46.504,52.71z M46.504,45.377v-2.5c0-0.276,0.224-0.5,0.5-0.5h2.5 c0.654,0.003,0.654,0.997,0,1h-2v2c0,0.276-0.224,0.5-0.5,0.5S46.504,45.653,46.504,45.377z M53.171,42.377h3.667 c0.654,0.003,0.654,0.997,0,1h-3.667C52.517,43.374,52.517,42.379,53.171,42.377z M60.504,42.377h2.5c0.276,0,0.5,0.224,0.5,0.5v2.5 c0,0.276-0.224,0.5-0.5,0.5s-0.5-0.224-0.5-0.5v-2h-2C59.85,43.374,59.851,42.379,60.504,42.377z M63.504,49.044v3.667 c0,0.276-0.224,0.5-0.5,0.5s-0.5-0.224-0.5-0.5v-3.667C62.507,48.39,63.502,48.39,63.504,49.044z M34.052,78.827h-7.28v7.28 c0,0.276-0.224,0.5-0.5,0.5s-0.5-0.224-0.5-0.5v-7.28h-7.28c-0.654-0.003-0.654-0.998,0-1h7.28v-7.28c0.003-0.654,0.998-0.654,1,0 v7.28h7.28C34.706,77.829,34.705,78.824,34.052,78.827z M60.998,75.059h-0.488c-0.238-1.089-0.543-1.798-0.911-2.127 c-0.369-0.329-1.145-0.493-2.327-0.493h-1.136v10.443c0,0.787,0.123,1.274,0.369,1.462c0.245,0.188,0.783,0.312,1.614,0.372v0.378 h-5.949v-0.378c0.863-0.066,1.401-0.208,1.614-0.427c0.212-0.218,0.318-0.767,0.318-1.646V72.438h-1.146 c-1.13,0-1.898,0.163-2.307,0.488c-0.409,0.326-0.716,1.037-0.922,2.132H49.23l0.119-3.467h11.539L60.998,75.059z M16.646,103.229 l4.487,4.374l-1.059,6.175c-0.032,0.188,0.045,0.377,0.199,0.489c0.155,0.112,0.359,0.127,0.526,0.038l5.546-2.915l5.546,2.915 c0.073,0.039,0.153,0.058,0.232,0.058c0.104,0,0.207-0.032,0.294-0.096c0.154-0.112,0.231-0.301,0.199-0.489l-1.059-6.175 l4.487-4.374c0.136-0.133,0.185-0.332,0.126-0.512c-0.059-0.181-0.215-0.313-0.404-0.34l-6.2-0.901l-2.773-5.619 c-0.168-0.342-0.729-0.342-0.896,0l-2.773,5.619l-6.2,0.901c-0.188,0.027-0.345,0.159-0.404,0.34 C16.461,102.897,16.51,103.096,16.646,103.229z M23.527,102.427c0.163-0.023,0.304-0.126,0.376-0.273l2.441-4.946l2.441,4.946 c0.073,0.147,0.213,0.25,0.376,0.273l5.458,0.793l-3.949,3.85c-0.118,0.115-0.171,0.28-0.144,0.442l0.932,5.436l-4.882-2.566 c-0.073-0.039-0.152-0.058-0.232-0.058s-0.16,0.019-0.232,0.058l-4.882,2.566l0.932-5.436c0.028-0.162-0.026-0.328-0.144-0.442 l-3.949-3.85L23.527,102.427z M60.563,103.34h-4.209v-7.299c0-0.745-0.604-1.349-1.349-1.349s-1.349,0.604-1.349,1.349v7.299h-4.21 c-0.276,0-0.5,0.224-0.5,0.5v3.539c0,0.029,0.012,0.055,0.017,0.082v7.177c0,0.276,0.224,0.5,0.5,0.5h11.101 c0.276,0,0.5-0.224,0.5-0.5v-7.259v-3.539C61.063,103.564,60.839,103.34,60.563,103.34z M49.945,104.34h10.118v2.539H49.945V104.34z M54.513,107.879v6.259h-1.722v-6.259H54.513z M55.513,107.879h1.721v6.259h-1.721V107.879z M49.962,107.879h1.829v6.259h-1.829 V107.879z M60.063,114.139h-1.829v-6.259h1.829V114.139z M63.917,138.525l-5.453-5.453c1.89-3.869-0.064-9.519-5.872-9.693 c-8.761,0.262-8.764,12.997,0,13.26c1.19-0.036,2.213-0.307,3.08-0.741l5.436,5.435c0.098,0.098,0.226,0.146,0.354,0.146 s0.256-0.049,0.354-0.146l2.102-2.102C64.112,139.037,64.112,138.721,63.917,138.525z M52.592,124.379 c5.067,0.151,6.681,5.214,4.846,8.5c-0.006,0.009-0.017,0.014-0.022,0.023c-0.246,0.409-0.529,0.775-0.842,1.088c0,0,0,0,0,0 c-0.311,0.312-0.677,0.595-1.088,0.842c-0.03,0.018-0.049,0.048-0.075,0.072c-0.777,0.43-1.713,0.701-2.818,0.734 C45.152,135.417,45.15,124.603,52.592,124.379z M61.461,140.273l-4.906-4.905c0.548-0.4,1.009-0.876,1.384-1.406l4.916,4.917 L61.461,140.273z M17.031,140.917c0.03,0,0.061-0.003,0.091-0.008l4.188-0.772c0.099-0.019,0.191-0.066,0.263-0.138l0.316-0.315 c0,0,0.001-0.001,0.001-0.001l9.818-9.818l0.354-0.354l1.708-1.708c0.773-0.773,0.773-2.032,0-2.807l-1.316-1.316 c-0.774-0.773-2.034-0.773-2.807,0l-2.062,2.062l-9.818,9.818c0,0-0.001,0.001-0.001,0.001l-0.316,0.315 c-0.071,0.072-0.12,0.164-0.138,0.263l-0.772,4.188C16.477,140.623,16.729,140.925,17.031,140.917z M17.655,139.793l0.566-3.072 l2.505,2.505L17.655,139.793z M28.292,126.447l2.709,2.709l-9.466,9.466l-2.709-2.709L28.292,126.447z M17.026,194.201h18.491 c0.276,0,0.5-0.224,0.5-0.5v-15.128c0-0.276-0.224-0.5-0.5-0.5H17.026c-0.276,0-0.5,0.224-0.5,0.5v15.128 C16.526,193.978,16.75,194.201,17.026,194.201z M17.526,179.073h17.491v14.128H17.526V179.073z M58.872,177.407h-7.718 c-3.694,0-6.7,3.006-6.7,6.7v4.06c0,3.694,3.005,6.7,6.7,6.7h7.718c3.694,0,6.7-3.006,6.7-6.7v-4.06 C65.572,180.413,62.566,177.407,58.872,177.407z M64.572,188.167c0,3.144-2.557,5.7-5.7,5.7h-7.718c-3.143,0-5.7-2.557-5.7-5.7 v-4.06c0-3.144,2.557-5.7,5.7-5.7h7.718c3.143,0,5.7,2.557,5.7,5.7V188.167z M15.786,213.354c0,3.974,4.737,7.207,10.559,7.207 s10.559-3.233,10.559-7.207C36.388,203.812,16.305,203.808,15.786,213.354z M16.786,213.354c0-3.423,4.288-6.207,9.559-6.207 s9.559,2.784,9.559,6.207C35.479,221.56,17.214,221.564,16.786,213.354z M64.478,214.522l-11.558,0.089l1.99-8.623 c0.034-0.148-0.001-0.305-0.096-0.424c-0.095-0.119-0.239-0.188-0.391-0.188h-6.292c-0.229,0-0.428,0.155-0.484,0.377l-3.767,14.808 c-0.086,0.304,0.169,0.631,0.484,0.623h20.118c0.276,0,0.5-0.224,0.5-0.5v-5.661c0-0.133-0.053-0.261-0.148-0.354 C64.739,214.573,64.597,214.529,64.478,214.522z M63.982,220.184H45.007l3.513-13.808h5.275l-1.991,8.628 c-0.034,0.149,0.001,0.306,0.097,0.425c0.096,0.12,0.234,0.188,0.394,0.188l11.687-0.09V220.184z M64.122,166.137 c-0.098,0.136-0.251,0.208-0.407,0.208c-0.101,0-0.203-0.03-0.291-0.094l-18.585-13.346c-0.225-0.161-0.276-0.474-0.115-0.698 c0.161-0.225,0.473-0.277,0.698-0.115l18.585,13.346C64.231,165.601,64.283,165.913,64.122,166.137z M15.297,162.341 c-0.016,0.044-0.025,0.089-0.027,0.136c-0.001,0.014-0.008,0.026-0.008,0.04v3.614c0,0.276,0.224,0.5,0.5,0.5h9.895 c0.065,0,0.129-0.013,0.189-0.038c0.034-0.014,0.061-0.038,0.09-0.058c0.022-0.015,0.047-0.024,0.067-0.043l11.01-10.588 c0.098-0.094,0.153-0.224,0.153-0.36v-2.922c0-0.007-0.005-0.011-0.005-0.018c-0.005-0.076-0.029-0.149-0.064-0.216 c-0.011-0.02-0.018-0.04-0.031-0.057c-0.087-0.126-0.226-0.214-0.399-0.209h-9.895c-0.124,0-0.243,0.045-0.334,0.128l-11.01,9.896 c-0.005,0.004-0.006,0.009-0.011,0.013c-0.009,0.008-0.015,0.018-0.023,0.027c-0.037,0.039-0.065,0.081-0.085,0.127 C15.304,162.321,15.301,162.331,15.297,162.341z M16.262,163.017h8.895v2.614h-8.895V163.017z M26.156,164.956v-2.216l10.01-8.997 v1.587L26.156,164.956z M26.963,153.121h8.398l-9.897,8.896h-8.398L26.963,153.121z M68.888,238.427h-57.5 c-0.276,0-0.5,0.224-0.5,0.5v53.341c0,0.276,0.224,0.5,0.5,0.5h57.5c0.276,0,0.5-0.224,0.5-0.5v-53.341 C69.388,238.65,69.164,238.427,68.888,238.427z M68.388,291.768h-56.5v-52.341h56.5V291.768z M35.234,284.039 c0,0.276,0.224,0.5,0.5,0.5h23.012c0.276,0,0.5-0.224,0.5-0.5v-23.012c0-0.276-0.224-0.5-0.5-0.5H44.714v-13.532H21.702v23.012 h13.532V284.039z M58.246,283.539H36.234v-22.012h22.012V283.539z" fill="#0d0d0d"/></g></svg>