<?xml version="1.0" encoding="UTF-8" standalone="no"?><svg xmlns="http://www.w3.org/2000/svg" xmlns:xlink="http://www.w3.org/1999/xlink" fill="#000000" height="347.5" preserveAspectRatio="xMidYMid meet" version="1" viewBox="0.0 0.0 441.0 347.5" width="441" zoomAndPan="magnify"><g><linearGradient gradientUnits="userSpaceOnUse" id="a" x1="-13.782" x2="454.782" xlink:actuate="onLoad" xlink:show="other" xlink:type="simple" y1="51.726" y2="322.252"><stop offset="0" stop-color="#ffb3d2"/><stop offset="1" stop-color="#f2f2f2"/></linearGradient><path d="M0.5,26.989v320h440v-320H0.5z M401.449,284.533H39.551V41.515h361.898V284.533z" fill="url(#a)"/></g><g id="change1_1"><path d="M440.5,26.989H0.5V0.5h440V26.989z M247.209,298.194c-8.647,0-15.657,7.01-15.657,15.657 c0,8.647,7.01,15.657,15.657,15.657c8.647,0,15.657-7.01,15.657-15.657C262.866,305.204,255.856,298.194,247.209,298.194z M193.791,298.194c-8.647,0-15.657,7.01-15.657,15.657c0,8.647,7.01,15.657,15.657,15.657c8.647,0,15.657-7.01,15.657-15.657 C209.449,305.204,202.439,298.194,193.791,298.194z" fill="#fa643f"/></g><g id="change2_1"><path d="M440.5,0H0.5C0.224,0,0,0.224,0,0.5v26.489v320c0,0.276,0.224,0.5,0.5,0.5h440c0.276,0,0.5-0.224,0.5-0.5 v-320V0.5C441,0.224,440.776,0,440.5,0z M1,1h439v25.489H1V1z M440,346.489H1v-319h439V346.489z M405.901,8.405h-10.957 c-0.276,0-0.5,0.224-0.5,0.5v10.958c0,0.276,0.224,0.5,0.5,0.5h10.957c0.276,0,0.5-0.224,0.5-0.5V8.905 C406.401,8.628,406.178,8.405,405.901,8.405z M395.444,19.362v-7.033h9.957v7.033H395.444z M380.647,19.165 c0,0.276-0.224,0.5-0.5,0.5h-10.958c-0.276,0-0.5-0.224-0.5-0.5s0.224-0.5,0.5-0.5h10.958 C380.424,18.665,380.647,18.889,380.647,19.165z M431.342,9.592l-4.792,4.792l4.792,4.792c0.195,0.195,0.195,0.512,0,0.707 c-0.098,0.098-0.226,0.146-0.354,0.146s-0.256-0.049-0.354-0.146l-4.792-4.792l-4.792,4.792c-0.098,0.098-0.226,0.146-0.354,0.146 s-0.256-0.049-0.354-0.146c-0.195-0.195-0.195-0.512,0-0.707l4.792-4.792l-4.792-4.792c-0.195-0.195-0.195-0.512,0-0.707 s0.512-0.195,0.707,0l4.792,4.792l4.792-4.792c0.195-0.195,0.512-0.195,0.707,0S431.537,9.397,431.342,9.592z M15.049,12.556h-1.43 v-1.271h1.43V12.556z M17.272,17.85c0.123,0.111,0.185,0.257,0.185,0.437c0,0.176-0.062,0.319-0.185,0.431 s-0.329,0.167-0.618,0.167H12.57c-0.289,0-0.495-0.056-0.618-0.167s-0.185-0.257-0.185-0.437c0-0.176,0.062-0.319,0.185-0.431 s0.329-0.167,0.618-0.167h1.441v-2.918h-0.967c-0.285,0-0.49-0.056-0.615-0.167s-0.188-0.257-0.188-0.437 c0-0.176,0.062-0.319,0.185-0.431s0.329-0.167,0.618-0.167h2.168v4.119h1.441C16.943,17.683,17.149,17.738,17.272,17.85z M25.543,17.853c0.121,0.113,0.182,0.258,0.182,0.434s-0.061,0.319-0.182,0.431s-0.326,0.167-0.615,0.167h-1.143v-3.791 c0-0.184-0.033-0.311-0.1-0.381s-0.168-0.105-0.305-0.105c-0.133,0-0.256,0.035-0.369,0.105c-0.145,0.098-0.32,0.281-0.527,0.551 v2.42c0.25,0,0.436,0.057,0.557,0.17s0.182,0.258,0.182,0.434s-0.061,0.319-0.182,0.431s-0.326,0.167-0.615,0.167h-1.143v-3.791 c0-0.18-0.034-0.306-0.103-0.378s-0.171-0.108-0.308-0.108c-0.141,0-0.279,0.044-0.416,0.132s-0.301,0.263-0.492,0.524v2.42 c0.25,0,0.437,0.057,0.56,0.17s0.185,0.258,0.185,0.434s-0.062,0.319-0.185,0.431s-0.329,0.167-0.618,0.167h-1.084 c-0.289,0-0.495-0.056-0.618-0.167S18.02,18.46,18.02,18.28c0-0.176,0.061-0.319,0.182-0.431s0.309-0.167,0.562-0.167v-2.918 c-0.254,0-0.441-0.057-0.562-0.17s-0.182-0.258-0.182-0.434s0.062-0.319,0.185-0.431s0.329-0.167,0.618-0.167h1.143v0.34 c0.195-0.191,0.372-0.323,0.53-0.396s0.341-0.108,0.548-0.108c0.176,0,0.35,0.043,0.521,0.129s0.34,0.215,0.504,0.387 c0.207-0.172,0.417-0.3,0.63-0.384s0.431-0.126,0.653-0.126c0.445,0,0.807,0.119,1.084,0.357c0.367,0.312,0.551,0.723,0.551,1.23 v2.689C25.236,17.683,25.422,17.739,25.543,17.853z M31.748,13.563h-1.406v0.357c-0.25-0.18-0.513-0.313-0.788-0.401 s-0.565-0.132-0.87-0.132c-0.816,0-1.5,0.272-2.051,0.817s-0.826,1.22-0.826,2.024c0,0.801,0.275,1.474,0.826,2.019 s1.234,0.817,2.051,0.817c0.289,0,0.571-0.043,0.847-0.129s0.546-0.215,0.812-0.387v0.586c0,0.305-0.102,0.557-0.305,0.756 s-0.488,0.299-0.855,0.299h-1.324c-0.289,0-0.495,0.056-0.618,0.167s-0.185,0.257-0.185,0.437c0,0.176,0.062,0.319,0.185,0.431 s0.329,0.167,0.618,0.167h1.359c0.461,0,0.875-0.113,1.242-0.34s0.64-0.497,0.817-0.812s0.267-0.683,0.267-1.104v-4.371h0.205 c0.289,0,0.495-0.056,0.618-0.167s0.185-0.255,0.185-0.431c0-0.18-0.062-0.325-0.185-0.437S32.037,13.563,31.748,13.563z M29.847,17.375c-0.326,0.322-0.718,0.483-1.175,0.483s-0.849-0.161-1.175-0.483s-0.489-0.706-0.489-1.151 c0-0.441,0.163-0.824,0.489-1.148s0.718-0.486,1.175-0.486s0.849,0.162,1.175,0.486s0.489,0.707,0.489,1.148 C30.336,16.669,30.173,17.053,29.847,17.375z M37.435,11.425c-0.334-0.211-0.741-0.316-1.222-0.316 c-0.84,0-1.484,0.358-1.934,1.075s-0.674,1.464-0.674,2.241v1.318c0,0.641,0.149,1.247,0.448,1.819s0.615,0.965,0.949,1.178 s0.743,0.319,1.228,0.319c0.84,0,1.485-0.357,1.937-1.072s0.677-1.463,0.677-2.244v-1.318c0-0.645-0.151-1.253-0.454-1.825 S37.769,11.636,37.435,11.425z M37.637,15.743c0,0.664-0.174,1.221-0.521,1.67c-0.23,0.297-0.525,0.445-0.885,0.445 c-0.379,0-0.67-0.135-0.873-0.404c-0.367-0.484-0.551-1.055-0.551-1.711v-1.318c0-0.664,0.174-1.221,0.521-1.67 c0.23-0.297,0.527-0.445,0.891-0.445c0.375,0,0.666,0.135,0.873,0.404c0.363,0.488,0.545,1.059,0.545,1.711V15.743z M44.636,11.425 c-0.334-0.211-0.741-0.316-1.222-0.316c-0.84,0-1.484,0.358-1.934,1.075s-0.674,1.464-0.674,2.241v1.318 c0,0.641,0.149,1.247,0.448,1.819s0.615,0.965,0.949,1.178s0.743,0.319,1.228,0.319c0.84,0,1.485-0.357,1.937-1.072 s0.677-1.463,0.677-2.244v-1.318c0-0.645-0.151-1.253-0.454-1.825S44.97,11.636,44.636,11.425z M44.838,15.743 c0,0.664-0.174,1.221-0.521,1.67c-0.23,0.297-0.525,0.445-0.885,0.445c-0.379,0-0.67-0.135-0.873-0.404 c-0.367-0.484-0.551-1.055-0.551-1.711v-1.318c0-0.664,0.174-1.221,0.521-1.67c0.23-0.297,0.527-0.445,0.891-0.445 c0.375,0,0.666,0.135,0.873,0.404c0.363,0.488,0.545,1.059,0.545,1.711V15.743z M51.837,11.425 c-0.334-0.211-0.741-0.316-1.222-0.316c-0.84,0-1.484,0.358-1.934,1.075s-0.674,1.464-0.674,2.241v1.318 c0,0.641,0.149,1.247,0.448,1.819s0.615,0.965,0.949,1.178s0.743,0.319,1.228,0.319c0.84,0,1.485-0.357,1.937-1.072 s0.677-1.463,0.677-2.244v-1.318c0-0.645-0.151-1.253-0.454-1.825S52.171,11.636,51.837,11.425z M52.039,15.743 c0,0.664-0.174,1.221-0.521,1.67c-0.23,0.297-0.525,0.445-0.885,0.445c-0.379,0-0.67-0.135-0.873-0.404 c-0.367-0.484-0.551-1.055-0.551-1.711v-1.318c0-0.664,0.174-1.221,0.521-1.67c0.23-0.297,0.527-0.445,0.891-0.445 c0.375,0,0.666,0.135,0.873,0.404c0.363,0.488,0.545,1.059,0.545,1.711V15.743z M58.502,17.712c0.16,0.152,0.24,0.342,0.24,0.568 s-0.08,0.416-0.24,0.568s-0.381,0.229-0.662,0.229s-0.502-0.076-0.662-0.229s-0.24-0.342-0.24-0.568s0.08-0.416,0.24-0.568 s0.381-0.229,0.662-0.229S58.342,17.56,58.502,17.712z M63.295,13.563h3.65v5.572c0,0.422-0.089,0.79-0.267,1.104 s-0.45,0.585-0.817,0.812s-0.781,0.34-1.242,0.34H63.26c-0.289,0-0.495-0.056-0.618-0.167s-0.185-0.255-0.185-0.431 c0-0.18,0.062-0.325,0.185-0.437s0.329-0.167,0.618-0.167h1.324c0.367,0,0.652-0.1,0.855-0.299s0.305-0.451,0.305-0.756v-4.371 h-2.449c-0.289,0-0.495-0.056-0.618-0.167s-0.185-0.257-0.185-0.437c0-0.176,0.062-0.319,0.185-0.431S63.006,13.563,63.295,13.563z M66.236,12.556h-1.436v-1.271h1.436V12.556z M72.535,13.405c-0.316,0-0.625,0.047-0.926,0.141s-0.592,0.236-0.873,0.428v-0.41 H69.33c-0.289,0-0.495,0.056-0.618,0.167s-0.185,0.255-0.185,0.431c0,0.18,0.062,0.325,0.185,0.437s0.329,0.167,0.618,0.167h0.205 v5.426H69.33c-0.285,0-0.49,0.056-0.615,0.167s-0.188,0.257-0.188,0.437c0,0.176,0.062,0.319,0.185,0.431s0.329,0.167,0.618,0.167 h2.127c0.289,0,0.495-0.056,0.618-0.167s0.185-0.255,0.185-0.431c0-0.18-0.062-0.325-0.185-0.437s-0.329-0.167-0.618-0.167h-0.721 v-1.969c0.297,0.18,0.596,0.314,0.896,0.404s0.605,0.135,0.914,0.135c0.715,0,1.357-0.215,1.928-0.645 c0.684-0.516,1.025-1.17,1.025-1.963c0-0.719-0.289-1.356-0.867-1.913S73.355,13.405,72.535,13.405z M73.789,17.108 c-0.34,0.301-0.764,0.451-1.271,0.451c-0.504,0-0.927-0.151-1.269-0.454s-0.513-0.614-0.513-0.935c0-0.285,0.119-0.582,0.357-0.891 c0.352-0.449,0.826-0.674,1.424-0.674c0.371,0,0.694,0.087,0.97,0.261s0.479,0.391,0.612,0.65s0.199,0.474,0.199,0.642 C74.299,16.491,74.129,16.808,73.789,17.108z M82.156,13.563H80.75v0.357c-0.25-0.18-0.513-0.313-0.788-0.401 s-0.565-0.132-0.87-0.132c-0.816,0-1.5,0.272-2.051,0.817s-0.826,1.22-0.826,2.024c0,0.801,0.275,1.474,0.826,2.019 s1.234,0.817,2.051,0.817c0.289,0,0.571-0.043,0.847-0.129s0.546-0.215,0.812-0.387v0.586c0,0.305-0.102,0.557-0.305,0.756 s-0.488,0.299-0.855,0.299h-1.324c-0.289,0-0.495,0.056-0.618,0.167s-0.185,0.257-0.185,0.437c0,0.176,0.062,0.319,0.185,0.431 s0.329,0.167,0.618,0.167h1.359c0.461,0,0.875-0.113,1.242-0.34s0.64-0.497,0.817-0.812s0.267-0.683,0.267-1.104v-4.371h0.205 c0.289,0,0.495-0.056,0.618-0.167s0.185-0.255,0.185-0.431c0-0.18-0.062-0.325-0.185-0.437S82.445,13.563,82.156,13.563z M80.255,17.375c-0.326,0.322-0.718,0.483-1.175,0.483s-0.849-0.161-1.175-0.483s-0.489-0.706-0.489-1.151 c0-0.441,0.163-0.824,0.489-1.148s0.718-0.486,1.175-0.486s0.849,0.162,1.175,0.486s0.489,0.707,0.489,1.148 C80.744,16.669,80.581,17.053,80.255,17.375z M39.551,285.033h361.898c0.276,0,0.5-0.224,0.5-0.5V41.515c0-0.276-0.224-0.5-0.5-0.5 H39.551c-0.276,0-0.5,0.224-0.5,0.5v243.018C39.051,284.809,39.274,285.033,39.551,285.033z M40.051,42.015h360.898v242.018H40.051 V42.015z M247.209,297.694c-8.909,0-16.158,7.249-16.158,16.158s7.249,16.157,16.158,16.157s16.157-7.248,16.157-16.157 S256.118,297.694,247.209,297.694z M247.209,329.009c-8.358,0-15.158-6.8-15.158-15.157c0-8.358,6.8-15.158,15.158-15.158 c8.357,0,15.157,6.8,15.157,15.158C262.366,322.209,255.566,329.009,247.209,329.009z M193.792,297.694 c-8.909,0-16.158,7.249-16.158,16.158s7.249,16.157,16.158,16.157s16.157-7.248,16.157-16.157S202.701,297.694,193.792,297.694z M193.792,329.009c-8.358,0-15.158-6.8-15.158-15.157c0-8.358,6.8-15.158,15.158-15.158s15.157,6.8,15.157,15.158 C208.949,322.209,202.149,329.009,193.792,329.009z M255.632,313.432c0.142,0.093,0.228,0.251,0.228,0.42 c0,0.17-0.086,0.327-0.229,0.42l-8,5.187c-0.085,0.054-0.179,0.08-0.272,0.08c-0.163,0-0.324-0.08-0.42-0.229 c-0.149-0.231-0.084-0.541,0.147-0.691l6.583-4.267h-14.611c-0.276,0-0.5-0.224-0.5-0.5s0.224-0.5,0.5-0.5h14.612l-6.583-4.268 c-0.231-0.15-0.297-0.46-0.147-0.692c0.15-0.232,0.46-0.294,0.692-0.147L255.632,313.432z M202.442,313.852 c0,0.276-0.224,0.5-0.5,0.5h-14.612l6.583,4.267c0.232,0.15,0.298,0.46,0.147,0.691c-0.096,0.148-0.256,0.229-0.42,0.229 c-0.093,0-0.188-0.026-0.271-0.08l-8.001-5.187c-0.142-0.093-0.228-0.25-0.228-0.42c0-0.169,0.086-0.327,0.228-0.42l8.001-5.188 c0.231-0.147,0.542-0.084,0.691,0.147c0.15,0.232,0.084,0.542-0.147,0.692l-6.583,4.268h14.612 C202.219,313.352,202.442,313.576,202.442,313.852z M149.714,316.971c1.449-2.744,1.021-6.227-1.285-8.533 c-2.832-2.832-7.441-2.832-10.273,0c-2.833,2.832-2.833,7.441,0,10.273c1.416,1.416,3.276,2.124,5.137,2.124 c1.169,0,2.337-0.28,3.396-0.839l6.038,6.038c0.094,0.094,0.221,0.146,0.354,0.146s0.26-0.053,0.354-0.146l2.319-2.319 c0.195-0.195,0.195-0.512,0-0.707L149.714,316.971z M138.863,318.004c-2.442-2.442-2.442-6.417,0-8.859 c1.221-1.222,2.826-1.832,4.43-1.832s3.208,0.61,4.43,1.832c2.073,2.073,2.379,5.246,0.934,7.652 c-0.131,0.218-0.272,0.423-0.42,0.617c-0.009,0.011-0.017,0.023-0.026,0.035c-0.154,0.198-0.317,0.385-0.488,0.555 c-0.174,0.174-0.362,0.338-0.562,0.494c-0.006,0.005-0.012,0.009-0.018,0.013c-0.198,0.153-0.408,0.297-0.63,0.429 c0,0,0,0-0.001,0.001C144.105,320.384,140.934,320.077,138.863,318.004z M153.08,324.974l-5.523-5.523 c0.016-0.011,0.028-0.025,0.043-0.037c0.288-0.213,0.569-0.442,0.83-0.702c0.263-0.263,0.493-0.545,0.707-0.835 c0.01-0.014,0.022-0.024,0.032-0.038l5.523,5.523L153.08,324.974z M143.792,314.075v2.429c0,0.276-0.224,0.5-0.5,0.5 s-0.5-0.224-0.5-0.5v-2.429h-2.429c-0.276,0-0.5-0.224-0.5-0.5s0.224-0.5,0.5-0.5h2.429v-2.429c0-0.276,0.224-0.5,0.5-0.5 s0.5,0.224,0.5,0.5v2.429h2.429c0.276,0,0.5,0.224,0.5,0.5s-0.224,0.5-0.5,0.5H143.792z M116.348,316.971 c1.449-2.744,1.021-6.227-1.285-8.533c-2.833-2.832-7.441-2.832-10.273,0c-1.372,1.372-2.128,3.196-2.128,5.137 s0.756,3.765,2.128,5.137c1.416,1.416,3.276,2.124,5.137,2.124c1.168,0,2.337-0.28,3.396-0.839l6.037,6.038 c0.094,0.094,0.221,0.146,0.354,0.146s0.26-0.053,0.354-0.146l2.319-2.319c0.094-0.094,0.146-0.221,0.146-0.354 s-0.053-0.26-0.146-0.354L116.348,316.971z M105.497,318.004c-1.184-1.184-1.835-2.757-1.835-4.43s0.651-3.246,1.835-4.43 c1.221-1.221,2.825-1.832,4.43-1.832c1.604,0,3.208,0.611,4.43,1.832c2.073,2.073,2.38,5.247,0.933,7.654 c-0.132,0.219-0.274,0.427-0.425,0.623c-0.006,0.007-0.011,0.015-0.016,0.022c-0.155,0.2-0.319,0.387-0.492,0.56 c-0.174,0.173-0.361,0.338-0.561,0.493c-0.007,0.006-0.015,0.011-0.022,0.016c-0.197,0.152-0.406,0.295-0.626,0.427 C110.74,320.384,107.569,320.076,105.497,318.004z M119.713,324.974l-5.523-5.523c0.016-0.011,0.028-0.026,0.044-0.037 c0.288-0.213,0.569-0.441,0.829-0.702c0.263-0.263,0.493-0.545,0.707-0.835c0.01-0.014,0.022-0.024,0.032-0.038l5.523,5.523 L119.713,324.974z M112.855,314.075h-5.858c-0.276,0-0.5-0.224-0.5-0.5s0.224-0.5,0.5-0.5h5.858c0.276,0,0.5,0.224,0.5,0.5 S113.132,314.075,112.855,314.075z M301.074,315.406c0,4.351-3.54,7.891-7.892,7.891c-4.351,0-7.891-3.54-7.891-7.891 c0-0.276,0.224-0.5,0.5-0.5s0.5,0.224,0.5,0.5c0,3.8,3.091,6.891,6.891,6.891s6.892-3.091,6.892-6.891s-3.092-6.892-6.892-6.892 c-1.565,0-3.061,0.526-4.275,1.489l3.135-0.301c0.277-0.012,0.519,0.175,0.546,0.45c0.026,0.275-0.176,0.52-0.45,0.546l-4.64,0.445 c-0.016,0.001-0.032,0.002-0.048,0.002c-0.146,0-0.285-0.063-0.381-0.176c-0.105-0.124-0.145-0.292-0.103-0.45l1.175-4.511 c0.069-0.266,0.34-0.434,0.609-0.357c0.268,0.069,0.428,0.342,0.357,0.609l-0.756,2.905c1.378-1.069,3.066-1.652,4.829-1.652 C297.534,307.514,301.074,311.054,301.074,315.406z M293.183,317.882c-1.368,0-2.476-1.109-2.476-2.476 c0-1.368,1.109-2.476,2.476-2.476c1.368,0,2.476,1.109,2.476,2.476C295.659,316.773,294.551,317.882,293.183,317.882z M330.975,315.406c0,4.351-3.54,7.891-7.892,7.891c-4.351,0-7.891-3.54-7.891-7.891c0-4.352,3.54-7.892,7.891-7.892 c1.765,0,3.452,0.582,4.83,1.652l-0.756-2.905c-0.07-0.268,0.09-0.54,0.357-0.609c0.271-0.076,0.54,0.092,0.609,0.357l1.175,4.511 c0.042,0.158,0.003,0.326-0.103,0.45c-0.096,0.112-0.235,0.176-0.381,0.176c-0.016,0-0.032-0.001-0.048-0.002l-4.64-0.445 c-0.274-0.026-0.477-0.271-0.45-0.546c0.027-0.275,0.275-0.464,0.546-0.45l3.135,0.301c-1.214-0.963-2.71-1.489-4.276-1.489 c-3.8,0-6.891,3.092-6.891,6.892s3.091,6.891,6.891,6.891s6.892-3.091,6.892-6.891c0-0.276,0.224-0.5,0.5-0.5 S330.975,315.129,330.975,315.406z M323.083,312.929c1.368,0,2.476,1.109,2.476,2.476c0,1.368-1.109,2.476-2.476,2.476 c-1.368,0-2.476-1.109-2.476-2.476C320.607,314.038,321.716,312.929,323.083,312.929z" fill="#0d0d0d"/></g></svg>