<?xml version="1.0" encoding="UTF-8" standalone="no"?><svg xmlns="http://www.w3.org/2000/svg" xmlns:xlink="http://www.w3.org/1999/xlink" fill="#000000" height="355.3" preserveAspectRatio="xMidYMid meet" version="1" viewBox="0.0 0.0 462.1 355.3" width="462.1" zoomAndPan="magnify"><linearGradient gradientUnits="userSpaceOnUse" id="a" x1="27.199" x2="434.865" xlink:actuate="onLoad" xlink:show="other" xlink:type="simple" y1="381.467" y2="-26.199"><stop offset="0" stop-color="#fa643f"/><stop offset="1" stop-color="#ff80b4"/></linearGradient><path d="M0.5,0.5v354.268h461.064V0.5H0.5z M455.446,286.347H6.619V32.552h448.827V286.347z" fill="url(#a)"/><g id="change1_1"><path d="M455.446,347.725H6.619v-61.378h448.827V347.725z M455.446,22.044H6.619v10.508h448.827V22.044z" fill="#f2f2f2"/></g><g id="change2_1"><path d="M158.77,329.749h-9.366v-12.372h9.366V329.749z M170.673,317.377h-9.366v12.372h9.366V317.377z M182.576,317.377h-9.366v12.372h9.366V317.377z M194.478,317.377h-9.366v12.372h9.366V317.377z M206.381,317.377h-9.366v12.372 h9.366V317.377z M218.284,317.377h-9.366v12.372h9.366V317.377z M230.187,317.377h-9.366v12.372h9.366V317.377z M242.09,317.377 h-9.366v12.372h9.366V317.377z M253.993,317.377h-9.366v12.372h9.366V317.377z" fill="#ff80b4"/></g><g id="change3_1"><path d="M461.564,0H0.5C0.224,0,0,0.224,0,0.5v354.268c0,0.276,0.224,0.5,0.5,0.5h461.064c0.276,0,0.5-0.224,0.5-0.5 V0.5C462.064,0.224,461.841,0,461.564,0z M461.064,354.268H1V1h460.064V354.268z M6.619,348.225h448.828c0.276,0,0.5-0.224,0.5-0.5 v-61.378V32.552V22.044c0-0.276-0.224-0.5-0.5-0.5H6.619c-0.276,0-0.5,0.224-0.5,0.5v10.508v253.795v61.378 C6.119,348.001,6.342,348.225,6.619,348.225z M454.946,285.847H7.119V33.052h447.828V285.847z M454.946,347.225H7.119v-60.378 h447.828V347.225z M7.119,22.544h447.828v9.508H7.119V22.544z M146.393,332.237h169.279c0.276,0,0.5-0.224,0.5-0.5v-16.414 c0-0.276-0.224-0.5-0.5-0.5H146.393c-0.276,0-0.5,0.224-0.5,0.5v16.414C145.893,332.013,146.117,332.237,146.393,332.237z M146.893,315.823h168.279v15.414H146.893V315.823z M191.003,305.471v-5.515h-0.817c-0.34,0-0.581-0.065-0.726-0.196 c-0.145-0.13-0.217-0.301-0.217-0.512s0.072-0.382,0.217-0.513s0.386-0.195,0.726-0.195l3.053,0.007 c0.339,0,0.581,0.063,0.726,0.192c0.145,0.128,0.217,0.298,0.217,0.509s-0.072,0.382-0.217,0.512 c-0.145,0.131-0.387,0.196-0.726,0.196h-0.825v5.515h3.039v-1.334c0-0.339,0.065-0.581,0.196-0.726 c0.131-0.144,0.302-0.216,0.513-0.216c0.206,0,0.374,0.072,0.505,0.216c0.131,0.145,0.196,0.387,0.196,0.726v2.744h-6.677 c-0.34,0-0.581-0.065-0.726-0.196c-0.145-0.13-0.217-0.301-0.217-0.512c0-0.207,0.072-0.375,0.217-0.506s0.386-0.196,0.726-0.196 H191.003z M199.619,306.665c0.587,0.296,1.201,0.443,1.844,0.443c0.646,0,1.266-0.149,1.859-0.45c0.594-0.3,1.041-0.703,1.342-1.21 c0.3-0.507,0.45-1.03,0.45-1.571c0-0.568-0.151-1.122-0.454-1.661c-0.303-0.538-0.751-0.967-1.345-1.286 c-0.594-0.318-1.211-0.478-1.853-0.478c-0.638,0-1.248,0.156-1.833,0.468c-0.584,0.312-1.032,0.739-1.345,1.282 c-0.312,0.543-0.467,1.097-0.467,1.661c0,0.555,0.153,1.086,0.46,1.595C198.586,305.966,199.033,306.369,199.619,306.665z M199.867,302.473c0.427-0.407,0.958-0.611,1.596-0.611c0.724,0,1.309,0.257,1.753,0.77c0.326,0.381,0.488,0.798,0.488,1.252 c0,0.444-0.215,0.858-0.646,1.241c-0.431,0.383-0.963,0.574-1.595,0.574c-0.629,0-1.158-0.191-1.589-0.574s-0.646-0.794-0.646-1.234 C199.228,303.354,199.44,302.881,199.867,302.473z M206.998,306.513c0.472,0.401,1.087,0.602,1.843,0.602 c0.349,0,0.736-0.047,1.162-0.141c0.427-0.094,0.816-0.234,1.169-0.423v0.33h1.65c0.34,0,0.581-0.065,0.726-0.196 c0.145-0.13,0.217-0.299,0.217-0.505c0-0.211-0.072-0.382-0.217-0.513s-0.386-0.196-0.726-0.196h-0.24v-2.901 c0-0.655-0.242-1.173-0.726-1.551s-1.163-0.567-2.039-0.567c-0.293,0-0.621,0.028-0.983,0.086s-0.718,0.134-1.065,0.23 c-0.262,0.073-0.434,0.137-0.516,0.189c-0.083,0.053-0.147,0.122-0.193,0.209c-0.046,0.088-0.068,0.19-0.068,0.31 c0,0.211,0.065,0.385,0.196,0.52c0.13,0.135,0.289,0.203,0.478,0.203c0.138,0,0.33-0.03,0.578-0.09 c0.664-0.165,1.205-0.247,1.622-0.247c0.509,0,0.854,0.066,1.035,0.199c0.182,0.133,0.271,0.305,0.271,0.516v0.337 c-0.56-0.092-1.052-0.138-1.479-0.138c-1.063,0-1.896,0.254-2.499,0.76c-0.604,0.507-0.904,1.056-0.904,1.647 C206.29,305.668,206.525,306.113,206.998,306.513z M208.133,304.612c0.412-0.279,0.905-0.419,1.479-0.419 c0.477,0,0.997,0.055,1.561,0.165v0.604c-0.334,0.229-0.716,0.411-1.145,0.544s-0.812,0.199-1.152,0.199 c-0.398,0-0.713-0.076-0.941-0.227c-0.124-0.083-0.186-0.19-0.186-0.323C207.748,304.972,207.876,304.791,208.133,304.612z M218.083,307.108c0.376,0,0.739-0.048,1.09-0.145c0.351-0.096,0.687-0.238,1.008-0.426v0.344h1.65c0.339,0,0.581-0.065,0.726-0.196 c0.144-0.13,0.216-0.299,0.216-0.505c0-0.211-0.073-0.382-0.22-0.513s-0.388-0.196-0.722-0.196h-0.241v-7.509h-1.65 c-0.339,0-0.581,0.065-0.726,0.196c-0.145,0.13-0.217,0.301-0.217,0.512c0,0.207,0.072,0.375,0.217,0.506s0.387,0.196,0.726,0.196 h0.241v1.753c-0.344-0.225-0.692-0.393-1.046-0.505c-0.353-0.112-0.713-0.169-1.079-0.169c-0.977,0-1.805,0.337-2.482,1.011 c-0.679,0.674-1.018,1.488-1.018,2.441c0,0.912,0.323,1.675,0.969,2.286C216.171,306.802,217.024,307.108,218.083,307.108z M216.577,302.466c0.408-0.403,0.905-0.604,1.492-0.604c0.591,0,1.091,0.201,1.499,0.604s0.612,0.896,0.612,1.479 c0,0.505-0.186,0.923-0.558,1.255c-0.371,0.333-0.89,0.499-1.554,0.499c-0.67,0-1.188-0.166-1.555-0.499 c-0.366-0.332-0.55-0.757-0.55-1.275C215.965,303.356,216.169,302.87,216.577,302.466z M227.312,299.455h-1.679v-1.492h1.679 V299.455z M223.678,306.685c-0.145-0.13-0.217-0.301-0.217-0.512c0-0.207,0.072-0.375,0.217-0.506s0.387-0.196,0.726-0.196h1.691 v-3.424h-1.135c-0.334,0-0.575-0.065-0.722-0.196s-0.22-0.302-0.22-0.513c0-0.206,0.072-0.374,0.217-0.505 c0.144-0.131,0.386-0.196,0.725-0.196h2.545v4.834h1.691c0.339,0,0.581,0.065,0.726,0.196s0.217,0.302,0.217,0.513 c0,0.206-0.072,0.375-0.217,0.505c-0.145,0.131-0.387,0.196-0.726,0.196h-4.793C224.064,306.881,223.822,306.816,223.678,306.685z M232.421,305.471v-3.424c-0.298,0-0.518-0.066-0.66-0.199c-0.142-0.134-0.213-0.303-0.213-0.51c0-0.206,0.072-0.374,0.217-0.505 s0.386-0.196,0.726-0.196h1.341v0.475c0.257-0.22,0.54-0.385,0.85-0.495c0.309-0.11,0.645-0.165,1.007-0.165 c0.835,0,1.495,0.259,1.98,0.777c0.386,0.412,0.578,0.953,0.578,1.623v2.619c0.298,0,0.518,0.065,0.66,0.196 c0.142,0.131,0.213,0.302,0.213,0.513c0,0.206-0.072,0.375-0.217,0.505c-0.145,0.131-0.386,0.196-0.726,0.196h-1.271 c-0.34,0-0.581-0.065-0.726-0.196c-0.145-0.13-0.217-0.301-0.217-0.512c0-0.207,0.071-0.375,0.213-0.506 c0.143-0.131,0.362-0.196,0.66-0.196v-2.661c0-0.307-0.082-0.531-0.247-0.674c-0.216-0.183-0.539-0.274-0.97-0.274 c-0.326,0-0.611,0.062-0.856,0.188s-0.556,0.394-0.932,0.802v2.619c0.362,0,0.596,0.035,0.701,0.104 c0.225,0.138,0.337,0.34,0.337,0.605c0,0.206-0.072,0.375-0.217,0.505c-0.144,0.131-0.386,0.196-0.725,0.196h-1.603 c-0.34,0-0.581-0.065-0.726-0.196c-0.145-0.13-0.217-0.301-0.217-0.512c0-0.257,0.11-0.456,0.33-0.599 C231.823,305.506,232.06,305.471,232.421,305.471z M243.313,307.094c0.34,0,0.671-0.05,0.994-0.151 c0.323-0.101,0.641-0.252,0.952-0.453v0.688c0,0.357-0.119,0.653-0.357,0.887c-0.238,0.234-0.573,0.351-1.004,0.351h-1.555 c-0.339,0-0.581,0.065-0.726,0.196c-0.144,0.131-0.216,0.302-0.216,0.513c0,0.206,0.072,0.374,0.216,0.505 c0.145,0.131,0.387,0.196,0.726,0.196h1.596c0.541,0,1.026-0.133,1.458-0.399c0.431-0.266,0.75-0.583,0.959-0.952 s0.313-0.801,0.313-1.296v-5.13h0.24c0.339,0,0.581-0.065,0.726-0.196s0.217-0.299,0.217-0.506c0-0.21-0.072-0.381-0.217-0.512 s-0.387-0.196-0.726-0.196h-1.65v0.42c-0.294-0.211-0.602-0.368-0.925-0.472c-0.323-0.103-0.664-0.154-1.021-0.154 c-0.958,0-1.76,0.319-2.406,0.959s-0.97,1.432-0.97,2.376c0,0.94,0.323,1.729,0.97,2.369S242.355,307.094,243.313,307.094z M241.921,302.412c0.383-0.381,0.843-0.571,1.379-0.571s0.996,0.19,1.379,0.571s0.574,0.83,0.574,1.348 c0,0.522-0.191,0.973-0.574,1.352c-0.383,0.378-0.843,0.567-1.379,0.567s-0.996-0.189-1.379-0.567 c-0.383-0.379-0.574-0.829-0.574-1.352C241.347,303.242,241.538,302.792,241.921,302.412z M251.4,306.84 c-0.188-0.179-0.282-0.401-0.282-0.667s0.094-0.488,0.282-0.667c0.188-0.179,0.447-0.269,0.777-0.269s0.589,0.09,0.776,0.269 c0.188,0.179,0.282,0.401,0.282,0.667s-0.094,0.488-0.282,0.667c-0.188,0.179-0.446,0.268-0.776,0.268S251.588,307.019,251.4,306.84 z M259.852,306.84c-0.188-0.179-0.282-0.401-0.282-0.667s0.094-0.488,0.282-0.667c0.188-0.179,0.447-0.269,0.777-0.269 s0.589,0.09,0.776,0.269c0.188,0.179,0.282,0.401,0.282,0.667s-0.094,0.488-0.282,0.667c-0.188,0.179-0.446,0.268-0.776,0.268 S260.039,307.019,259.852,306.84z M268.303,306.84c-0.188-0.179-0.282-0.401-0.282-0.667s0.094-0.488,0.282-0.667 c0.188-0.179,0.447-0.269,0.777-0.269s0.589,0.09,0.776,0.269c0.188,0.179,0.282,0.401,0.282,0.667s-0.094,0.488-0.282,0.667 c-0.188,0.179-0.446,0.268-0.776,0.268S268.49,307.019,268.303,306.84z M412.83,16.943h9.162c0.276,0,0.5-0.224,0.5-0.5V7.281 c0-0.276-0.224-0.5-0.5-0.5h-9.162c-0.276,0-0.5,0.224-0.5,0.5v9.162C412.33,16.72,412.554,16.943,412.83,16.943z M413.33,15.943 v-5.799h8.162v5.799H413.33z M382.764,16.443c0-0.276,0.224-0.5,0.5-0.5h9.163c0.276,0,0.5,0.224,0.5,0.5s-0.224,0.5-0.5,0.5h-9.163 C382.987,16.943,382.764,16.72,382.764,16.443z M441.306,16.394l3.949-3.949l-3.949-3.949c-0.195-0.195-0.195-0.512,0-0.707 s0.512-0.195,0.707,0l3.949,3.949l3.949-3.949c0.195-0.195,0.512-0.195,0.707,0s0.195,0.512,0,0.707l-3.949,3.949l3.949,3.949 c0.195,0.195,0.195,0.512,0,0.707c-0.098,0.098-0.226,0.146-0.354,0.146s-0.256-0.049-0.354-0.146l-3.949-3.949l-3.949,3.949 c-0.098,0.098-0.226,0.146-0.354,0.146s-0.256-0.049-0.354-0.146C441.11,16.906,441.11,16.589,441.306,16.394z M158.77,316.877 h-9.366c-0.276,0-0.5,0.224-0.5,0.5v12.372c0,0.276,0.224,0.5,0.5,0.5h9.366c0.276,0,0.5-0.224,0.5-0.5v-12.372 C159.27,317.101,159.046,316.877,158.77,316.877z M158.27,329.25h-8.366v-11.372h8.366V329.25z M170.672,316.877h-9.366 c-0.276,0-0.5,0.224-0.5,0.5v12.372c0,0.276,0.224,0.5,0.5,0.5h9.366c0.276,0,0.5-0.224,0.5-0.5v-12.372 C171.172,317.101,170.949,316.877,170.672,316.877z M170.172,329.25h-8.366v-11.372h8.366V329.25z M182.576,316.877h-9.366 c-0.276,0-0.5,0.224-0.5,0.5v12.372c0,0.276,0.224,0.5,0.5,0.5h9.366c0.276,0,0.5-0.224,0.5-0.5v-12.372 C183.076,317.101,182.852,316.877,182.576,316.877z M182.076,329.25h-8.366v-11.372h8.366V329.25z M194.479,316.877h-9.366 c-0.276,0-0.5,0.224-0.5,0.5v12.372c0,0.276,0.224,0.5,0.5,0.5h9.366c0.276,0,0.5-0.224,0.5-0.5v-12.372 C194.979,317.101,194.755,316.877,194.479,316.877z M193.979,329.25h-8.366v-11.372h8.366V329.25z M206.381,316.877h-9.366 c-0.276,0-0.5,0.224-0.5,0.5v12.372c0,0.276,0.224,0.5,0.5,0.5h9.366c0.276,0,0.5-0.224,0.5-0.5v-12.372 C206.881,317.101,206.658,316.877,206.381,316.877z M205.881,329.25h-8.366v-11.372h8.366V329.25z M218.284,316.877h-9.366 c-0.276,0-0.5,0.224-0.5,0.5v12.372c0,0.276,0.224,0.5,0.5,0.5h9.366c0.276,0,0.5-0.224,0.5-0.5v-12.372 C218.784,317.101,218.561,316.877,218.284,316.877z M217.784,329.25h-8.366v-11.372h8.366V329.25z M230.187,316.877h-9.366 c-0.276,0-0.5,0.224-0.5,0.5v12.372c0,0.276,0.224,0.5,0.5,0.5h9.366c0.276,0,0.5-0.224,0.5-0.5v-12.372 C230.687,317.101,230.463,316.877,230.187,316.877z M229.687,329.25h-8.366v-11.372h8.366V329.25z M242.09,316.877h-9.365 c-0.276,0-0.5,0.224-0.5,0.5v12.372c0,0.276,0.224,0.5,0.5,0.5h9.365c0.276,0,0.5-0.224,0.5-0.5v-12.372 C242.59,317.101,242.366,316.877,242.09,316.877z M241.59,329.25h-8.365v-11.372h8.365V329.25z M253.993,316.877h-9.366 c-0.276,0-0.5,0.224-0.5,0.5v12.372c0,0.276,0.224,0.5,0.5,0.5h9.366c0.276,0,0.5-0.224,0.5-0.5v-12.372 C254.493,317.101,254.27,316.877,253.993,316.877z M253.493,329.25h-8.366v-11.372h8.366V329.25z" fill="#0d0d0d"/></g></svg>