<?xml version="1.0" encoding="UTF-8" standalone="no"?><svg xmlns="http://www.w3.org/2000/svg" xmlns:xlink="http://www.w3.org/1999/xlink" fill="#000000" height="415.6" preserveAspectRatio="xMidYMid meet" version="1" viewBox="0.0 0.0 304.0 415.6" width="304" zoomAndPan="magnify"><g id="change1_1"><path d="M303.533,31.593H0.5V6.1c0-3.093,2.507-5.6,5.6-5.6h291.834c3.093,0,5.6,2.507,5.6,5.6V31.593z" fill="#f2f2f2"/></g><linearGradient gradientUnits="userSpaceOnUse" id="a" x1="0.5" x2="303.533" xlink:actuate="onLoad" xlink:show="other" xlink:type="simple" y1="223.337" y2="223.337"><stop offset="0" stop-color="#604abd"/><stop offset="1" stop-color="#f2f2f2"/></linearGradient><path d="M0.5,31.593V409.48c0,3.093,2.507,5.6,5.6,5.6h291.833c3.093,0,5.6-2.507,5.6-5.6V31.593H0.5z M297.416,401.739c0,3.093-2.507,5.6-5.6,5.6h-279.6c-3.093,0-5.6-2.507-5.6-5.6V44.934c0-3.093,2.507-5.6,5.6-5.6h279.6 c3.093,0,5.6,2.507,5.6,5.6V401.739z" fill="url(#a)"/><g id="change2_1"><path d="M48.726,14.967c0,2.478-2.009,4.487-4.487,4.487c-2.478,0-4.487-2.009-4.487-4.487s2.009-4.487,4.487-4.487 C46.717,10.48,48.726,12.489,48.726,14.967z" fill="#604abd"/></g><g id="change3_1"><path d="M33.799,14.967c0,2.478-2.009,4.487-4.487,4.487s-4.487-2.009-4.487-4.487s2.009-4.487,4.487-4.487 S33.799,12.489,33.799,14.967z" fill="#f2f2f2"/></g><g id="change4_1"><path d="M18.871,14.967c0,2.478-2.009,4.487-4.487,4.487s-4.487-2.009-4.487-4.487s2.009-4.487,4.487-4.487 S18.871,12.489,18.871,14.967z" fill="#ff80b4"/></g><g id="change5_1"><path d="M297.934,0H6.1C2.736,0,0,2.736,0,6.1v25.493V409.48c0,3.363,2.736,6.1,6.1,6.1h291.834 c3.363,0,6.1-2.736,6.1-6.1V31.593V6.1C304.033,2.736,301.297,0,297.934,0z M1,6.1C1,3.288,3.288,1,6.1,1h291.834 c2.812,0,5.1,2.288,5.1,5.1v24.993H1V6.1z M303.033,409.48c0,2.812-2.288,5.1-5.1,5.1H6.1c-2.812,0-5.1-2.288-5.1-5.1V32.093 h302.033V409.48z M12.217,407.839h279.6c3.363,0,6.1-2.736,6.1-6.101V44.934c0-3.364-2.736-6.1-6.1-6.1h-279.6 c-3.364,0-6.1,2.736-6.1,6.1v356.805C6.117,405.103,8.853,407.839,12.217,407.839z M7.117,44.934c0-2.812,2.288-5.1,5.1-5.1h279.6 c2.812,0,5.1,2.288,5.1,5.1v356.805c0,2.812-2.288,5.101-5.1,5.101h-279.6c-2.812,0-5.1-2.288-5.1-5.101V44.934z M14.383,9.98 c-2.75,0-4.987,2.237-4.987,4.987s2.237,4.987,4.987,4.987s4.987-2.237,4.987-4.987S17.133,9.98,14.383,9.98z M14.383,18.955 c-2.199,0-3.987-1.789-3.987-3.987s1.789-3.987,3.987-3.987s3.987,1.789,3.987,3.987S16.582,18.955,14.383,18.955z M29.311,9.98 c-2.75,0-4.987,2.237-4.987,4.987s2.237,4.987,4.987,4.987s4.987-2.237,4.987-4.987S32.061,9.98,29.311,9.98z M29.311,18.955 c-2.199,0-3.987-1.789-3.987-3.987s1.789-3.987,3.987-3.987s3.987,1.789,3.987,3.987S31.51,18.955,29.311,18.955z M44.239,9.98 c-2.75,0-4.987,2.237-4.987,4.987s2.237,4.987,4.987,4.987s4.987-2.237,4.987-4.987S46.989,9.98,44.239,9.98z M44.239,18.955 c-2.199,0-3.987-1.789-3.987-3.987s1.789-3.987,3.987-3.987s3.987,1.789,3.987,3.987S46.438,18.955,44.239,18.955z M81.787,6.625 H68.26h-7.083c-0.276,0-0.5,0.224-0.5,0.5v16.358c0,0.276,0.224,0.5,0.5,0.5h7.083h13.527c0.276,0,0.5-0.224,0.5-0.5V7.125 C82.287,6.849,82.063,6.625,81.787,6.625z M61.677,7.625h6.083v15.358h-6.083V7.625z M81.287,22.984H68.76V7.625h12.527V22.984z M94.027,14.001c0.206,0.184,0.223,0.5,0.038,0.706l-3.003,3.347c-0.095,0.105-0.23,0.166-0.372,0.166s-0.277-0.061-0.372-0.166 l-3.003-3.347c-0.185-0.206-0.167-0.522,0.038-0.706c0.205-0.185,0.521-0.168,0.706,0.038l2.631,2.933l2.631-2.933 C93.505,13.833,93.821,13.817,94.027,14.001z M256.655,16.523c1.007-2.011,0.697-4.519-0.979-6.194 c-2.094-2.094-5.498-2.093-7.592,0c-1.014,1.014-1.572,2.362-1.572,3.795s0.559,2.782,1.572,3.795 c1.047,1.046,2.421,1.57,3.796,1.57c0.826,0,1.643-0.213,2.398-0.591l4.291,4.291c0.098,0.098,0.226,0.146,0.354,0.146 s0.256-0.049,0.354-0.146l1.669-1.669c0.094-0.094,0.146-0.221,0.146-0.354s-0.053-0.26-0.146-0.354L256.655,16.523z M248.792,17.213c-0.825-0.825-1.279-1.922-1.279-3.088s0.454-2.263,1.279-3.088c0.852-0.852,1.971-1.277,3.089-1.277 s2.237,0.426,3.089,1.277c1.463,1.464,1.66,3.713,0.608,5.398c-0.044,0.07-0.091,0.136-0.138,0.203 c-0.14,0.198-0.288,0.392-0.464,0.569c-0.002,0.002-0.004,0.004-0.006,0.006c-0.002,0.002-0.005,0.004-0.008,0.007 c-0.177,0.176-0.37,0.324-0.568,0.463c-0.067,0.047-0.133,0.095-0.203,0.139C252.505,18.874,250.256,18.677,248.792,17.213z M258.924,22.129l-3.761-3.761c0.183-0.14,0.354-0.29,0.514-0.448c0,0,0,0,0,0c0.158-0.158,0.308-0.33,0.448-0.513l3.761,3.76 L258.924,22.129z M252.381,14.625v1.608c0,0.276-0.224,0.5-0.5,0.5s-0.5-0.224-0.5-0.5v-1.608h-1.608c-0.276,0-0.5-0.224-0.5-0.5 s0.224-0.5,0.5-0.5h1.608v-1.608c0-0.276,0.224-0.5,0.5-0.5s0.5,0.224,0.5,0.5v1.608h1.607c0.276,0,0.5,0.224,0.5,0.5 s-0.224,0.5-0.5,0.5H252.381z M232.646,16.525c0.372-0.739,0.591-1.549,0.591-2.401c0-1.434-0.559-2.782-1.572-3.795 c-1.014-1.014-2.361-1.573-3.795-1.573s-2.782,0.559-3.796,1.573c-1.014,1.014-1.572,2.362-1.572,3.795s0.559,2.782,1.572,3.795 c1.014,1.014,2.362,1.573,3.796,1.573c0.851,0,1.662-0.219,2.401-0.591l4.289,4.288c0.098,0.098,0.226,0.146,0.354,0.146 s0.256-0.049,0.354-0.146l1.669-1.669c0.094-0.094,0.146-0.221,0.146-0.354s-0.053-0.26-0.146-0.354L232.646,16.525z M224.781,17.213c-0.825-0.825-1.279-1.922-1.279-3.088s0.454-2.263,1.279-3.088s1.922-1.28,3.089-1.28 c1.166,0,2.263,0.455,3.088,1.28s1.279,1.922,1.279,3.088c0,0.834-0.241,1.628-0.675,2.316c-0.047,0.075-0.097,0.144-0.146,0.215 c-0.139,0.194-0.286,0.385-0.458,0.557c-0.172,0.172-0.362,0.318-0.555,0.457c-0.071,0.05-0.142,0.101-0.217,0.148 c-0.689,0.434-1.482,0.675-2.315,0.675C226.703,18.493,225.606,18.038,224.781,17.213z M234.913,22.129l-3.761-3.761 c0.181-0.139,0.35-0.287,0.506-0.443c0.002-0.002,0.005-0.004,0.007-0.006c0.003-0.003,0.005-0.007,0.008-0.01 c0.156-0.156,0.303-0.323,0.441-0.503l3.761,3.761L234.913,22.129z M229.978,14.625h-4.216c-0.276,0-0.5-0.224-0.5-0.5 s0.224-0.5,0.5-0.5h4.216c0.276,0,0.5,0.224,0.5,0.5S230.254,14.625,229.978,14.625z M277.736,8.757c-3.932,0-7.13,3.198-7.13,7.129 c0,2.741,1.557,5.122,3.83,6.314c0.002,0.001,0.002,0.003,0.004,0.004c0.021,0.011,0.042,0.018,0.063,0.028 c0.207,0.106,0.42,0.202,0.639,0.287c0.071,0.028,0.143,0.053,0.214,0.078c0.173,0.062,0.349,0.116,0.528,0.165 c0.09,0.024,0.179,0.049,0.269,0.069c0.174,0.04,0.351,0.07,0.529,0.096c0.086,0.013,0.171,0.03,0.257,0.039 c0.262,0.029,0.527,0.047,0.797,0.047c0.303,0,0.599-0.025,0.892-0.062c0.067-0.008,0.133-0.02,0.199-0.03 c0.258-0.04,0.511-0.093,0.759-0.16c0.036-0.01,0.072-0.018,0.108-0.028c0.608-0.174,1.181-0.428,1.711-0.748 c0.013-0.008,0.028-0.013,0.042-0.022c0.003-0.002,0.004-0.006,0.007-0.008c2.043-1.255,3.412-3.504,3.412-6.073 C284.866,11.955,281.668,8.757,277.736,8.757z M275.849,17.069h0.344h3.287h0.178l0.96,4.221c-0.414,0.222-0.851,0.392-1.299,0.512 c-0.007,0.002-0.013,0.003-0.02,0.005c-0.218,0.057-0.44,0.103-0.662,0.136c-0.006,0.001-0.013,0.002-0.019,0.003 c-0.223,0.032-0.447,0.052-0.671,0.06c-0.007,0-0.015,0.001-0.022,0.001c-0.914,0.029-1.832-0.146-2.673-0.522 c-0.011-0.005-0.021-0.01-0.032-0.015L275.849,17.069z M276.702,16.069c0.092-2.539,0.824-3.902,1.134-3.902 s1.042,1.363,1.134,3.902H276.702z M281.51,20.707l-0.966-4.249c-0.052-0.228-0.254-0.389-0.487-0.389h-0.087 c-0.086-2.448-0.763-4.902-2.134-4.902s-2.049,2.454-2.134,4.902h-0.287c-0.249,0-0.46,0.183-0.495,0.429l-0.637,4.449 c-1.614-1.105-2.677-2.961-2.677-5.06c0-3.38,2.75-6.129,6.13-6.129s6.13,2.75,6.13,6.129 C283.866,17.843,282.941,19.584,281.51,20.707z M106.417,12.895c-0.297,0-0.586,0.044-0.868,0.132s-0.555,0.222-0.818,0.401v-0.385 h-1.318c-0.271,0-0.464,0.052-0.579,0.156c-0.116,0.104-0.174,0.239-0.174,0.404c0,0.168,0.058,0.305,0.174,0.409 c0.115,0.104,0.308,0.156,0.579,0.156h0.192v5.087h-0.192c-0.268,0-0.46,0.052-0.577,0.156s-0.176,0.24-0.176,0.409 c0,0.165,0.058,0.3,0.174,0.403c0.115,0.104,0.308,0.157,0.579,0.157h1.994c0.271,0,0.464-0.053,0.579-0.157 c0.115-0.104,0.173-0.238,0.173-0.403c0-0.169-0.058-0.305-0.173-0.409s-0.309-0.156-0.579-0.156h-0.676v-1.846 c0.278,0.168,0.559,0.295,0.841,0.379c0.281,0.084,0.567,0.126,0.856,0.126c0.67,0,1.272-0.201,1.808-0.604 c0.641-0.483,0.961-1.097,0.961-1.84c0-0.674-0.271-1.271-0.812-1.794C107.842,13.156,107.186,12.895,106.417,12.895z M107.593,16.367c-0.319,0.282-0.717,0.423-1.192,0.423c-0.473,0-0.869-0.142-1.189-0.426c-0.32-0.283-0.48-0.576-0.48-0.876 c0-0.268,0.111-0.546,0.335-0.835c0.33-0.421,0.774-0.632,1.335-0.632c0.348,0,0.651,0.082,0.909,0.244 c0.258,0.163,0.449,0.366,0.574,0.61c0.124,0.243,0.187,0.443,0.187,0.602C108.071,15.788,107.912,16.084,107.593,16.367z M115.596,13.301c0.234,0.184,0.352,0.37,0.352,0.561c0,0.161-0.056,0.298-0.167,0.409c-0.112,0.111-0.247,0.168-0.404,0.168 c-0.139,0-0.285-0.07-0.439-0.209c-0.153-0.14-0.291-0.209-0.412-0.209c-0.157,0-0.393,0.099-0.706,0.297 c-0.312,0.197-0.704,0.494-1.173,0.89v1.697h1.604c0.271,0,0.464,0.053,0.579,0.156c0.116,0.104,0.174,0.241,0.174,0.41 c0,0.164-0.058,0.299-0.174,0.403c-0.115,0.104-0.309,0.156-0.579,0.156h-3.4c-0.271,0-0.464-0.052-0.579-0.156 s-0.174-0.241-0.174-0.409c0-0.165,0.059-0.3,0.174-0.404c0.115-0.104,0.309-0.156,0.579-0.156h0.67v-2.735h-0.406 c-0.271,0-0.464-0.053-0.579-0.156c-0.115-0.104-0.174-0.241-0.174-0.409c0-0.165,0.059-0.3,0.174-0.404s0.309-0.156,0.579-0.156 h1.532v0.703c0.473-0.341,0.846-0.567,1.118-0.682c0.272-0.113,0.528-0.17,0.767-0.17C114.897,12.895,115.252,13.031,115.596,13.301 z M121.93,16.708c-0.11,0-0.308,0.036-0.594,0.109c-0.692,0.18-1.247,0.27-1.664,0.27c-0.51,0-0.913-0.09-1.212-0.27 c-0.298-0.18-0.506-0.415-0.623-0.708h4.62V15.63c0-0.366-0.059-0.688-0.176-0.967c-0.173-0.399-0.391-0.734-0.654-1.005 c-0.187-0.187-0.472-0.361-0.854-0.522c-0.383-0.161-0.804-0.241-1.261-0.241c-0.762,0-1.435,0.248-2.02,0.744 c-0.584,0.496-0.876,1.14-0.876,1.931c0,0.744,0.271,1.37,0.811,1.879s1.261,0.764,2.161,0.764c0.524,0,1.069-0.062,1.638-0.185 c0.567-0.122,0.924-0.251,1.07-0.387c0.11-0.103,0.165-0.228,0.165-0.374c0-0.161-0.051-0.294-0.153-0.4 S122.08,16.708,121.93,16.708z M118.551,14.26c0.278-0.159,0.608-0.239,0.989-0.239c0.384,0,0.716,0.08,0.994,0.239 s0.503,0.399,0.676,0.722h-3.34C118.046,14.66,118.273,14.419,118.551,14.26z M129.628,13.2c0.115,0.104,0.173,0.241,0.173,0.409 c0,0.165-0.058,0.3-0.173,0.404c-0.115,0.104-0.309,0.156-0.58,0.156h-0.187l-1.884,3.861h-1.176l-1.884-3.861h-0.159 c-0.271,0-0.465-0.053-0.58-0.156c-0.115-0.104-0.173-0.241-0.173-0.409c0-0.165,0.058-0.3,0.173-0.404s0.309-0.156,0.58-0.156h1.51 c0.268,0,0.459,0.052,0.574,0.156s0.173,0.241,0.173,0.409c0,0.209-0.088,0.368-0.264,0.479c-0.088,0.055-0.283,0.082-0.587,0.082 l1.225,2.494l1.214-2.494c-0.3,0-0.492-0.025-0.577-0.077c-0.183-0.113-0.274-0.276-0.274-0.488c0-0.165,0.058-0.3,0.173-0.404 c0.116-0.104,0.309-0.156,0.58-0.156h1.543C129.32,13.043,129.513,13.095,129.628,13.2z M135.622,17.061 c0.115,0.104,0.173,0.241,0.173,0.41c0,0.164-0.058,0.299-0.173,0.403s-0.309,0.156-0.58,0.156h-3.828 c-0.271,0-0.465-0.052-0.58-0.156s-0.173-0.241-0.173-0.409c0-0.165,0.058-0.3,0.173-0.404c0.115-0.104,0.309-0.156,0.58-0.156 h1.351v-2.735h-0.906c-0.268,0-0.459-0.053-0.576-0.156c-0.117-0.104-0.176-0.241-0.176-0.409c0-0.165,0.058-0.3,0.173-0.404 s0.309-0.156,0.579-0.156h2.032v3.861h1.352C135.313,16.905,135.506,16.958,135.622,17.061z M133.537,12.098h-1.341v-1.191h1.341 V12.098z M142.183,16.708c-0.11,0-0.308,0.036-0.594,0.109c-0.692,0.18-1.247,0.27-1.664,0.27c-0.51,0-0.913-0.09-1.212-0.27 c-0.298-0.18-0.506-0.415-0.623-0.708h4.62V15.63c0-0.366-0.059-0.688-0.176-0.967c-0.173-0.399-0.391-0.734-0.654-1.005 c-0.187-0.187-0.472-0.361-0.854-0.522c-0.383-0.161-0.804-0.241-1.261-0.241c-0.762,0-1.435,0.248-2.02,0.744 c-0.584,0.496-0.876,1.14-0.876,1.931c0,0.744,0.271,1.37,0.811,1.879s1.261,0.764,2.161,0.764c0.524,0,1.069-0.062,1.638-0.185 c0.567-0.122,0.924-0.251,1.07-0.387c0.11-0.103,0.165-0.228,0.165-0.374c0-0.161-0.051-0.294-0.153-0.4 S142.333,16.708,142.183,16.708z M138.804,14.26c0.278-0.159,0.608-0.239,0.989-0.239c0.384,0,0.716,0.08,0.994,0.239 s0.503,0.399,0.676,0.722h-3.34C138.299,14.66,138.526,14.419,138.804,14.26z M149.859,13.2c0.116,0.104,0.174,0.241,0.174,0.409 c0,0.15-0.051,0.277-0.151,0.382s-0.25,0.164-0.448,0.179l-0.923,3.861h-1.043l-0.824-2.076l-0.78,2.076h-1.06l-0.945-3.861 c-0.205-0.011-0.359-0.068-0.464-0.173s-0.156-0.235-0.156-0.393c0-0.165,0.058-0.3,0.173-0.404s0.309-0.156,0.579-0.156h1.049 c0.271,0,0.465,0.052,0.58,0.156s0.173,0.241,0.173,0.409c0,0.169-0.065,0.312-0.197,0.429c-0.1,0.088-0.293,0.132-0.583,0.132 l0.429,1.785l0.697-1.829h1l0.703,1.829l0.439-1.785c-0.278,0-0.461-0.027-0.549-0.082c-0.176-0.114-0.264-0.275-0.264-0.483 c0-0.165,0.058-0.3,0.173-0.404s0.309-0.156,0.579-0.156h1.061C149.55,13.043,149.744,13.095,149.859,13.2z M154.021,16.932 c0.15,0.144,0.227,0.32,0.227,0.533c0,0.212-0.076,0.39-0.227,0.533c-0.15,0.143-0.355,0.214-0.619,0.214s-0.471-0.071-0.622-0.214 c-0.15-0.144-0.226-0.321-0.226-0.533c0-0.213,0.075-0.39,0.226-0.533c0.15-0.143,0.358-0.214,0.622-0.214 S153.87,16.79,154.021,16.932z M161.272,12.098h-1.346v-1.191h1.346V12.098z M158.515,13.043h3.422v5.224 c0,0.396-0.084,0.741-0.25,1.035c-0.166,0.295-0.422,0.549-0.766,0.761c-0.344,0.213-0.732,0.319-1.164,0.319h-1.275 c-0.271,0-0.465-0.053-0.58-0.157c-0.115-0.104-0.172-0.238-0.172-0.403c0-0.169,0.057-0.305,0.172-0.409s0.309-0.156,0.58-0.156 h1.242c0.344,0,0.611-0.094,0.801-0.28c0.191-0.188,0.287-0.423,0.287-0.709v-4.098h-2.297c-0.271,0-0.465-0.053-0.58-0.156 c-0.115-0.104-0.172-0.241-0.172-0.409c0-0.165,0.057-0.3,0.172-0.404S158.243,13.043,158.515,13.043z M167.177,12.895 c-0.297,0-0.586,0.044-0.867,0.132c-0.283,0.088-0.555,0.222-0.818,0.401v-0.385h-1.318c-0.271,0-0.465,0.052-0.58,0.156 s-0.174,0.239-0.174,0.404c0,0.168,0.059,0.305,0.174,0.409c0.115,0.104,0.309,0.156,0.58,0.156h0.191v5.087h-0.191 c-0.268,0-0.461,0.052-0.578,0.156s-0.176,0.24-0.176,0.409c0,0.165,0.059,0.3,0.174,0.403c0.115,0.104,0.309,0.157,0.58,0.157 h1.994c0.27,0,0.463-0.053,0.578-0.157c0.115-0.104,0.174-0.238,0.174-0.403c0-0.169-0.059-0.305-0.174-0.409 s-0.309-0.156-0.578-0.156h-0.676v-1.846c0.277,0.168,0.559,0.295,0.84,0.379s0.568,0.126,0.857,0.126 c0.67,0,1.271-0.201,1.807-0.604c0.641-0.483,0.961-1.097,0.961-1.84c0-0.674-0.27-1.271-0.812-1.794 C168.603,13.156,167.946,12.895,167.177,12.895z M168.353,16.367c-0.318,0.282-0.717,0.423-1.191,0.423 c-0.473,0-0.869-0.142-1.189-0.426c-0.32-0.283-0.48-0.576-0.48-0.876c0-0.268,0.111-0.546,0.334-0.835 c0.33-0.421,0.775-0.632,1.336-0.632c0.348,0,0.65,0.082,0.908,0.244c0.258,0.163,0.449,0.366,0.574,0.61 c0.125,0.243,0.188,0.443,0.188,0.602C168.831,15.788,168.671,16.084,168.353,16.367z M176.196,13.043h-1.318v0.335 c-0.234-0.169-0.48-0.294-0.738-0.376c-0.258-0.083-0.529-0.124-0.816-0.124c-0.766,0-1.406,0.256-1.922,0.767 s-0.775,1.144-0.775,1.897c0,0.751,0.26,1.382,0.775,1.893s1.156,0.767,1.922,0.767c0.271,0,0.537-0.041,0.795-0.121 c0.258-0.081,0.512-0.201,0.76-0.362v0.549c0,0.286-0.096,0.521-0.285,0.709c-0.191,0.187-0.457,0.28-0.803,0.28h-1.24 c-0.271,0-0.465,0.052-0.58,0.156s-0.174,0.24-0.174,0.409c0,0.165,0.059,0.3,0.174,0.403c0.115,0.104,0.309,0.157,0.58,0.157h1.273 c0.432,0,0.82-0.106,1.164-0.319c0.346-0.212,0.6-0.466,0.768-0.761c0.166-0.294,0.25-0.64,0.25-1.035v-4.098h0.191 c0.271,0,0.465-0.053,0.58-0.156c0.115-0.104,0.174-0.239,0.174-0.404c0-0.168-0.059-0.305-0.174-0.409 S176.468,13.043,176.196,13.043z M174.415,16.617c-0.307,0.302-0.674,0.453-1.102,0.453c-0.43,0-0.797-0.151-1.102-0.453 c-0.307-0.303-0.459-0.662-0.459-1.079c0-0.414,0.152-0.773,0.459-1.077c0.305-0.304,0.672-0.456,1.102-0.456 c0.428,0,0.795,0.152,1.102,0.456c0.305,0.304,0.457,0.663,0.457,1.077C174.872,15.955,174.72,16.314,174.415,16.617z" fill="#0d0d0d"/></g></svg>