<?xml version="1.0" encoding="UTF-8" standalone="no"?><svg xmlns="http://www.w3.org/2000/svg" xmlns:xlink="http://www.w3.org/1999/xlink" fill="#000000" height="398.2" preserveAspectRatio="xMidYMid meet" version="1" viewBox="0.0 0.0 350.8 398.2" width="350.8" zoomAndPan="magnify"><g id="change1_1"><path d="M0.5,0.5v397.176h349.771V0.5H0.5z M345.138,391.936H6.198V52.995h338.941V391.936z" fill="#f2f2f2"/></g><g><linearGradient gradientUnits="userSpaceOnUse" id="a" x1="6.197" x2="345.138" xlink:actuate="onLoad" xlink:show="other" xlink:type="simple" y1="16.09" y2="16.09"><stop offset="0" stop-color="#e0d2ef"/><stop offset="1" stop-color="#ff80b4"/></linearGradient><path d="M345.138,26.994H6.198V5.186h338.941V26.994z" fill="url(#a)"/></g><g id="change2_1"><path d="M305.776,22.785h-13.391V9.394h13.391V22.785z M322.809,9.394h-13.391v13.391h13.391V9.394z M339.841,9.394 H326.45v13.391h13.391V9.394z" fill="#fa643f"/></g><g id="change3_1"><path d="M350.271,0H0.5C0.224,0,0,0.224,0,0.5v397.176c0,0.276,0.224,0.5,0.5,0.5h349.771 c0.276,0,0.5-0.224,0.5-0.5V0.5C350.771,0.224,350.548,0,350.271,0z M349.771,397.176H1V1h348.771V397.176z M6.198,27.494h338.94 c0.276,0,0.5-0.224,0.5-0.5V5.186c0-0.276-0.224-0.5-0.5-0.5H6.198c-0.276,0-0.5,0.224-0.5,0.5v21.809 C5.698,27.271,5.921,27.494,6.198,27.494z M6.698,5.686h337.94v20.809H6.698V5.686z M6.198,392.436h338.94 c0.276,0,0.5-0.224,0.5-0.5V52.996c0-0.276-0.224-0.5-0.5-0.5H6.198c-0.276,0-0.5,0.224-0.5,0.5v338.94 C5.698,392.212,5.921,392.436,6.198,392.436z M6.698,53.496h337.94v337.94H6.698V53.496z M16.391,38.544 c-0.111,0.123-0.257,0.185-0.437,0.185c-0.176,0-0.319-0.061-0.431-0.182s-0.167-0.326-0.167-0.615v-0.633h-3.064v1.74h1.055 c0-0.312,0.029-0.514,0.088-0.604c0.121-0.191,0.293-0.287,0.516-0.287c0.176,0,0.319,0.062,0.431,0.185s0.167,0.329,0.167,0.618 v1.383c0,0.289-0.056,0.495-0.167,0.618s-0.257,0.185-0.437,0.185c-0.219,0-0.389-0.096-0.51-0.287 c-0.059-0.09-0.088-0.293-0.088-0.609h-1.055v1.758h1.23c0.289,0,0.495,0.056,0.618,0.167s0.185,0.257,0.185,0.437 c0,0.176-0.062,0.319-0.185,0.431s-0.329,0.167-0.618,0.167h-2.619c-0.289,0-0.495-0.056-0.618-0.167s-0.185-0.257-0.185-0.437 c0-0.176,0.062-0.319,0.188-0.431s0.33-0.167,0.615-0.167h0.188v-4.699h-0.188c-0.289,0-0.495-0.056-0.618-0.167 s-0.185-0.257-0.185-0.437s0.062-0.325,0.185-0.437s0.329-0.167,0.618-0.167l5.654,0.006v1.834 C16.558,38.217,16.502,38.421,16.391,38.544z M20.747,35.6v1.271h-1.43V35.6H20.747z M19.71,41.998V39.08h-0.967 c-0.285,0-0.49-0.056-0.615-0.167s-0.188-0.257-0.188-0.437c0-0.176,0.062-0.319,0.185-0.431s0.329-0.167,0.618-0.167h2.168v4.119 h1.441c0.289,0,0.495,0.056,0.618,0.167s0.185,0.257,0.185,0.437c0,0.176-0.062,0.319-0.185,0.431s-0.329,0.167-0.618,0.167h-4.084 c-0.289,0-0.495-0.056-0.618-0.167s-0.185-0.257-0.185-0.437c0-0.176,0.062-0.319,0.185-0.431s0.329-0.167,0.618-0.167H19.71z M26.917,41.998v-5.197H25.95c-0.285,0-0.49-0.056-0.615-0.167s-0.188-0.257-0.188-0.437c0-0.176,0.062-0.319,0.185-0.431 S25.661,35.6,25.95,35.6h2.168v6.398h1.441c0.289,0,0.495,0.056,0.618,0.167s0.185,0.257,0.185,0.437 c0,0.176-0.062,0.319-0.185,0.431s-0.329,0.167-0.618,0.167h-4.084c-0.289,0-0.495-0.056-0.618-0.167s-0.185-0.257-0.185-0.437 c0-0.176,0.062-0.319,0.185-0.431s0.329-0.167,0.618-0.167H26.917z M37.733,40.639c0-0.391-0.062-0.734-0.188-1.031 c-0.184-0.426-0.416-0.783-0.697-1.072c-0.199-0.199-0.503-0.385-0.911-0.557s-0.856-0.258-1.345-0.258 c-0.812,0-1.53,0.265-2.153,0.794s-0.935,1.216-0.935,2.06c0,0.793,0.288,1.461,0.864,2.004s1.345,0.814,2.306,0.814 c0.559,0,1.141-0.065,1.746-0.196s0.986-0.269,1.143-0.413c0.117-0.109,0.176-0.242,0.176-0.398c0-0.172-0.055-0.314-0.164-0.428 s-0.244-0.17-0.404-0.17c-0.117,0-0.328,0.039-0.633,0.117c-0.738,0.191-1.33,0.287-1.775,0.287c-0.543,0-0.974-0.096-1.292-0.287 s-0.54-0.443-0.665-0.756h4.928V40.639z M32.841,39.947c0.188-0.344,0.43-0.601,0.727-0.771s0.648-0.255,1.055-0.255 c0.41,0,0.764,0.085,1.061,0.255s0.537,0.427,0.721,0.771H32.841z M53.6,43.199h-5.654c-0.289,0-0.495-0.056-0.618-0.167 s-0.185-0.257-0.185-0.437c0-0.176,0.062-0.319,0.188-0.431s0.33-0.167,0.615-0.167h0.188v-4.699h-0.188 c-0.289,0-0.495-0.056-0.618-0.167s-0.185-0.257-0.185-0.437s0.062-0.325,0.185-0.437s0.329-0.167,0.618-0.167l5.391,0.006v1.828 c0,0.285-0.055,0.489-0.164,0.612s-0.254,0.185-0.434,0.185s-0.325-0.061-0.437-0.182s-0.167-0.326-0.167-0.615v-0.627h-2.801 v1.734h1.055c0-0.312,0.029-0.514,0.088-0.604c0.121-0.191,0.293-0.287,0.516-0.287c0.176,0,0.319,0.062,0.431,0.185 s0.167,0.329,0.167,0.618v1.383c0,0.262-0.031,0.438-0.094,0.527c-0.125,0.184-0.293,0.275-0.504,0.275 c-0.223,0-0.395-0.096-0.516-0.287c-0.059-0.09-0.088-0.293-0.088-0.609h-1.055v1.764h3.064v-0.65c0-0.289,0.056-0.495,0.167-0.618 s0.257-0.185,0.437-0.185c0.176,0,0.319,0.062,0.431,0.185s0.167,0.329,0.167,0.618V43.199z M60.73,43.199 c0.289,0,0.495-0.056,0.618-0.167s0.185-0.255,0.185-0.431c0-0.18-0.062-0.325-0.188-0.437s-0.33-0.167-0.615-0.167h-0.205V35.6 h-1.406c-0.289,0-0.495,0.056-0.618,0.167s-0.185,0.257-0.185,0.437c0,0.176,0.062,0.319,0.185,0.431s0.329,0.167,0.618,0.167 h0.205v1.494c-0.293-0.191-0.59-0.335-0.891-0.431s-0.607-0.144-0.92-0.144c-0.832,0-1.537,0.287-2.115,0.861 s-0.867,1.268-0.867,2.08c0,0.777,0.275,1.427,0.826,1.948s1.277,0.782,2.18,0.782c0.32,0,0.63-0.041,0.929-0.123 s0.585-0.203,0.858-0.363v0.293H60.73z M58.85,41.767c-0.316,0.283-0.758,0.425-1.324,0.425c-0.57,0-1.012-0.142-1.324-0.425 s-0.469-0.646-0.469-1.087c0-0.484,0.174-0.898,0.521-1.242s0.771-0.516,1.271-0.516c0.504,0,0.93,0.172,1.277,0.516 s0.521,0.764,0.521,1.26C59.324,41.127,59.166,41.483,58.85,41.767z M65.4,35.6v1.271h-1.43V35.6H65.4z M64.363,41.998V39.08 h-0.967c-0.285,0-0.49-0.056-0.615-0.167s-0.188-0.257-0.188-0.437c0-0.176,0.062-0.319,0.185-0.431s0.329-0.167,0.618-0.167h2.168 v4.119h1.441c0.289,0,0.495,0.056,0.618,0.167s0.185,0.257,0.185,0.437c0,0.176-0.062,0.319-0.185,0.431s-0.329,0.167-0.618,0.167 h-4.084c-0.289,0-0.495-0.056-0.618-0.167s-0.185-0.257-0.185-0.437c0-0.176,0.062-0.319,0.185-0.431s0.329-0.167,0.618-0.167 H64.363z M70.674,41.723V39.08H70.24c-0.289,0-0.495-0.056-0.618-0.167s-0.185-0.257-0.185-0.437c0-0.176,0.062-0.319,0.185-0.431 s0.329-0.167,0.618-0.167h0.434v-1.084c0-0.289,0.056-0.495,0.167-0.618s0.257-0.185,0.437-0.185c0.176,0,0.319,0.062,0.431,0.185 s0.167,0.329,0.167,0.618v1.084h2.221c0.289,0,0.495,0.056,0.618,0.167s0.185,0.257,0.185,0.437c0,0.176-0.062,0.319-0.185,0.431 s-0.329,0.167-0.618,0.167h-2.221v2.408c0,0.258,0.053,0.428,0.158,0.51c0.164,0.129,0.457,0.193,0.879,0.193 c0.613,0,1.18-0.131,1.699-0.393c0.199-0.102,0.355-0.152,0.469-0.152c0.156,0,0.292,0.059,0.407,0.176s0.173,0.26,0.173,0.428 c0,0.156-0.062,0.291-0.188,0.404c-0.191,0.184-0.569,0.353-1.134,0.507s-1.04,0.231-1.427,0.231c-0.746,0-1.306-0.161-1.679-0.483 S70.674,42.191,70.674,41.723z M91.19,37.299l-2.467,5.9h-1.154l-2.461-5.9c-0.281,0-0.467-0.031-0.557-0.094 c-0.188-0.121-0.281-0.291-0.281-0.51c0-0.18,0.062-0.325,0.185-0.437s0.329-0.167,0.618-0.167l1.623,0.006 c0.285,0,0.489,0.055,0.612,0.164s0.185,0.254,0.185,0.434s-0.061,0.325-0.182,0.437s-0.326,0.167-0.615,0.167h-0.281l1.729,4.148 l1.74-4.148h-0.275c-0.289,0-0.495-0.056-0.618-0.167s-0.185-0.257-0.185-0.437s0.062-0.325,0.185-0.437s0.329-0.167,0.618-0.167 l1.611,0.006c0.289,0,0.495,0.055,0.618,0.164s0.185,0.254,0.185,0.434c0,0.215-0.094,0.385-0.281,0.51 C91.651,37.268,91.468,37.299,91.19,37.299z M94.741,41.998V39.08h-0.967c-0.285,0-0.49-0.056-0.615-0.167 s-0.188-0.257-0.188-0.437c0-0.176,0.062-0.319,0.185-0.431s0.329-0.167,0.618-0.167h2.168v4.119h1.441 c0.289,0,0.495,0.056,0.618,0.167s0.185,0.257,0.185,0.437c0,0.176-0.062,0.319-0.185,0.431s-0.329,0.167-0.618,0.167H93.3 c-0.289,0-0.495-0.056-0.618-0.167s-0.185-0.257-0.185-0.437c0-0.176,0.062-0.319,0.185-0.431s0.329-0.167,0.618-0.167H94.741z M95.778,35.6v1.271h-1.43V35.6H95.778z M105.563,40.639c0-0.391-0.062-0.734-0.188-1.031c-0.184-0.426-0.416-0.783-0.697-1.072 c-0.199-0.199-0.503-0.385-0.911-0.557s-0.856-0.258-1.345-0.258c-0.812,0-1.53,0.265-2.153,0.794s-0.935,1.216-0.935,2.06 c0,0.793,0.288,1.461,0.864,2.004s1.345,0.814,2.306,0.814c0.559,0,1.141-0.065,1.746-0.196s0.986-0.269,1.143-0.413 c0.117-0.109,0.176-0.242,0.176-0.398c0-0.172-0.055-0.314-0.164-0.428s-0.244-0.17-0.404-0.17c-0.117,0-0.328,0.039-0.633,0.117 c-0.738,0.191-1.33,0.287-1.775,0.287c-0.543,0-0.974-0.096-1.292-0.287s-0.54-0.443-0.665-0.756h4.928V40.639z M100.671,39.947 c0.188-0.344,0.43-0.601,0.727-0.771s0.648-0.255,1.055-0.255c0.41,0,0.764,0.085,1.061,0.255s0.537,0.427,0.721,0.771H100.671z M108.64,38.939c-0.105,0.094-0.312,0.141-0.621,0.141l0.457,1.904l0.744-1.951h1.066l0.75,1.951l0.469-1.904 c-0.297,0-0.492-0.029-0.586-0.088c-0.188-0.121-0.281-0.293-0.281-0.516c0-0.176,0.062-0.319,0.185-0.431s0.329-0.167,0.618-0.167 h1.131c0.289,0,0.495,0.056,0.618,0.167s0.185,0.257,0.185,0.437c0,0.16-0.054,0.296-0.161,0.407s-0.267,0.175-0.478,0.19 l-0.984,4.119h-1.113l-0.879-2.215l-0.832,2.215h-1.131l-1.008-4.119c-0.219-0.012-0.384-0.073-0.495-0.185 s-0.167-0.251-0.167-0.419c0-0.176,0.062-0.319,0.185-0.431s0.329-0.167,0.618-0.167h1.119c0.289,0,0.495,0.056,0.618,0.167 s0.185,0.257,0.185,0.437S108.78,38.814,108.64,38.939z M128.874,42.602c0,0.176-0.062,0.319-0.185,0.431s-0.329,0.167-0.618,0.167 h-1.471c-0.289,0-0.495-0.056-0.618-0.167s-0.185-0.257-0.185-0.437c0-0.176,0.062-0.319,0.188-0.431s0.33-0.167,0.615-0.167h0.188 v-1.74h-2.566v1.74h0.188c0.289,0,0.495,0.056,0.618,0.167s0.185,0.257,0.185,0.437c0,0.176-0.062,0.319-0.185,0.431 s-0.329,0.167-0.618,0.167h-1.471c-0.289,0-0.495-0.056-0.618-0.167s-0.185-0.257-0.185-0.437c0-0.219,0.096-0.389,0.287-0.51 c0.094-0.062,0.293-0.092,0.598-0.088v-4.699c-0.211-0.02-0.37-0.084-0.478-0.193s-0.161-0.246-0.161-0.41 c0-0.18,0.062-0.325,0.185-0.437s0.329-0.167,0.618-0.167l1.225,0.006c0.289,0,0.495,0.055,0.618,0.164s0.185,0.254,0.185,0.434 s-0.062,0.325-0.185,0.437s-0.329,0.167-0.618,0.167h-0.188v1.758h2.566v-1.758h-0.188c-0.289,0-0.495-0.056-0.618-0.167 s-0.185-0.257-0.185-0.437s0.062-0.325,0.185-0.437s0.329-0.167,0.618-0.167l1.225,0.006c0.289,0,0.495,0.055,0.618,0.164 s0.185,0.254,0.185,0.434c0,0.164-0.054,0.301-0.161,0.41s-0.267,0.174-0.478,0.193v4.699c0.309,0,0.508,0.029,0.598,0.088 C128.778,42.207,128.874,42.379,128.874,42.602z M135.688,40.639c0-0.391-0.062-0.734-0.188-1.031 c-0.184-0.426-0.416-0.783-0.697-1.072c-0.199-0.199-0.503-0.385-0.911-0.557s-0.856-0.258-1.345-0.258 c-0.812,0-1.53,0.265-2.153,0.794s-0.935,1.216-0.935,2.06c0,0.793,0.288,1.461,0.864,2.004s1.345,0.814,2.306,0.814 c0.559,0,1.141-0.065,1.746-0.196s0.986-0.269,1.143-0.413c0.117-0.109,0.176-0.242,0.176-0.398c0-0.172-0.055-0.314-0.164-0.428 s-0.244-0.17-0.404-0.17c-0.117,0-0.328,0.039-0.633,0.117c-0.738,0.191-1.33,0.287-1.775,0.287c-0.543,0-0.974-0.096-1.292-0.287 s-0.54-0.443-0.665-0.756h4.928V40.639z M130.796,39.947c0.188-0.344,0.43-0.601,0.727-0.771s0.648-0.255,1.055-0.255 c0.41,0,0.764,0.085,1.061,0.255s0.537,0.427,0.721,0.771H130.796z M139.274,41.998v-5.197h-0.967c-0.285,0-0.49-0.056-0.615-0.167 s-0.188-0.257-0.188-0.437c0-0.176,0.062-0.319,0.185-0.431s0.329-0.167,0.618-0.167h2.168v6.398h1.441 c0.289,0,0.495,0.056,0.618,0.167s0.185,0.257,0.185,0.437c0,0.176-0.062,0.319-0.185,0.431s-0.329,0.167-0.618,0.167h-4.084 c-0.289,0-0.495-0.056-0.618-0.167s-0.185-0.257-0.185-0.437c0-0.176,0.062-0.319,0.185-0.431s0.329-0.167,0.618-0.167H139.274z M146.481,42.941c0.301,0.09,0.605,0.135,0.914,0.135c0.715,0,1.357-0.215,1.928-0.645c0.684-0.516,1.025-1.17,1.025-1.963 c0-0.719-0.289-1.356-0.867-1.913s-1.277-0.835-2.098-0.835c-0.316,0-0.625,0.047-0.926,0.141s-0.592,0.236-0.873,0.428v-0.41 h-1.406c-0.289,0-0.495,0.056-0.618,0.167s-0.185,0.255-0.185,0.431c0,0.18,0.062,0.325,0.185,0.437s0.329,0.167,0.618,0.167h0.205 v5.426h-0.205c-0.285,0-0.49,0.056-0.615,0.167s-0.188,0.257-0.188,0.437c0,0.176,0.062,0.319,0.185,0.431s0.329,0.167,0.618,0.167 h2.127c0.289,0,0.495-0.056,0.618-0.167s0.185-0.255,0.185-0.431c0-0.18-0.062-0.325-0.185-0.437s-0.329-0.167-0.618-0.167h-0.721 v-1.969C145.882,42.717,146.181,42.852,146.481,42.941z M145.942,39.596c0.352-0.449,0.826-0.674,1.424-0.674 c0.371,0,0.694,0.087,0.97,0.261s0.479,0.391,0.612,0.65s0.199,0.474,0.199,0.642c0,0.332-0.17,0.648-0.51,0.949 s-0.764,0.451-1.271,0.451c-0.504,0-0.927-0.151-1.269-0.454s-0.513-0.614-0.513-0.935 C145.585,40.201,145.704,39.904,145.942,39.596z M15.967,45.707c0,0.276-0.224,0.5-0.5,0.5h-5.389c-0.276,0-0.5-0.224-0.5-0.5 s0.224-0.5,0.5-0.5h5.389C15.743,45.207,15.967,45.431,15.967,45.707z M53.062,45.207c0.276,0,0.5,0.224,0.5,0.5 s-0.224,0.5-0.5,0.5h-5.389c-0.276,0-0.5-0.224-0.5-0.5s0.224-0.5,0.5-0.5H53.062z M90.687,45.207c0.276,0,0.5,0.224,0.5,0.5 s-0.224,0.5-0.5,0.5h-5.388c-0.276,0-0.5-0.224-0.5-0.5s0.224-0.5,0.5-0.5H90.687z M128.811,45.707c0,0.276-0.224,0.5-0.5,0.5 h-5.389c-0.276,0-0.5-0.224-0.5-0.5s0.224-0.5,0.5-0.5h5.389C128.587,45.207,128.811,45.431,128.811,45.707z M305.776,8.894 h-13.392c-0.276,0-0.5,0.224-0.5,0.5v13.392c0,0.276,0.224,0.5,0.5,0.5h13.392c0.276,0,0.5-0.224,0.5-0.5V9.394 C306.276,9.118,306.053,8.894,305.776,8.894z M305.276,22.286h-12.392V9.894h12.392V22.286z M322.809,8.894h-13.392 c-0.276,0-0.5,0.224-0.5,0.5v13.392c0,0.276,0.224,0.5,0.5,0.5h13.392c0.276,0,0.5-0.224,0.5-0.5V9.394 C323.309,9.118,323.085,8.894,322.809,8.894z M322.309,22.286h-12.392V9.894h12.392V22.286z M339.841,8.894h-13.392 c-0.276,0-0.5,0.224-0.5,0.5v13.392c0,0.276,0.224,0.5,0.5,0.5h13.392c0.276,0,0.5-0.224,0.5-0.5V9.394 C340.341,9.118,340.117,8.894,339.841,8.894z M339.341,22.286h-12.392V9.894h12.392V22.286z M312.055,20.734h8.269 c0.276,0,0.5-0.224,0.5-0.5v-8.269c0-0.276-0.224-0.5-0.5-0.5h-8.269c-0.276,0-0.5,0.224-0.5,0.5v8.269 C311.555,20.51,311.778,20.734,312.055,20.734z M312.555,19.734v-5.836h7.269v5.836H312.555z M294.446,20.234 c0-0.276,0.224-0.5,0.5-0.5h8.269c0.276,0,0.5,0.224,0.5,0.5s-0.224,0.5-0.5,0.5h-8.269 C294.67,20.734,294.446,20.51,294.446,20.234z M329.416,19.112l3.022-3.022l-3.022-3.022c-0.195-0.195-0.195-0.512,0-0.707 s0.512-0.195,0.707,0l3.022,3.022l3.022-3.022c0.195-0.195,0.512-0.195,0.707,0s0.195,0.512,0,0.707l-3.022,3.022l3.022,3.022 c0.195,0.195,0.195,0.512,0,0.707c-0.098,0.098-0.226,0.146-0.354,0.146s-0.256-0.049-0.354-0.146l-3.022-3.022l-3.022,3.022 c-0.098,0.098-0.226,0.146-0.354,0.146s-0.256-0.049-0.354-0.146C329.221,19.624,329.221,19.307,329.416,19.112z" fill="#0d0d0d"/></g></svg>