<?xml version="1.0" encoding="UTF-8" standalone="no"?><svg xmlns="http://www.w3.org/2000/svg" xmlns:xlink="http://www.w3.org/1999/xlink" fill="#000000" height="431.4" preserveAspectRatio="xMidYMid meet" version="1" viewBox="0.0 0.0 479.3 431.4" width="479.3" zoomAndPan="magnify"><g><linearGradient gradientUnits="userSpaceOnUse" id="a" x1="0.5" x2="478.751" xlink:actuate="onLoad" xlink:show="other" xlink:type="simple" y1="215.692" y2="215.692"><stop offset="0" stop-color="#ff80b4"/><stop offset="1" stop-color="#604abd"/></linearGradient><path d="M164.383,21.802V9.513c0-4.978-4.035-9.013-9.013-9.013H9.513C4.535,0.5,0.5,4.535,0.5,9.513v12.289 v409.082h478.251V21.802H164.383z M471.624,421.084H7.627V52.477h463.996V421.084z" fill="url(#a)"/></g><g id="change1_1"><path d="M434.065,46.814H84.287c-5.106,0-9.244-4.139-9.244-9.244v-0.846c0-5.106,4.139-9.244,9.244-9.244h349.779 c5.106,0,9.244,4.139,9.244,9.244v0.846C443.31,42.675,439.171,46.814,434.065,46.814z M471.624,52.477H461.03v368.608h10.593 V52.477z M16.57,13.843h-0.258c-0.254,0-0.436,0.049-0.543,0.147c-0.108,0.098-0.162,0.224-0.162,0.378 c0,0.158,0.054,0.286,0.162,0.383c0.107,0.098,0.289,0.147,0.543,0.147h1.421c0.255,0,0.435-0.049,0.541-0.147 c0.106-0.098,0.16-0.224,0.16-0.378c0-0.185-0.079-0.334-0.237-0.448c-0.079-0.055-0.242-0.083-0.489-0.083l-2.101-5.186 l-2.281-0.005c-0.255,0-0.436,0.049-0.544,0.147c-0.107,0.098-0.162,0.226-0.162,0.384c0,0.158,0.055,0.286,0.162,0.383 c0.108,0.098,0.289,0.147,0.544,0.147h0.689l-1.658,4.13c-0.261-0.007-0.448,0.04-0.562,0.139s-0.17,0.228-0.17,0.386 c0,0.158,0.055,0.286,0.163,0.383c0.107,0.098,0.289,0.147,0.543,0.147h1.421c0.254,0,0.436-0.049,0.544-0.147 c0.107-0.098,0.162-0.224,0.162-0.378c0-0.158-0.055-0.286-0.162-0.383c-0.108-0.098-0.29-0.147-0.544-0.147h-0.257l0.257-0.644 h2.564L16.57,13.843z M14.176,12.144l0.854-2.091l0.85,2.091H14.176z M22.137,14.898h0.979l0.865-3.62 c0.186-0.014,0.325-0.069,0.42-0.167c0.094-0.098,0.142-0.217,0.142-0.358c0-0.158-0.055-0.286-0.162-0.383 c-0.108-0.098-0.29-0.147-0.544-0.147h-0.993c-0.255,0-0.436,0.049-0.544,0.147c-0.107,0.098-0.162,0.224-0.162,0.378 c0,0.195,0.083,0.347,0.247,0.453c0.083,0.051,0.254,0.077,0.516,0.077l-0.412,1.673l-0.659-1.714h-0.938l-0.654,1.714 l-0.401-1.673c0.271,0,0.453-0.041,0.546-0.124c0.124-0.11,0.186-0.244,0.186-0.402c0-0.158-0.054-0.286-0.162-0.383 c-0.108-0.098-0.289-0.147-0.543-0.147h-0.984c-0.254,0-0.435,0.049-0.543,0.147c-0.108,0.098-0.162,0.224-0.162,0.378 c0,0.147,0.049,0.27,0.146,0.368c0.098,0.098,0.243,0.152,0.436,0.162l0.886,3.62h0.993l0.731-1.947L22.137,14.898z M30.334,12.648 c0-0.343-0.055-0.645-0.164-0.906c-0.162-0.374-0.366-0.688-0.613-0.942c-0.175-0.175-0.442-0.338-0.801-0.489 c-0.358-0.151-0.753-0.227-1.182-0.227c-0.714,0-1.345,0.233-1.893,0.698c-0.548,0.465-0.821,1.069-0.821,1.81 c0,0.697,0.253,1.284,0.76,1.761c0.506,0.477,1.182,0.716,2.026,0.716c0.49,0,1.002-0.058,1.534-0.172 c0.532-0.115,0.867-0.236,1.004-0.363c0.104-0.096,0.155-0.213,0.155-0.35c0-0.151-0.049-0.276-0.145-0.376 s-0.215-0.149-0.355-0.149c-0.103,0-0.288,0.035-0.556,0.103c-0.649,0.168-1.169,0.252-1.561,0.252 c-0.478,0-0.855-0.084-1.136-0.252c-0.279-0.168-0.475-0.39-0.584-0.664h4.33V12.648z M26.034,12.041 c0.165-0.302,0.378-0.528,0.639-0.677s0.57-0.224,0.927-0.224c0.36,0,0.672,0.075,0.933,0.224s0.472,0.375,0.633,0.677H26.034z M35.34,11.772c0.097,0.079,0.208,0.119,0.335,0.119c0.188,0,0.338-0.079,0.448-0.237c0.055-0.083,0.082-0.239,0.082-0.469v-0.257 c0-0.254-0.048-0.435-0.145-0.543c-0.096-0.108-0.216-0.162-0.36-0.162c-0.048,0-0.101,0.012-0.157,0.036s-0.117,0.06-0.183,0.108 c-0.206-0.096-0.421-0.167-0.646-0.213c-0.226-0.046-0.46-0.07-0.703-0.07c-0.7,0-1.267,0.172-1.699,0.515 c-0.319,0.25-0.479,0.564-0.479,0.942c0,0.367,0.143,0.676,0.428,0.927c0.285,0.254,0.852,0.426,1.699,0.515 c0.569,0.062,0.945,0.137,1.128,0.227c0.182,0.089,0.272,0.203,0.272,0.34c0,0.083-0.063,0.161-0.19,0.237 c-0.268,0.151-0.644,0.227-1.128,0.227c-0.295,0-0.556-0.035-0.782-0.105s-0.421-0.174-0.582-0.312 c-0.048-0.172-0.115-0.293-0.201-0.363s-0.192-0.105-0.319-0.105c-0.157,0-0.285,0.054-0.383,0.162 c-0.099,0.108-0.147,0.29-0.147,0.543v0.355c0,0.254,0.049,0.435,0.147,0.543c0.098,0.108,0.229,0.162,0.394,0.162 c0.062,0,0.122-0.012,0.18-0.036c0.059-0.024,0.113-0.059,0.165-0.103c0.217,0.103,0.454,0.181,0.714,0.234 c0.259,0.053,0.541,0.08,0.847,0.08c0.762,0,1.382-0.184,1.859-0.551c0.333-0.254,0.499-0.57,0.499-0.948 c0-0.278-0.098-0.542-0.293-0.793c-0.196-0.25-0.475-0.439-0.835-0.566c-0.274-0.096-0.762-0.192-1.462-0.289 c-0.382-0.051-0.627-0.104-0.736-0.16c-0.145-0.075-0.217-0.152-0.217-0.231c0-0.069,0.054-0.132,0.16-0.191 c0.24-0.134,0.564-0.201,0.973-0.201c0.206,0,0.403,0.027,0.593,0.08c0.188,0.053,0.369,0.133,0.54,0.239 C35.182,11.589,35.244,11.694,35.34,11.772z M42.745,11.404c-0.227-0.403-0.562-0.724-1.007-0.963 c-0.444-0.238-0.907-0.358-1.388-0.358c-0.477,0-0.935,0.117-1.372,0.35c-0.438,0.234-0.773,0.554-1.007,0.96 s-0.351,0.821-0.351,1.244c0,0.416,0.115,0.813,0.346,1.195c0.229,0.381,0.564,0.682,1.004,0.904 c0.439,0.221,0.899,0.332,1.38,0.332c0.484,0,0.948-0.112,1.394-0.337c0.444-0.225,0.779-0.527,1.004-0.906 s0.337-0.771,0.337-1.177C43.085,12.223,42.972,11.808,42.745,11.404z M41.546,13.583c-0.323,0.287-0.722,0.43-1.195,0.43 c-0.47,0-0.866-0.143-1.189-0.43c-0.322-0.287-0.484-0.595-0.484-0.924c0-0.401,0.16-0.755,0.479-1.061s0.718-0.458,1.194-0.458 c0.543,0,0.98,0.192,1.313,0.577c0.243,0.285,0.365,0.598,0.365,0.938C42.029,12.986,41.868,13.296,41.546,13.583z M44.038,10.223 c-0.254,0-0.435,0.049-0.543,0.147c-0.108,0.098-0.162,0.224-0.162,0.378c0,0.154,0.053,0.281,0.159,0.381s0.271,0.149,0.494,0.149 v2.564c-0.223,0-0.388,0.049-0.494,0.147c-0.106,0.098-0.159,0.224-0.159,0.378c0,0.158,0.054,0.286,0.162,0.383 c0.108,0.098,0.289,0.147,0.543,0.147h0.953c0.254,0,0.435-0.049,0.543-0.147c0.108-0.098,0.162-0.224,0.162-0.378 c0-0.154-0.054-0.281-0.162-0.381s-0.272-0.149-0.492-0.149v-2.127c0.169-0.23,0.312-0.383,0.433-0.461 c0.12-0.077,0.242-0.116,0.366-0.116c0.12,0,0.21,0.032,0.271,0.095c0.06,0.063,0.09,0.174,0.09,0.333v3.332h1.004 c0.254,0,0.435-0.049,0.541-0.147c0.106-0.098,0.159-0.224,0.159-0.378c0-0.154-0.053-0.281-0.159-0.381s-0.27-0.149-0.489-0.149 v-2.127c0.182-0.237,0.336-0.398,0.463-0.484c0.1-0.062,0.208-0.093,0.325-0.093c0.12,0,0.209,0.031,0.268,0.093 s0.088,0.173,0.088,0.335v3.332h1.004c0.254,0,0.434-0.049,0.54-0.147c0.106-0.098,0.16-0.224,0.16-0.378 c0-0.154-0.054-0.281-0.16-0.381s-0.27-0.149-0.488-0.149v-2.364c0-0.446-0.162-0.807-0.484-1.081 c-0.244-0.209-0.562-0.314-0.953-0.314c-0.195,0-0.387,0.037-0.574,0.111c-0.187,0.074-0.371,0.186-0.554,0.337 c-0.144-0.151-0.291-0.265-0.442-0.34c-0.151-0.076-0.304-0.113-0.458-0.113c-0.183,0-0.343,0.032-0.481,0.095 c-0.14,0.063-0.295,0.179-0.467,0.348v-0.299H44.038z M55.649,12.648c0-0.343-0.055-0.645-0.164-0.906 c-0.162-0.374-0.366-0.688-0.613-0.942c-0.175-0.175-0.442-0.338-0.801-0.489c-0.358-0.151-0.753-0.227-1.182-0.227 c-0.714,0-1.345,0.233-1.893,0.698c-0.548,0.465-0.821,1.069-0.821,1.81c0,0.697,0.253,1.284,0.76,1.761 c0.506,0.477,1.182,0.716,2.026,0.716c0.49,0,1.002-0.058,1.534-0.172c0.532-0.115,0.867-0.236,1.004-0.363 c0.104-0.096,0.155-0.213,0.155-0.35c0-0.151-0.049-0.276-0.145-0.376s-0.215-0.149-0.355-0.149c-0.103,0-0.288,0.035-0.556,0.103 c-0.649,0.168-1.169,0.252-1.561,0.252c-0.478,0-0.855-0.084-1.136-0.252c-0.279-0.168-0.475-0.39-0.584-0.664h4.33V12.648z M51.35,12.041c0.165-0.302,0.378-0.528,0.639-0.677s0.57-0.224,0.927-0.224c0.36,0,0.672,0.075,0.933,0.224 s0.472,0.375,0.633,0.677H51.35z M66.676,14.898h1.164l0.607-5.186c0.161-0.027,0.285-0.089,0.37-0.186 c0.086-0.096,0.129-0.211,0.129-0.345c0-0.158-0.054-0.285-0.162-0.381s-0.289-0.144-0.543-0.144l-1.4-0.005 c-0.255,0-0.436,0.049-0.544,0.147s-0.162,0.226-0.162,0.384c0,0.158,0.054,0.286,0.162,0.383c0.108,0.098,0.289,0.147,0.544,0.147 h0.551l-0.351,2.951l-0.824-2.457H65.12l-0.829,2.457l-0.35-2.951h0.551c0.254,0,0.436-0.049,0.543-0.147 c0.108-0.098,0.162-0.226,0.162-0.383c0-0.158-0.054-0.285-0.162-0.381c-0.107-0.096-0.289-0.144-0.543-0.144l-1.406-0.005 c-0.254,0-0.435,0.05-0.543,0.149s-0.162,0.232-0.162,0.396c0,0.141,0.041,0.257,0.124,0.348c0.082,0.091,0.204,0.147,0.365,0.167 l0.628,5.186h1.185l0.979-2.997L66.676,14.898z M74.636,12.648c0-0.343-0.055-0.645-0.164-0.906 c-0.162-0.374-0.366-0.688-0.613-0.942c-0.175-0.175-0.442-0.338-0.801-0.489c-0.358-0.151-0.753-0.227-1.182-0.227 c-0.714,0-1.345,0.233-1.893,0.698c-0.548,0.465-0.821,1.069-0.821,1.81c0,0.697,0.253,1.284,0.76,1.761 c0.506,0.477,1.182,0.716,2.026,0.716c0.49,0,1.002-0.058,1.534-0.172c0.532-0.115,0.867-0.236,1.004-0.363 c0.104-0.096,0.155-0.213,0.155-0.35c0-0.151-0.049-0.276-0.145-0.376s-0.215-0.149-0.355-0.149c-0.103,0-0.288,0.035-0.556,0.103 c-0.649,0.168-1.169,0.252-1.561,0.252c-0.478,0-0.855-0.084-1.136-0.252c-0.279-0.168-0.475-0.39-0.584-0.664h4.33V12.648z M70.336,12.041c0.165-0.302,0.378-0.528,0.639-0.677s0.57-0.224,0.927-0.224c0.36,0,0.672,0.075,0.933,0.224 s0.472,0.375,0.633,0.677H70.336z M75.749,8.219c-0.255,0-0.436,0.049-0.544,0.147c-0.107,0.098-0.162,0.224-0.162,0.378 c0,0.158,0.055,0.286,0.162,0.384c0.108,0.098,0.289,0.146,0.544,0.146h0.18v4.568h-0.18c-0.251,0-0.432,0.049-0.541,0.147 c-0.109,0.098-0.165,0.224-0.165,0.378c0,0.158,0.055,0.286,0.162,0.383c0.108,0.098,0.289,0.147,0.544,0.147h1.235v-0.257 c0.244,0.141,0.496,0.247,0.757,0.319c0.262,0.072,0.532,0.108,0.814,0.108c0.793,0,1.431-0.229,1.915-0.688 s0.727-1.029,0.727-1.712c0-0.714-0.255-1.323-0.763-1.828c-0.508-0.504-1.128-0.757-1.858-0.757c-0.271,0-0.54,0.042-0.807,0.126 c-0.266,0.084-0.527,0.21-0.785,0.378V8.219H75.749z M79.727,13.639c-0.276,0.249-0.665,0.374-1.166,0.374s-0.89-0.125-1.164-0.374 c-0.274-0.249-0.412-0.567-0.412-0.955c0-0.426,0.153-0.79,0.459-1.092c0.305-0.302,0.678-0.453,1.117-0.453 c0.442,0,0.816,0.151,1.122,0.453c0.306,0.302,0.459,0.671,0.459,1.107C80.142,13.077,80.003,13.391,79.727,13.639z M88.653,13.843 c-0.251,0-0.431,0.049-0.541,0.147c-0.109,0.098-0.165,0.224-0.165,0.378c0,0.158,0.055,0.286,0.162,0.383 c0.108,0.098,0.29,0.147,0.544,0.147h3.1c0.381,0,0.699-0.045,0.953-0.136c0.254-0.091,0.469-0.209,0.644-0.353 c0.13-0.103,0.24-0.242,0.329-0.417c0.12-0.23,0.181-0.479,0.181-0.747c0-0.336-0.083-0.638-0.25-0.904 c-0.166-0.266-0.416-0.499-0.749-0.698c0.182-0.172,0.317-0.359,0.407-0.562c0.089-0.203,0.134-0.419,0.134-0.649 c0-0.484-0.192-0.902-0.577-1.254c-0.385-0.352-0.893-0.528-1.524-0.528h-2.646c-0.254,0-0.436,0.049-0.544,0.147 c-0.107,0.098-0.162,0.226-0.162,0.384c0,0.158,0.055,0.286,0.162,0.383c0.108,0.098,0.29,0.147,0.544,0.147h0.165v4.13H88.653z M89.874,9.713h1.374c0.382,0,0.659,0.069,0.835,0.208c0.175,0.139,0.263,0.301,0.263,0.487c0,0.209-0.093,0.384-0.278,0.525 c-0.274,0.209-0.62,0.314-1.035,0.314h-1.158V9.713z M89.874,12.303h1.396c0.494,0,0.873,0.103,1.138,0.309 c0.265,0.206,0.396,0.416,0.396,0.628c0,0.179-0.067,0.316-0.201,0.412c-0.175,0.127-0.477,0.19-0.906,0.19h-1.822V12.303z M95.646,10.223c-0.254,0-0.436,0.049-0.543,0.147c-0.108,0.098-0.162,0.224-0.162,0.378c0,0.158,0.054,0.286,0.162,0.383 c0.107,0.098,0.289,0.147,0.543,0.147h0.381v2.564h-0.628c-0.254,0-0.436,0.049-0.543,0.147c-0.108,0.098-0.162,0.224-0.162,0.378 c0,0.158,0.054,0.286,0.162,0.383c0.107,0.098,0.289,0.147,0.543,0.147h3.188c0.254,0,0.436-0.049,0.543-0.147 c0.108-0.098,0.162-0.224,0.162-0.378c0-0.158-0.054-0.286-0.162-0.383c-0.107-0.098-0.289-0.147-0.543-0.147h-1.504v-1.591 c0.439-0.371,0.806-0.649,1.1-0.834c0.294-0.186,0.514-0.278,0.662-0.278c0.113,0,0.242,0.065,0.386,0.196 c0.145,0.13,0.281,0.196,0.412,0.196c0.147,0,0.273-0.052,0.379-0.157c0.104-0.104,0.156-0.232,0.156-0.384 c0-0.178-0.109-0.354-0.329-0.525c-0.323-0.254-0.656-0.381-0.999-0.381c-0.224,0-0.463,0.053-0.719,0.16s-0.604,0.319-1.048,0.639 v-0.659H95.646z M106.033,11.404c-0.227-0.403-0.562-0.724-1.007-0.963c-0.444-0.238-0.907-0.358-1.388-0.358 c-0.477,0-0.935,0.117-1.372,0.35c-0.438,0.234-0.773,0.554-1.007,0.96s-0.351,0.821-0.351,1.244c0,0.416,0.115,0.813,0.346,1.195 c0.229,0.381,0.564,0.682,1.004,0.904c0.439,0.221,0.899,0.332,1.38,0.332c0.484,0,0.948-0.112,1.394-0.337 c0.444-0.225,0.779-0.527,1.004-0.906s0.337-0.771,0.337-1.177C106.373,12.223,106.26,11.808,106.033,11.404z M104.834,13.583 c-0.323,0.287-0.722,0.43-1.195,0.43c-0.47,0-0.866-0.143-1.189-0.43c-0.322-0.287-0.484-0.595-0.484-0.924 c0-0.401,0.16-0.755,0.479-1.061s0.718-0.458,1.194-0.458c0.543,0,0.98,0.192,1.313,0.577c0.243,0.285,0.365,0.598,0.365,0.938 C105.317,12.986,105.156,13.296,104.834,13.583z M110.74,14.898h0.979l0.865-3.62c0.186-0.014,0.325-0.069,0.42-0.167 c0.094-0.098,0.142-0.217,0.142-0.358c0-0.158-0.055-0.286-0.162-0.383c-0.108-0.098-0.29-0.147-0.544-0.147h-0.993 c-0.255,0-0.436,0.049-0.544,0.147c-0.107,0.098-0.162,0.224-0.162,0.378c0,0.195,0.083,0.347,0.247,0.453 c0.083,0.051,0.254,0.077,0.516,0.077l-0.412,1.673l-0.659-1.714h-0.938l-0.654,1.714l-0.401-1.673 c0.271,0,0.453-0.041,0.546-0.124c0.124-0.11,0.186-0.244,0.186-0.402c0-0.158-0.054-0.286-0.162-0.383 c-0.108-0.098-0.289-0.147-0.543-0.147h-0.984c-0.254,0-0.435,0.049-0.543,0.147c-0.108,0.098-0.162,0.224-0.162,0.378 c0,0.147,0.049,0.27,0.146,0.368c0.098,0.098,0.243,0.152,0.436,0.162l0.886,3.62h0.993l0.731-1.947L110.74,14.898z M117.614,11.772c0.097,0.079,0.208,0.119,0.335,0.119c0.188,0,0.338-0.079,0.448-0.237c0.055-0.083,0.082-0.239,0.082-0.469 v-0.257c0-0.254-0.048-0.435-0.145-0.543c-0.096-0.108-0.216-0.162-0.36-0.162c-0.048,0-0.101,0.012-0.157,0.036 s-0.117,0.06-0.183,0.108c-0.206-0.096-0.421-0.167-0.646-0.213c-0.226-0.046-0.46-0.07-0.703-0.07c-0.7,0-1.267,0.172-1.699,0.515 c-0.319,0.25-0.479,0.564-0.479,0.942c0,0.367,0.143,0.676,0.428,0.927c0.285,0.254,0.852,0.426,1.699,0.515 c0.569,0.062,0.945,0.137,1.128,0.227c0.182,0.089,0.272,0.203,0.272,0.34c0,0.083-0.063,0.161-0.19,0.237 c-0.268,0.151-0.644,0.227-1.128,0.227c-0.295,0-0.556-0.035-0.782-0.105s-0.421-0.174-0.582-0.312 c-0.048-0.172-0.115-0.293-0.201-0.363s-0.192-0.105-0.319-0.105c-0.157,0-0.285,0.054-0.383,0.162 c-0.099,0.108-0.147,0.29-0.147,0.543v0.355c0,0.254,0.049,0.435,0.147,0.543c0.098,0.108,0.229,0.162,0.394,0.162 c0.062,0,0.122-0.012,0.18-0.036c0.059-0.024,0.113-0.059,0.165-0.103c0.217,0.103,0.454,0.181,0.714,0.234 c0.259,0.053,0.541,0.08,0.847,0.08c0.762,0,1.382-0.184,1.859-0.551c0.333-0.254,0.499-0.57,0.499-0.948 c0-0.278-0.098-0.542-0.293-0.793c-0.196-0.25-0.475-0.439-0.835-0.566c-0.274-0.096-0.762-0.192-1.462-0.289 c-0.382-0.051-0.627-0.104-0.736-0.16c-0.145-0.075-0.217-0.152-0.217-0.231c0-0.069,0.054-0.132,0.16-0.191 c0.24-0.134,0.564-0.201,0.973-0.201c0.206,0,0.403,0.027,0.593,0.08c0.188,0.053,0.369,0.133,0.54,0.239 C117.456,11.589,117.519,11.694,117.614,11.772z M125.267,12.648c0-0.343-0.055-0.645-0.164-0.906 c-0.162-0.374-0.366-0.688-0.613-0.942c-0.175-0.175-0.442-0.338-0.801-0.489c-0.358-0.151-0.753-0.227-1.182-0.227 c-0.714,0-1.345,0.233-1.893,0.698c-0.548,0.465-0.821,1.069-0.821,1.81c0,0.697,0.253,1.284,0.76,1.761 c0.506,0.477,1.182,0.716,2.026,0.716c0.49,0,1.002-0.058,1.534-0.172c0.532-0.115,0.867-0.236,1.004-0.363 c0.104-0.096,0.155-0.213,0.155-0.35c0-0.151-0.049-0.276-0.145-0.376s-0.215-0.149-0.355-0.149c-0.103,0-0.288,0.035-0.556,0.103 c-0.649,0.168-1.169,0.252-1.561,0.252c-0.478,0-0.855-0.084-1.136-0.252c-0.279-0.168-0.475-0.39-0.584-0.664h4.33V12.648z M120.967,12.041c0.165-0.302,0.378-0.528,0.639-0.677s0.57-0.224,0.927-0.224c0.36,0,0.672,0.075,0.933,0.224 s0.472,0.375,0.633,0.677H120.967z M127.291,10.223c-0.254,0-0.436,0.049-0.543,0.147c-0.108,0.098-0.162,0.224-0.162,0.378 c0,0.158,0.054,0.286,0.162,0.383c0.107,0.098,0.289,0.147,0.543,0.147h0.381v2.564h-0.628c-0.254,0-0.436,0.049-0.543,0.147 c-0.108,0.098-0.162,0.224-0.162,0.378c0,0.158,0.054,0.286,0.162,0.383c0.107,0.098,0.289,0.147,0.543,0.147h3.188 c0.254,0,0.436-0.049,0.543-0.147c0.108-0.098,0.162-0.224,0.162-0.378c0-0.158-0.054-0.286-0.162-0.383 c-0.107-0.098-0.289-0.147-0.543-0.147h-1.504v-1.591c0.439-0.371,0.806-0.649,1.1-0.834c0.294-0.186,0.514-0.278,0.662-0.278 c0.113,0,0.242,0.065,0.386,0.196c0.145,0.13,0.281,0.196,0.412,0.196c0.147,0,0.273-0.052,0.379-0.157 c0.104-0.104,0.156-0.232,0.156-0.384c0-0.178-0.109-0.354-0.329-0.525c-0.323-0.254-0.656-0.381-0.999-0.381 c-0.224,0-0.463,0.053-0.719,0.16s-0.604,0.319-1.048,0.639v-0.659H127.291z" fill="#f2f2f2"/></g><g id="change2_1"><path d="M7.127,52.477v368.607c0,0.276,0.224,0.5,0.5,0.5H461.03h10.594c0.276,0,0.5-0.224,0.5-0.5V52.477 c0-0.276-0.224-0.5-0.5-0.5H461.03H7.627C7.351,51.977,7.127,52.2,7.127,52.477z M471.124,52.977v367.607h-9.594V52.977H471.124z M8.127,52.977H460.53v367.607H8.127V52.977z M74.542,36.724v0.846c0,5.373,4.372,9.745,9.745,9.745h349.779 c5.373,0,9.744-4.372,9.744-9.745v-0.846c0-5.373-4.371-9.744-9.744-9.744H84.287C78.914,26.979,74.542,31.351,74.542,36.724z M442.81,36.724v0.846c0,4.822-3.923,8.745-8.744,8.745H84.287c-4.822,0-8.745-3.923-8.745-8.745v-0.846 c0-4.822,3.923-8.744,8.745-8.744h349.779C438.887,27.979,442.81,31.902,442.81,36.724z M90.473,43.176 c3.515,0,6.375-2.705,6.375-6.029c0-3.325-2.859-6.029-6.375-6.029s-6.375,2.705-6.375,6.029 C84.099,40.471,86.958,43.176,90.473,43.176z M85.153,37.647h1.483c0.076,1.504,0.488,2.837,1.125,3.816 C86.323,40.669,85.328,39.276,85.153,37.647z M90.973,42.084v-4.437h2.324C93.165,39.852,92.198,41.683,90.973,42.084z M90.973,36.647V32.21c1.225,0.401,2.192,2.232,2.324,4.437H90.973z M89.973,32.21v4.437h-2.324 C87.781,34.442,88.748,32.611,89.973,32.21z M89.973,37.647v4.437c-1.225-0.401-2.192-2.232-2.324-4.437H89.973z M93.186,41.463 c0.637-0.98,1.049-2.312,1.125-3.816h1.483C95.618,39.276,94.624,40.669,93.186,41.463z M95.794,36.647h-1.483 c-0.076-1.504-0.488-2.837-1.125-3.817C94.624,33.625,95.618,35.018,95.794,36.647z M87.76,32.83 c-0.637,0.98-1.049,2.312-1.125,3.817h-1.483C85.328,35.018,86.323,33.625,87.76,32.83z M31.962,37.147c0-0.276,0.224-0.5,0.5-0.5 h10.707l-4.666-3.025c-0.232-0.15-0.298-0.459-0.147-0.691c0.15-0.232,0.46-0.298,0.691-0.147l6.084,3.944 c0.142,0.092,0.228,0.25,0.228,0.419s-0.086,0.327-0.228,0.419l-6.084,3.944c-0.084,0.055-0.178,0.081-0.271,0.081 c-0.164,0-0.324-0.081-0.42-0.228c-0.15-0.232-0.084-0.542,0.147-0.691l4.666-3.025H32.462 C32.186,37.647,31.962,37.423,31.962,37.147z M11.591,37.566c-0.142-0.092-0.228-0.25-0.228-0.419s0.086-0.327,0.228-0.419 l6.084-3.944c0.232-0.15,0.541-0.083,0.691,0.147c0.15,0.232,0.084,0.542-0.147,0.691l-4.666,3.025H24.26 c0.276,0,0.5,0.224,0.5,0.5s-0.224,0.5-0.5,0.5H13.554l4.666,3.025c0.232,0.15,0.298,0.459,0.147,0.691 c-0.096,0.147-0.256,0.228-0.42,0.228c-0.093,0-0.188-0.026-0.271-0.081L11.591,37.566z M52.561,37.147 c0-3.099,2.521-5.619,5.619-5.619c1.313,0,2.554,0.472,3.558,1.3l-0.393-1.508c-0.07-0.267,0.091-0.54,0.358-0.61 c0.265-0.068,0.54,0.09,0.61,0.358l0.814,3.124c0.041,0.158,0.002,0.326-0.104,0.45c-0.095,0.112-0.235,0.176-0.38,0.176 c-0.016,0-0.032-0.001-0.048-0.002l-3.213-0.308c-0.275-0.026-0.476-0.271-0.45-0.545c0.026-0.275,0.264-0.482,0.545-0.45 l1.732,0.166c-0.842-0.736-1.905-1.15-3.029-1.15c-2.547,0-4.619,2.072-4.619,4.619s2.072,4.619,4.619,4.619 s4.619-2.072,4.619-4.619c0-0.276,0.224-0.5,0.5-0.5s0.5,0.224,0.5,0.5c0,3.098-2.521,5.619-5.619,5.619 S52.561,40.245,52.561,37.147z M455.212,30.642c0-1.042,0.844-1.886,1.886-1.886s1.886,0.844,1.886,1.886s-0.844,1.886-1.886,1.886 S455.212,31.683,455.212,30.642z M455.212,37.147c0-1.042,0.844-1.886,1.886-1.886s1.886,0.844,1.886,1.886 s-0.844,1.886-1.886,1.886S455.212,38.188,455.212,37.147z M455.212,43.652c0-1.042,0.844-1.886,1.886-1.886 s1.886,0.844,1.886,1.886s-0.844,1.886-1.886,1.886S455.212,44.693,455.212,43.652z M478.75,21.302H164.883V9.513 c0-5.246-4.268-9.513-9.513-9.513H9.513C4.268,0,0,4.268,0,9.513v421.372c0,0.276,0.224,0.5,0.5,0.5h478.25 c0.276,0,0.5-0.224,0.5-0.5V21.802C479.25,21.526,479.027,21.302,478.75,21.302z M478.25,430.385H1V9.513C1,4.819,4.819,1,9.513,1 H155.37c4.694,0,8.513,3.819,8.513,8.513v12.289c0,0.276,0.224,0.5,0.5,0.5H478.25V430.385z M149.617,14.545l3.022-3.022 l-3.022-3.022c-0.195-0.195-0.195-0.512,0-0.707s0.512-0.195,0.707,0l3.022,3.022l3.022-3.022c0.195-0.195,0.512-0.195,0.707,0 s0.195,0.512,0,0.707l-3.022,3.022l3.022,3.022c0.195,0.195,0.195,0.512,0,0.707c-0.098,0.098-0.226,0.146-0.354,0.146 s-0.256-0.049-0.354-0.146l-3.022-3.022l-3.022,3.022c-0.098,0.098-0.226,0.146-0.354,0.146s-0.256-0.049-0.354-0.146 C149.421,15.057,149.421,14.74,149.617,14.545z M463.024,137.838v-56.56c0-1.824,1.479-3.303,3.303-3.303s3.303,1.479,3.303,3.303 v56.56c0,1.824-1.479,3.303-3.303,3.303S463.024,139.662,463.024,137.838z" fill="#0d0d0d"/></g></svg>