<?xml version="1.0" encoding="UTF-8" standalone="no"?><svg xmlns="http://www.w3.org/2000/svg" xmlns:xlink="http://www.w3.org/1999/xlink" fill="#0d0d0d" height="344.6" preserveAspectRatio="xMidYMid meet" version="1" viewBox="0.0 0.0 500.0 344.6" width="500" zoomAndPan="magnify"><g id="change1_1"><path d="M499.2,343.7H0.8V0.8h498.4V343.7z" fill="#f2f2f2"/></g><linearGradient gradientUnits="userSpaceOnUse" id="a" x1="250" x2="250" xlink:actuate="onLoad" xlink:show="other" xlink:type="simple" y1="88.506" y2="8.145"><stop offset="0" stop-color="#f2f2f2"/><stop offset="1" stop-color="#f2f2f2" stop-opacity="0"/></linearGradient><path d="M499.2,48.1H0.8V0.8h498.4V48.1z" fill="url(#a)"/><g id="change1_2"><path d="M499.2,48.1v295.7H0.8V48.1h130.4V11.8h132.4v36.3H499.2z" fill="#f2f2f2"/></g><linearGradient gradientUnits="userSpaceOnUse" id="b" x1="248.318" x2="249.838" xlink:actuate="onLoad" xlink:show="other" xlink:type="simple" y1="-21.075" y2="174.942"><stop offset="0" stop-color="#ff80b4"/><stop offset="1" stop-color="#ff80b4" stop-opacity="0"/></linearGradient><path d="M499.2,48.1v295.7H0.8V48.1h130.4V11.8h132.4v36.3H499.2z" fill="url(#b)"/><g id="change1_3"><path d="M479.9,323H20.1v-195h459.8V323z" fill="#f2f2f2"/></g><linearGradient gradientUnits="userSpaceOnUse" id="c" x1="12.322" x2="226.175" xlink:actuate="onLoad" xlink:show="other" xlink:type="simple" y1="225.446" y2="225.446"><stop offset="0" stop-color="#ff80b4"/><stop offset="1" stop-color="#ff80b4" stop-opacity="0"/></linearGradient><path d="M367.6,323H20.1v-195h347.5V323z" fill="url(#c)"/><linearGradient gradientUnits="userSpaceOnUse" id="d" x1="452.534" x2="299.155" xlink:actuate="onLoad" xlink:show="other" xlink:type="simple" y1="225.446" y2="225.446"><stop offset="0" stop-color="#fa643f"/><stop offset="1" stop-color="#fa643f" stop-opacity="0"/></linearGradient><path d="M479.9,323H132.4v-195h347.5V323z" fill="url(#d)"/><g id="change2_1"><path d="M56.4,109.1H20.1V72.8h36.3V109.1z" fill="#fa643f"/></g><g id="change3_1"><path d="M150.6,109.1h-36.3V72.8h36.3V109.1z" fill="#f2f2f2"/></g><g id="change4_1"><path d="M57.2,72H19.3v37.9h37.9V72z M55.6,108.3H20.9V73.6h34.7V108.3z" fill="inherit"/><path d="M151.4,72h-37.9v37.9h37.9V72z M149.8,108.3h-34.7V73.6h34.7V108.3z" fill="inherit"/><path d="M66.6 72H104.5V109.9H66.6z" fill="inherit"/><path d="M179.9,39.7c1.9,0,3.3-0.6,4.4-1.9c1-1.3,1.5-3.2,1.5-5.7c0-2.5-0.5-4.4-1.5-5.6c-1-1.2-2.5-1.9-4.4-1.9s-3.3,0.6-4.4,1.9 c-1,1.2-1.5,3.1-1.5,5.6c0,2.5,0.5,4.4,1.5,5.7C176.5,39.1,178,39.7,179.9,39.7z M179.9,27.2c1.8,0,2.6,1.7,2.6,5 c0,1.7-0.2,2.9-0.7,3.8c-0.4,0.9-1.1,1.3-2,1.3s-1.5-0.4-2-1.3c-0.4-0.9-0.7-2.1-0.7-3.8C177.2,28.8,178.1,27.2,179.9,27.2z" fill="inherit"/><path d="M221.8,33.9h1.9l3.1,5.6h3.6l-3.8-6.3c0.9-0.3,1.7-0.8,2.2-1.5c0.5-0.7,0.8-1.5,0.8-2.5c0-1.4-0.5-2.5-1.4-3.2 c-0.9-0.7-2.4-1.1-4.3-1.1h-5.4v14.6h3.2V33.9z M221.8,27.4h1.8c1,0,1.7,0.2,2.1,0.5c0.4,0.3,0.7,0.8,0.7,1.5 c0,1.4-0.9,2.1-2.7,2.1h-1.9V27.4z" fill="inherit"/><path d="M165.7,39.7c2.8,0,4.6-1.5,5.6-4.6l-3-0.6c-0.6,1.8-1.4,2.6-2.6,2.6c-1,0-1.8-0.4-2.3-1.3s-0.8-2.1-0.8-3.8 c0-3.3,1-4.9,2.9-4.9c0.5,0,1,0.2,1.4,0.6c0.4,0.4,0.7,1,0.9,1.8l2.9-0.7c-0.4-1.4-1.1-2.4-2-3.2c-0.9-0.7-2-1.1-3.4-1.1 c-4.1,0-6.2,2.5-6.2,7.5c0,2.5,0.5,4.4,1.6,5.7C162.1,39.1,163.6,39.7,165.7,39.7z" fill="inherit"/><path d="M209.1,39.7c1.9,0,3.3-0.6,4.4-1.9c1-1.3,1.5-3.2,1.5-5.7c0-2.5-0.5-4.4-1.5-5.6c-1-1.2-2.5-1.9-4.4-1.9s-3.3,0.6-4.4,1.9 c-1,1.2-1.5,3.1-1.5,5.6c0,2.5,0.5,4.4,1.5,5.7C205.8,39.1,207.3,39.7,209.1,39.7z M209.1,27.2c1.8,0,2.6,1.7,2.6,5 c0,1.7-0.2,2.9-0.7,3.8c-0.4,0.9-1.1,1.3-2,1.3c-0.9,0-1.5-0.4-2-1.3c-0.4-0.9-0.7-2.1-0.7-3.8C206.5,28.8,207.4,27.2,209.1,27.2z" fill="inherit"/><path d="M200 37L193.3 37 193.3 24.9 190.1 24.9 190.1 39.5 200 39.5z" fill="inherit"/><path d="M385.8 93.3L393.1 93.3 393.1 91.6 385.8 91.6 385.8 86.2 393.4 86.2 393.4 84.5 383.7 84.5 383.7 99.2 385.8 99.2z" fill="inherit"/><path d="M368.8,99.2h1.2l0.9-4.4h3.9l-0.9,4.4h1.2l1-4.4h3.1v-1.2h-2.8l0.7-3.4h2.5V89h-2.3l1-4.4h-1.2l-1,4.4h-3.9l1-4.4h-1.2 l-1,4.4h-2.8v1.2h2.6l-0.7,3.4h-2.4v1.2h2.2L368.8,99.2z M372,90.1h3.9l-0.7,3.4h-3.9L372,90.1z" fill="inherit"/><path d="M459 93.3L466.3 93.3 466.3 91.6 459 91.6 459 86.2 466.6 86.2 466.6 84.5 456.9 84.5 456.9 99.2 459 99.2z" fill="inherit"/><path d="M400.4 93.3L407.8 93.3 407.8 91.6 400.4 91.6 400.4 86.2 408 86.2 408 84.5 398.4 84.5 398.4 99.2 400.4 99.2z" fill="inherit"/><path d="M429.7 93.3L437 93.3 437 91.6 429.7 91.6 429.7 86.2 437.3 86.2 437.3 84.5 427.7 84.5 427.7 99.2 429.7 99.2z" fill="inherit"/><path d="M444.4 93.3L451.7 93.3 451.7 91.6 444.4 91.6 444.4 86.2 451.9 86.2 451.9 84.5 442.3 84.5 442.3 99.2 444.4 99.2z" fill="inherit"/><path d="M415.1 93.3L422.4 93.3 422.4 91.6 415.1 91.6 415.1 86.2 422.7 86.2 422.7 84.5 413 84.5 413 99.2 415.1 99.2z" fill="inherit"/><path d="M0,0v11.8v0.8v34.7v0.8v296.5h500V48.1v-0.8V12.6v-0.8V0H0z M264.5,12.6h119.4v34.7H264.5V12.6z M1.6,12.6h128.8v34.7H1.6 V12.6z M498.4,343H1.6V48.9H132V12.6h130.8v36.3h235.5V343z M498.4,47.3h-113V12.6h113V47.3z" fill="inherit"/><path d="M480.7,72H354.4v37.9h126.3V72z M479.1,108.3H356V73.6h123.1V108.3z" fill="inherit"/><path d="M19.3,323.8h461.4V127.1H19.3V323.8z M20.9,128.7h458.2v193.4H20.9V128.7z" fill="inherit"/><path d="M467.5 23.3H492.3V24.900000000000002H467.5z" fill="inherit"/><path d="M467.5 29.1H492.3V30.700000000000003H467.5z" fill="inherit"/><path d="M467.5 34.9H492.3V36.5H467.5z" fill="inherit"/></g></svg>