<?xml version="1.0" encoding="UTF-8" standalone="no"?><svg xmlns="http://www.w3.org/2000/svg" xmlns:xlink="http://www.w3.org/1999/xlink" fill="#0d0d0d" height="371.6" preserveAspectRatio="xMidYMid meet" version="1" viewBox="0.0 0.0 500.0 371.6" width="500" zoomAndPan="magnify"><g id="change1_1"><path d="M499.2,370.8H0.8V0.8h498.3V370.8z" fill="#e0d2ef"/></g><linearGradient gradientUnits="userSpaceOnUse" id="a" x1="453.962" x2="195.425" xlink:actuate="onLoad" xlink:show="other" xlink:type="simple" y1="394.729" y2="129.886"><stop offset="0" stop-color="#604abd"/><stop offset="1" stop-color="#604abd" stop-opacity="0"/></linearGradient><path d="M499.2,370.8H0.8V0.8h498.3V370.8z" fill="url(#a)"/><g id="change2_1"><path d="M71.9,146.1l-27.3-27.3l32.7-32.7l27.3,27.3L71.9,146.1z" fill="#f2f2f2"/></g><g id="change3_1"><path d="M1.7,100.4H0v-8.3h1.7V100.4z M1.7,105.3H0v8.3h1.7V105.3z M1.7,78.8H0v8.3h1.7V78.8z M1.7,118.6H0v8.3h1.7V118.6z M1.7,65.6H0v8.3h1.7V65.6z M1.7,145.1H0v8.3h1.7V145.1z M1.7,131.9H0v8.3h1.7V131.9z M1.7,12.6H0v8.3h1.7V12.6z M1.7,1.7h0.7V0H0 v7.6h1.7V1.7z M15.6,0H7.3v1.7h8.3V0z M1.7,330.7H0v8.3h1.7V330.7z M1.7,158.4H0v8.3h1.7V158.4z M1.7,39.1H0v8.3h1.7V39.1z M1.7,52.3H0v8.3h1.7V52.3z M1.7,25.8H0v8.3h1.7V25.8z M0.8,370.4H0v1.2h8.8v-1.7h-8V370.4z M1.7,264.4H0v8.3h1.7V264.4z M1.7,277.6 H0v8.3h1.7V277.6z M42.1,0h-8.3v1.7h8.3V0z M1.7,343.9H0v8.3h1.7V343.9z M1.7,290.9H0v8.3h1.7V290.9z M1.7,317.4H0v8.3h1.7V317.4z M1.7,304.2H0v8.3h1.7V304.2z M1.7,198.1H0v8.3h1.7V198.1z M1.7,171.6H0v8.3h1.7V171.6z M1.7,184.9H0v8.3h1.7V184.9z M1.7,211.4H0 v8.3h1.7V211.4z M1.7,357.2H0v8.3h1.7V357.2z M1.7,251.1H0v8.3h1.7V251.1z M1.7,224.6H0v8.3h1.7V224.6z M1.7,237.9H0v8.3h1.7V237.9z M28.9,0h-8.3v1.7h8.3V0z M386.7,0h-8.3v1.7h8.3V0z M360.2,0h-8.3v1.7h8.3V0z M55.4,0h-8.3v1.7h8.3V0z M373.5,0h-8.3v1.7h8.3V0z M333.7,0h-8.3v1.7h8.3V0z M293.9,0h-8.3v1.7h8.3V0z M307.2,0h-8.3v1.7h8.3V0z M280.7,0h-8.3v1.7h8.3V0z M320.4,0h-8.3v1.7h8.3V0z M453,0h-8.3v1.7h8.3V0z M466.2,0h-8.3v1.7h8.3V0z M479.5,0h-8.3v1.7h8.3V0z M492.7,0h-8.3v1.7h8.3V0z M400,0h-8.3v1.7h8.3V0z M439.7,0h-8.3v1.7h8.3V0z M413.2,0h-8.3v1.7h8.3V0z M426.5,0h-8.3v1.7h8.3V0z M346.9,0h-8.3v1.7h8.3V0z M134.9,0h-8.3v1.7h8.3V0z M121.6,0h-8.3v1.7h8.3V0z M161.4,0h-8.3v1.7h8.3V0z M148.1,0h-8.3v1.7h8.3V0z M108.4,0h-8.3v1.7h8.3V0z M68.6,0h-8.3v1.7h8.3V0z M95.1,0h-8.3v1.7h8.3V0z M81.9,0h-8.3v1.7h8.3V0z M201.2,0h-8.3v1.7h8.3V0z M227.7,0h-8.3v1.7h8.3V0z M240.9,0h-8.3v1.7h8.3V0z M254.2,0h-8.3v1.7h8.3V0z M174.6,0h-8.3v1.7h8.3V0z M187.9,0h-8.3v1.7h8.3V0z M267.4,0h-8.3v1.7h8.3V0z M214.4,0h-8.3v1.7h8.3V0z M498.3,166.7h1.7v-8.3h-1.7V166.7z M437.9,371.6h8.3v-1.7h-8.3V371.6z M498.3,325.7h1.7v-8.3h-1.7V325.7z M498.3,312.5h1.7v-8.3 h-1.7V312.5z M498.3,272.7h1.7v-8.3h-1.7V272.7z M498.3,299.2h1.7v-8.3h-1.7V299.2z M498.3,233h1.7v-8.3h-1.7V233z M498.3,259.5h1.7 v-8.3h-1.7V259.5z M498.3,246.2h1.7v-8.3h-1.7V246.2z M451.1,371.6h8.3v-1.7h-8.3V371.6z M464.4,371.6h8.3v-1.7h-8.3V371.6z M477.6,371.6h8.3v-1.7h-8.3V371.6z M498.3,219.7h1.7v-8.3h-1.7V219.7z M498.3,365.5h1.7v-8.3h-1.7V365.5z M498.3,352.2h1.7V344 h-1.7V352.2z M499.2,369.9h-8.3v1.7h9.1v-1.1h-0.8V369.9z M498.3,339h1.7v-8.3h-1.7V339z M498.3,286h1.7v-8.3h-1.7V286z M498.3,87.2 h1.7v-8.3h-1.7V87.2z M498.3,60.7h1.7v-8.3h-1.7V60.7z M498.3,73.9h1.7v-8.3h-1.7V73.9z M498.3,47.4h1.7v-8.3h-1.7V47.4z M498.3,34.2h1.7v-8.3h-1.7V34.2z M497.7,0v1.7h0.6v6h1.7V0H497.7z M498.3,20.9h1.7v-8.3h-1.7V20.9z M498.3,113.7h1.7v-8.3h-1.7 V113.7z M498.3,100.4h1.7v-8.3h-1.7V100.4z M498.3,179.9h1.7v-8.3h-1.7V179.9z M498.3,193.2h1.7v-8.3h-1.7V193.2z M498.3,153.4h1.7 v-8.3h-1.7V153.4z M498.3,140.2h1.7v-8.3h-1.7V140.2z M498.3,206.5h1.7v-8.3h-1.7V206.5z M498.3,126.9h1.7v-8.3h-1.7V126.9z M212.6,371.6h8.3v-1.7h-8.3V371.6z M146.3,371.6h8.3v-1.7h-8.3V371.6z M133,371.6h8.3v-1.7H133V371.6z M159.5,371.6h8.3v-1.7h-8.3 V371.6z M199.3,371.6h8.3v-1.7h-8.3V371.6z M172.8,371.6h8.3v-1.7h-8.3V371.6z M119.8,371.6h8.3v-1.7h-8.3V371.6z M186,371.6h8.3 v-1.7H186V371.6z M53.5,371.6h8.3v-1.7h-8.3V371.6z M13.7,371.6H22v-1.7h-8.3V371.6z M40.3,371.6h8.3v-1.7h-8.3V371.6z M27,371.6 h8.3v-1.7H27V371.6z M106.5,371.6h8.3v-1.7h-8.3V371.6z M93.3,371.6h8.3v-1.7h-8.3V371.6z M80,371.6h8.3v-1.7H80V371.6z M66.8,371.6 H75v-1.7h-8.3V371.6z M371.6,371.6h8.3v-1.7h-8.3V371.6z M424.6,371.6h8.3v-1.7h-8.3V371.6z M358.3,371.6h8.3v-1.7h-8.3V371.6z M345.1,371.6h8.3v-1.7h-8.3V371.6z M398.1,371.6h8.3v-1.7h-8.3V371.6z M411.4,371.6h8.3v-1.7h-8.3V371.6z M384.9,371.6h8.3v-1.7 h-8.3V371.6z M331.8,371.6h8.3v-1.7h-8.3V371.6z M239.1,371.6h8.3v-1.7h-8.3V371.6z M278.8,371.6h8.3v-1.7h-8.3V371.6z M265.6,371.6 h8.3v-1.7h-8.3V371.6z M252.3,371.6h8.3v-1.7h-8.3V371.6z M225.8,371.6h8.3v-1.7h-8.3V371.6z M305.3,371.6h8.3v-1.7h-8.3V371.6z M318.6,371.6h8.3v-1.7h-8.3V371.6z M292.1,371.6h8.3v-1.7h-8.3V371.6z M117,120.4c0,8.1-5.2,15.1-12.4,17.7v-23.5l-32.7,32.7 l-28.5-28.5L61.2,101V84.9c0-6,4.9-10.9,10.9-10.9s10.9,4.9,10.9,10.9v5.8l11.4,11.4c1.2-0.3,2.5-0.4,3.9-0.4 C108.6,101.6,117,110.1,117,120.4z M82.9,107.5h-1.7v-2.7c-1.1,0.4-2,1.4-2,2.7c0,1.6,1.3,2.8,2.8,2.8s2.8-1.3,2.8-2.8 c0-1.3-0.8-2.3-2-2.7V107.5z M62.9,99.3L77.2,85l4.1,4.1v-4.1c0-5.1-4.1-9.2-9.2-9.2c-5.1,0-9.2,4.1-9.2,9.2V99.3z M103.4,113.5 L82.9,93v10.1c2.1,0.4,3.6,2.2,3.6,4.4c0,2.5-2,4.5-4.5,4.5s-4.5-2-4.5-4.5c0-2.2,1.6-4,3.6-4.4V91.4l-4.1-4.1l-31.5,31.5L71.9,145 L103.4,113.5z" fill="inherit"/></g></svg>